<?xml version="1.0" standalone="no"?>
<!DOCTYPE svg PUBLIC "-//W3C//DTD SVG 1.1//EN" "http://www.w3.org/Graphics/SVG/1.1/DTD/svg11.dtd" >
<svg>
<metadata>
Created by FontForge 20090914 at Wed Mar 27 12:29:38 2013
 By www-data
Digitized data copyright The Monotype Corporation 1991-1995. All rights reserved. ITC Franklin Gothic is a trademark of The International Typeface Corporation which may be registered in certain jurisdictions.
</metadata>
<defs>
<font id="FranklinGothic-Heavy" horiz-adv-x="1201" >
  <font-face 
    font-family="Franklin Gothic Heavy"
    font-weight="400"
    font-stretch="normal"
    units-per-em="2048"
    panose-1="2 11 9 3 2 1 2 2 2 4"
    ascent="1638"
    descent="-410"
    x-height="1017"
    cap-height="1365"
    bbox="-509 -628 2348 2014"
    underline-thickness="102"
    underline-position="-103"
    unicode-range="U+0020-U+FB02"
  />
<missing-glyph horiz-adv-x="2048" 
d="M256 0v1536h1536v-1536h-1536zM384 128h1280v1280h-1280v-1280z" />
    <glyph glyph-name=".notdef" horiz-adv-x="2048" 
d="M256 0v1536h1536v-1536h-1536zM384 128h1280v1280h-1280v-1280z" />
    <glyph glyph-name="space" unicode=" " horiz-adv-x="512" 
 />
    <glyph glyph-name="exclam" unicode="!" horiz-adv-x="646" 
d="M563 1365l-114 -905h-253l-107 905h474zM516 365v-365h-386v365h386z" />
    <glyph glyph-name="quotedbl" unicode="&#x22;" horiz-adv-x="845" 
d="M328 789h-196l-49 576h295zM712 789h-196l-49 576h295z" />
    <glyph glyph-name="numbersign" unicode="#" 
d="M1107 621l-38 -213h-199l-74 -408h-229l74 408h-160l-74 -408h-226l74 408h-224l39 213h224l27 151h-221l39 212h221l69 381h225l-69 -381h161l69 381h229l-70 -381h195l-38 -212h-195l-27 -151h198zM707 772h-161l-27 -151h161z" />
    <glyph glyph-name="dollar" unicode="$" 
d="M488 1335l-0.00292969 171.002h192v-167c215.333 -24 356 -126.333 422 -307l-313 -98c-32 84.667 -97.333 127 -196 127c-82.667 0 -124 -26.667 -124 -80c0 -19.333 7 -35.833 21 -49.5s52.667 -27.5 116 -41.5c144.667 -31.333 248.334 -59.5 311.001 -84.5
s114.834 -67.333 156.501 -127s62.5 -130.167 62.5 -211.5c0 -114 -40.5 -209.5 -121.5 -286.5s-192.5 -123.5 -334.5 -139.5v-173h-192v173c-241.333 28.667 -393 155.667 -455 381l350 65c30 -102.667 105.667 -154 227 -154c94.667 0 142 26 142 78
c0 27.333 -11 48.666 -33 63.999s-61 28.666 -117 39.999c-220 44.667 -359.5 101.667 -418.5 171s-88.5 149 -88.5 239c0 99.333 32.333 187.5 97 264.5s163.334 125.5 296.001 145.5z" />
    <glyph glyph-name="percent" unicode="%" horiz-adv-x="1455" 
d="M337 673c-84.667 0 -151.833 32.167 -201.5 96.5s-74.5 149.833 -74.5 256.5c0 108.667 25.5 194.167 76.5 256.5s118.833 93.5 203.5 93.5c88 0 156 -33.167 204 -99.5s72 -151.833 72 -256.5c0 -106.667 -25.667 -191.167 -77 -253.5s-119 -93.5 -203 -93.5z
M338.001 822c47.333 0 71 66.667 71 200c0 60.667 -4.5 110 -13.5 148s-27.833 57 -56.5 57c-46 0 -69 -64.333 -69 -193c0 -79.333 4.83301 -134.5 14.5 -165.5s27.5 -46.5 53.5 -46.5zM1234 1365l-829 -1365h-189l835 1365h183zM1114 -10
c-84 0 -150.834 32.165 -200.501 96.498s-74.5 149.833 -74.5 256.5c0 108.667 25.333 194.334 76 257.001s118.334 94 203.001 94c82 0 148.5 -31.167 199.5 -93.5s76.5 -150.166 76.5 -263.499c0 -106 -25.667 -190.333 -77 -253s-119 -94 -203 -94zM1116 138.998
c47.333 0 71.001 66.667 71.001 200c0 60.667 -4.33301 110.167 -13 148.5s-27.334 57.5 -56.001 57.5c-46.667 0 -70 -64 -70 -192c0 -81.333 4.83301 -137.333 14.5 -168s27.5 -46 53.5 -46z" />
    <glyph glyph-name="ampersand" unicode="&#x26;" horiz-adv-x="1515" 
d="M1120 798l354.001 -42c-44 -185.333 -119 -326 -225 -422c30 -25.333 73 -38 129 -38c25.333 0 57.333 2 96 6v-294c-55.333 -14.667 -109.333 -22 -162 -22c-124 0 -231 36.667 -321 110c-91.333 -78 -222 -117 -392 -117c-159.333 0 -290.5 37.167 -393.5 111.5
s-154.5 177.833 -154.5 310.5c0 176.667 105.333 301.667 316 375c-74 94 -111 182.667 -111 266c0 105.333 39.667 189 119 251s188.333 93 327 93c130.667 0 235.5 -29.667 314.5 -89s118.5 -141.333 118.5 -246c0 -86.667 -26 -159.167 -78 -217.5
s-112 -97.833 -180 -118.5l140 -149c45.333 44.667 79.666 122 102.999 232zM716.001 912c66.667 26 100 68.334 100 127.001c0 29.333 -9.33301 53.666 -28 72.999s-44 29 -76 29c-28 0 -50.833 -8.33301 -68.5 -25s-26.5 -36.667 -26.5 -60c0 -43.333 33 -91.333 99 -144z
M551.001 578.001c-66 -28.667 -99 -78.667 -99 -150c0 -46 15.333 -83.167 46 -111.5s73 -42.5 127 -42.5c64 0 115.333 18.333 154 55z" />
    <glyph glyph-name="quotesingle" unicode="'" horiz-adv-x="461" 
d="M328 789h-195l-50 576h295z" />
    <glyph glyph-name="parenleft" unicode="(" horiz-adv-x="601" 
d="M597 1365c-174 -255.333 -261 -535.667 -261 -841c0 -294 87 -575.667 261 -845h-270c-210.667 270 -316 553 -316 849c0 310.667 105.333 589.667 316 837h270z" />
    <glyph glyph-name="parenright" unicode=")" horiz-adv-x="601" 
d="M4 -321c174 255.333 261 536 261 842c0 294 -87 575.333 -261 844h270c210.667 -270 316 -552.667 316 -848c0 -310.667 -105.333 -590 -316 -838h-270z" />
    <glyph glyph-name="asterisk" unicode="*" 
d="M737 1393l-37 -333l319 142l80 -259l-333 -38l226 -239l-220 -162l-172 312l-171 -312l-220 162l226 239l-333 38l80 259l319 -142l-37 333h273z" />
    <glyph glyph-name="plus" unicode="+" 
d="M1098 816v-253h-370v-384h-255v384h-370v253h370v384h255v-384h370z" />
    <glyph glyph-name="comma" unicode="," horiz-adv-x="563" 
d="M472 363v-335l-219 -379h-157l157 351h-161v363h380z" />
    <glyph glyph-name="hyphen" unicode="-" horiz-adv-x="563" 
d="M535 673v-314h-507v314h507z" />
    <glyph glyph-name="period" unicode="." horiz-adv-x="563" 
d="M472 365v-365h-380v365h380z" />
    <glyph glyph-name="slash" unicode="/" horiz-adv-x="1047" 
d="M999 1365l-923 -1686h-201l920 1686h204z" />
    <glyph glyph-name="zero" unicode="0" 
d="M597 -21c-164.667 0 -295 64.833 -391 194.5s-144 300.167 -144 511.5c0 216.667 49.167 387.667 147.5 513s229.833 188 394.5 188c172.667 0 305 -66.833 397 -200.5s138 -304.5 138 -512.5c0 -212 -49.5 -380.667 -148.5 -506s-230.167 -188 -393.5 -188zM601 269
c57.333 0 95.666 36.499 114.999 109.499s29 172.833 29 299.5c0 174 -12.833 287.667 -38.5 341s-60.5 80 -104.5 80c-53.333 0 -90.166 -35.167 -110.499 -105.5s-30.5 -167.166 -30.5 -290.499c0 -167.333 10.167 -281.5 30.5 -342.5s56.833 -91.5 109.5 -91.5z" />
    <glyph glyph-name="one" unicode="1" 
d="M858 304h322v-304h-1050v304h337v649c-128 -56.667 -228 -90 -300 -100v307c194 42 325.667 117.333 395 226h296v-1082z" />
    <glyph glyph-name="two" unicode="2" 
d="M1116 335l-14.999 -334.999h-1040v314l232 163c34 23.333 97.5 73.5 190.5 150.5s153.667 136.167 182 177.5s42.5 84.666 42.5 129.999c0 43.333 -12.333 78.166 -37 104.499s-57 39.5 -97 39.5c-100 0 -156 -78.667 -168 -236l-345 67
c25.333 160.667 88.166 280.167 188.499 358.5s218.833 117.5 355.5 117.5c148 0 268.833 -39.667 362.5 -119s140.5 -185 140.5 -317c0 -88 -25.5 -171.667 -76.5 -251s-200.167 -200.666 -447.5 -363.999h532z" />
    <glyph glyph-name="three" unicode="3" 
d="M25 417l355.999 44c23.333 -124.667 90 -187 200 -187c50 0 90.667 13 122 39s47 61 47 105c0 29.333 -8.5 55.166 -25.5 77.499s-35.167 38 -54.5 47s-52.666 13.5 -99.999 13.5h-166v285h140c74.667 0 122.667 13.333 144 40s32 54.334 32 83.001
c0 36 -13.333 66 -40 90s-61.667 36 -105 36c-93.333 0 -150.333 -52 -171 -156l-330 52c30 128 93.5 226.667 190.5 296s211.833 104 344.5 104c149.333 0 269.333 -35 360 -105s136 -163.333 136 -280c0 -70 -19.167 -131 -57.5 -183s-87.166 -87 -146.499 -105
c164 -50 246 -157 246 -321c0 -130.667 -49.833 -232.167 -149.5 -304.5s-228.834 -108.5 -387.501 -108.5c-318.667 0 -513.667 146 -585 438z" />
    <glyph glyph-name="four" unicode="4" 
d="M1178 300h-192v-300h-376v300h-558v297l514 789h420v-789h192v-297zM610 597v408l-259 -408h259z" />
    <glyph glyph-name="five" unicode="5" 
d="M1050 1028h-572.004l-16 -193c74 51.333 156 77 246 77c118.667 0 222.334 -40.667 311.001 -122s133 -190 133 -326c0 -143.333 -51.667 -260 -155 -350s-235.333 -135 -396 -135c-140 0 -261.167 36.833 -363.5 110.5s-165.166 176.5 -188.499 308.5l352 43
c23.333 -99.333 87 -149 191 -149c52.667 0 93.834 16 123.501 48s44.5 71 44.5 117c0 52 -17 92.667 -51 122s-74.333 44 -121 44c-69.333 0 -122.666 -28.667 -159.999 -86l-313 44l60 784h911z" />
    <glyph glyph-name="six" unicode="6" 
d="M1115 979l-349.002 -41.999c-10.667 109.333 -55 164 -133 164c-112.667 0 -170.667 -118.333 -174 -355c53.333 84 145 126 275 126c123.333 0 223.5 -39.667 300.5 -119s115.5 -181.333 115.5 -306c0 -130.667 -48.833 -241.334 -146.5 -332.001
s-223.5 -136 -377.5 -136c-112.667 0 -213 27.167 -301 81.5s-154.333 134.5 -199 240.5s-67 222 -67 348c0 214.667 49 391.167 147 529.5s237.667 207.5 419 207.5c128.667 0 237.834 -35.167 327.501 -105.5s143.834 -170.833 162.501 -301.5zM613.998 257.001
c46 0 82.666 15.668 109.999 47.001s41 69.666 41 114.999c0 44.667 -13.5 83.667 -40.5 117s-62.5 50 -106.5 50c-45.333 0 -82.666 -16.5 -111.999 -49.5s-44 -72.5 -44 -118.5c0 -44.667 14 -82.667 42 -114s64.667 -47 110 -47z" />
    <glyph glyph-name="seven" unicode="7" 
d="M1102 1365l-0.000976562 -256c-99.333 -116.667 -184.666 -272 -255.999 -466s-107 -379.667 -107 -557c0 -17.333 1.33301 -46 4 -86h-451c0 160.667 39.167 336 117.5 526s183.5 355.667 315.5 497h-633l29 342h981z" />
    <glyph glyph-name="eight" unicode="8" 
d="M936 742c147.333 -74.667 221.002 -186.998 221.002 -336.998c0 -136 -52.833 -241 -158.5 -315s-244.834 -111 -417.501 -111s-305.334 35 -398.001 105s-139 161.667 -139 275c0 143.333 71 246.333 213 309c-114 63.333 -171 162.666 -171 297.999
c0 119.333 46.5 219.166 139.5 299.499s221.833 120.5 386.5 120.5c147.333 0 267.5 -33.333 360.5 -100s139.5 -155 139.5 -265c0 -50 -10.5 -96.5 -31.5 -139.5s-69.167 -89.5 -144.5 -139.5zM681.002 847.002c56.667 28 84.999 70 84.999 126
c0 41.333 -15.667 75.5 -47 102.5s-75.666 40.5 -132.999 40.5c-40.667 0 -72.5 -9.66699 -95.5 -29s-34.5 -43 -34.5 -71c0 -52 33.333 -91.333 100 -118zM494.001 531.002c-63.333 -38.667 -94.999 -86 -94.999 -142c0 -41.333 17.667 -76 53 -104s85.666 -42 150.999 -42
c52.667 0 93 9.83301 121 29.5s42 45.167 42 76.5c0 52 -39 93 -117 123z" />
    <glyph glyph-name="nine" unicode="9" 
d="M91 344l350 56c14.667 -84 58.334 -126 131.001 -126c57.333 0 101.166 26.667 131.499 80s45.5 126.666 45.5 219.999c0 10.667 -0.333008 24.334 -1 41.001c-60 -88 -148.667 -132 -266 -132c-123.333 0 -225.333 40.667 -306 122s-121 185 -121 311
c0 138 47.5 250.833 142.5 338.5s222.5 131.5 382.5 131.5c184 0 323 -60.833 417 -182.5s141 -282.167 141 -481.5c0 -219.333 -48.833 -398 -146.5 -536s-243.167 -207 -436.5 -207c-126.667 0 -231.167 32.5 -313.5 97.5s-132.5 154.167 -150.5 267.5zM575 773
c40.667 0 76.333 14.167 107 42.5s46 68.5 46 120.5c0 52.667 -14 94.334 -42 125.001s-63.333 46 -106 46c-40 0 -74.167 -14.333 -102.5 -43s-42.5 -71.667 -42.5 -129c0 -50.667 13.167 -90.334 39.5 -119.001s59.833 -43 100.5 -43z" />
    <glyph glyph-name="colon" unicode=":" horiz-adv-x="563" 
d="M472 1017v-364h-380v364h380zM472 365v-365h-380v365h380z" />
    <glyph glyph-name="semicolon" unicode=";" horiz-adv-x="563" 
d="M472 1017v-364h-380v364h380zM472 363v-335l-219 -379h-157l157 351h-161v363h380z" />
    <glyph glyph-name="semicolon" unicode="&#x37e;" horiz-adv-x="563" 
d="M472 1017v-364h-380v364h380zM472 363v-335l-219 -379h-157l157 351h-161v363h380z" />
    <glyph glyph-name="less" unicode="&#x3c;" 
d="M1024 1261v-280l-589 -297l589 -297v-278l-887 458v236z" />
    <glyph glyph-name="equal" unicode="=" 
d="M1098 993v-254h-995v254h995zM1098 613v-254h-995v254h995z" />
    <glyph glyph-name="greater" unicode="&#x3e;" 
d="M177 109v280l589 296l-589 298v278l887 -458v-237z" />
    <glyph glyph-name="question" unicode="?" horiz-adv-x="1119" 
d="M388 877l-366.998 40c56 312.667 237.667 469 545 469c154.667 0 276.667 -40.833 366 -122.5s134 -182.834 134 -303.501c0 -53.333 -8.83301 -102 -26.5 -146s-40.334 -80.167 -68.001 -108.5s-72.5 -65.166 -134.5 -110.499
c-47.333 -34.667 -77.5 -59.834 -90.5 -75.501s-21.833 -38.5 -26.5 -68.5h-332c0 80.667 7.16699 138.834 21.5 174.501s43.833 73.5 88.5 113.5c67.333 60.667 109.333 105.834 126 135.501s25 64.167 25 103.5c0 41.333 -11 73.166 -33 95.499s-49.333 33.5 -82 33.5
c-96.667 0 -145.334 -76.667 -146.001 -230zM758.002 365v-365h-383v365h383z" />
    <glyph glyph-name="at" unicode="@" horiz-adv-x="1570" 
d="M1134 1030l-55.001 -448.997c-3.33301 -30.667 -5 -57.334 -5 -80.001c0 -28 13 -42 39 -42c48 0 94.333 30.333 139 91s67 136.667 67 228c0 133.333 -48.667 244 -146 332s-216.666 132 -357.999 132c-153.333 0 -282.666 -53.5 -387.999 -160.5
s-158 -240.5 -158 -400.5c0 -147.333 49.167 -275.666 147.5 -384.999s237.166 -164 416.499 -164c138.667 0 281.334 38.333 428.001 115l66 -164c-160.667 -82.667 -325.334 -124 -494.001 -124c-234 0 -420 71.167 -558 213.5s-207 312.166 -207 509.499
c0 206 72.5 378.167 217.5 516.5s320.5 207.5 526.5 207.5c196 0 360 -60.833 492 -182.5s198 -268.834 198 -441.501c0 -136 -40.333 -252.167 -121 -348.5s-176.334 -144.5 -287.001 -144.5c-75.333 0 -132.333 29 -171 87c-51.333 -60.667 -113 -91 -185 -91
c-80.667 0 -149.667 34.167 -207 102.5s-86 158.166 -86 269.499c0 114 32.333 207.167 97 279.5s142.334 108.5 233.001 108.5c57.333 0 110 -19.667 158 -59l12 44h189zM749.999 477.003c46 0 85.668 22.5 119.001 67.5s50 96.5 50 154.5c0 46.667 -13.5 84 -40.5 112
s-57.833 42 -92.5 42c-40 0 -73.5 -18.667 -100.5 -56s-40.5 -86.333 -40.5 -147c0 -49.333 9.66699 -90.5 29 -123.5s44.666 -49.5 75.999 -49.5z" />
    <glyph glyph-name="A" unicode="A" horiz-adv-x="1306" 
d="M872 0l-77 269h-366l-82 -269h-340l422 1365h443l427 -1365h-427zM500 567h222l-111 396z" />
    <glyph glyph-name="B" unicode="B" horiz-adv-x="1316" 
d="M119 0v1365h693c144 0 249 -36.333 315 -109s99 -155.667 99 -249c0 -68 -19.167 -129.5 -57.5 -184.5s-95.5 -92.833 -171.5 -113.5c176.667 -42.667 265 -148.667 265 -318c0 -101.333 -31.167 -191.833 -93.5 -271.5s-195.5 -119.5 -399.5 -119.5h-650zM505 842h194
c48.667 0 83 12.333 103 37s30 51 30 79c0 76 -46.667 114 -140 114h-187v-230zM505 304l203.999 0.000976562c50.667 0 87.834 12.5 111.501 37.5s35.5 53.167 35.5 84.5s-11.5 60.166 -34.5 86.499s-65.167 39.5 -126.5 39.5h-190v-248z" />
    <glyph glyph-name="C" unicode="C" horiz-adv-x="1287" 
d="M870 521l383 -23.001c-18 -167.333 -79.833 -295.666 -185.5 -384.999s-235.5 -134 -389.5 -134c-185.333 0 -335 61.333 -449 184s-171 292 -171 508c0 214 54 386.667 162 518s258.667 197 452 197c180.667 0 319.5 -50 416.5 -150s151.833 -232.667 164.5 -398
l-391 -21c0 91.333 -17.5 157.333 -52.5 198s-76.167 61 -123.5 61c-132 0 -198 -132.667 -198 -398c0 -148.667 17.167 -249.667 51.5 -303s82.5 -80 144.5 -80c110.667 0 172.667 75.333 186 226z" />
    <glyph glyph-name="D" unicode="D" horiz-adv-x="1391" 
d="M119 0l-0.000976562 1365h528c229.333 0 401 -68 515 -204s171 -293.333 171 -472c0 -204 -61.167 -369.833 -183.5 -497.5s-281.166 -191.5 -476.499 -191.5h-554zM537.999 314h109c69.333 0 127.833 33.667 175.5 101s71.5 159 71.5 275
c0 99.333 -21.167 185 -63.5 257s-103.5 108 -183.5 108h-109v-741z" />
    <glyph glyph-name="E" unicode="E" horiz-adv-x="1193" 
d="M1146 326v-326h-1027v1365h1027v-315h-616v-198h498v-303h-498v-223h616z" />
    <glyph glyph-name="F" unicode="F" horiz-adv-x="1120" 
d="M972 511h-445v-511h-408v1365h987v-325h-579v-222h445v-307z" />
    <glyph glyph-name="G" unicode="G" horiz-adv-x="1400" 
d="M1298 765l-0.00195312 -765.001h-205c-16.667 56.667 -35 104.334 -55 143.001c-84.667 -109.333 -210 -164 -376 -164c-176 0 -320.667 61.5 -434 184.5s-170 289.5 -170 499.5c0 204 54.833 375.5 164.5 514.5s272.834 208.5 489.501 208.5
c162.667 0 293.667 -41.333 393 -124s163.666 -200 192.999 -352l-406 -40c-20 142 -82.333 213 -187 213c-137.333 0 -206 -130.667 -206 -392c0 -158 22 -262.167 66 -312.5s97.333 -75.5 160 -75.5c50.667 0 93.834 15.333 129.501 46s53.834 72.667 54.501 126h-226v290
h615z" />
    <glyph glyph-name="H" unicode="H" horiz-adv-x="1395" 
d="M1277 1365v-1365h-419v531h-320v-531h-419v1365h419v-502h320v502h419z" />
    <glyph glyph-name="I" unicode="I" horiz-adv-x="657" 
d="M538 1365v-1365h-419v1365h419z" />
    <glyph glyph-name="J" unicode="J" horiz-adv-x="852" 
d="M747 1365l-0.000976562 -860.001c0 -132 -11.833 -232.5 -35.5 -301.5s-69.834 -123.667 -138.501 -164s-161.667 -60.5 -279 -60.5c-103.333 0 -196.666 11 -279.999 33v326c58.667 -16.667 113.334 -25 164.001 -25c60 0 102.667 13.833 128 41.5s38 77.834 38 150.501
v860h403z" />
    <glyph glyph-name="K" unicode="K" horiz-adv-x="1343" 
d="M1350 0h-459l-236 516l-141 -201v-315h-395v1365h395v-564l377 564h376l-345 -499z" />
    <glyph glyph-name="L" unicode="L" horiz-adv-x="1103" 
d="M1076 335v-335h-957v1365h419v-1030h538z" />
    <glyph glyph-name="M" unicode="M" horiz-adv-x="1722" 
d="M1603 1365v-1365h-389v976l-253 -976h-266l-262 976v-976h-314v1365h547l198 -725l189 725h550z" />
    <glyph glyph-name="N" unicode="N" horiz-adv-x="1405" 
d="M1286 0l-341 -0.000976562l-374 603c-48 77.333 -96.333 171.333 -145 282c22 -88 33 -162.667 33 -224v-661h-340v1365h396l318 -500c63.333 -99.333 111.333 -186.666 144 -261.999c-21.333 116.667 -32 236 -32 358v404h341v-1365z" />
    <glyph glyph-name="O" unicode="O" horiz-adv-x="1415" 
d="M709 -21c-192 0 -348.499 63.668 -469.499 191.001s-181.5 297.666 -181.5 510.999c0 204 57.833 372.5 173.5 505.5s276.167 199.5 481.5 199.5c190 0 344.833 -62.667 464.5 -188s179.5 -292.666 179.5 -501.999c0 -216.667 -60.333 -390.334 -181 -521.001
s-276.334 -196 -467.001 -196zM707.001 289.001c70.667 0 121.5 30.833 152.5 92.5s46.5 174.5 46.5 338.5c0 237.333 -63.667 356 -191 356c-137.333 0 -206 -135.333 -206 -406c0 -254 66 -381 198 -381z" />
    <glyph glyph-name="P" unicode="P" horiz-adv-x="1317" 
d="M544 496v-496h-425v1365h583c145.333 0 255.833 -16.667 331.5 -50s135.667 -84.333 180 -153s66.5 -145.667 66.5 -231c0 -130 -45.333 -235 -136 -315s-211.667 -120 -363 -120h-237zM538 789h140c123.333 0 185 45.333 185 136c0 85.333 -57 128 -171 128h-154v-264z
" />
    <glyph glyph-name="Q" unicode="Q" horiz-adv-x="1415" 
d="M849 -7c-46.667 -9.33301 -92.666 -14.001 -137.999 -14.001c-196.667 0 -354.667 65 -474 195s-179 298.333 -179 505c0 206 57.833 375.333 173.5 508s276.167 199 481.5 199c190 0 344.833 -62.667 464.5 -188s179.5 -292.666 179.5 -501.999
c0 -254 -81.667 -447.667 -245 -581c13.333 -39.333 55.666 -59 126.999 -59c32 0 69.667 4.33301 113 13v-309c-74 -7.33301 -132 -11 -174 -11c-74.667 0 -141.167 15.5 -199.5 46.5s-101.5 96.833 -129.5 197.5zM707.001 288.999c70.667 0 121.5 30.833 152.5 92.5
s46.5 174.5 46.5 338.5c0 237.333 -63.667 356 -191 356c-137.333 0 -206 -135.333 -206 -406c0 -254 66 -381 198 -381z" />
    <glyph glyph-name="R" unicode="R" horiz-adv-x="1413" 
d="M1334 0l-465 0.000976562l-199 522h-132v-522h-419v1365h713c157.333 0 279.5 -36.833 366.5 -110.5s130.5 -170.834 130.5 -291.501c0 -78.667 -16 -148.167 -48 -208.5s-96.667 -113.5 -194 -159.5zM538 814.001h179c52.667 0 95 11 127 33s48 54.333 48 97
c0 87.333 -53.667 131 -161 131h-193v-261z" />
    <glyph glyph-name="S" unicode="S" horiz-adv-x="1244" 
d="M-22 395l389 70.001c32.667 -110 116.667 -165 252 -165c105.333 0 158 28 158 84c0 29.333 -12.167 52.166 -36.5 68.499s-67.833 30.833 -130.5 43.5c-239.333 46 -393 106 -461 180s-102 161 -102 261c0 128.667 48.833 235.667 146.5 321s238.167 128 421.5 128
c278 0 461.667 -111.667 551 -335l-347 -105c-36 91.333 -109 137 -219 137c-91.333 0 -137 -28.333 -137 -85c0 -25.333 10.333 -45 31 -59s60.667 -27.333 120 -40c163.333 -34.667 279.333 -65.334 348 -92.001s126 -72.167 172 -136.5s69 -140.166 69 -227.499
c0 -138 -56 -249.833 -168 -335.5s-259 -128.5 -441 -128.5c-332.667 0 -538 138.667 -616 416z" />
    <glyph glyph-name="T" unicode="T" horiz-adv-x="963" 
d="M680 1038v-1038h-397v1038h-283v327h963v-327h-283z" />
    <glyph glyph-name="U" unicode="U" horiz-adv-x="1331" 
d="M1226 1365v-903.999c0 -171.333 -50.833 -294.5 -152.5 -369.5s-234.167 -112.5 -397.5 -112.5c-172 0 -310.167 36 -414.5 108s-156.5 189.333 -156.5 352v926h426v-877c0 -65.333 13.833 -113 41.5 -143s71.834 -45 132.501 -45c50.667 0 92.167 10.833 124.5 32.5
s51.666 46.167 57.999 73.5s9.5 80.666 9.5 159.999v799h329z" />
    <glyph glyph-name="V" unicode="V" horiz-adv-x="1307" 
d="M1300 1365l-424 -1365h-427l-442 1365h442l215 -744c14.667 -44 27.667 -87.333 39 -130l252 874h345z" />
    <glyph glyph-name="W" unicode="W" horiz-adv-x="1843" 
d="M1829 1365l-362 -1365h-352l-191 753l-180 -753h-367l-363 1365h394l191 -787l186 787h330l202 -787l191 787h321z" />
    <glyph glyph-name="X" unicode="X" horiz-adv-x="1322" 
d="M1287 1365l-396 -634l459 -731h-487l-252 429l-254 -429h-384l440 707l-422 658h488l212 -367l220 367h376z" />
    <glyph glyph-name="Y" unicode="Y" horiz-adv-x="1211" 
d="M1252 1365l-427 -787v-578h-407v578l-459 787h459l239 -449l229 449h366z" />
    <glyph glyph-name="Z" unicode="Z" horiz-adv-x="1204" 
d="M1170 322v-322h-1136v261l605 788h-559v316h1071v-265l-587 -778h606z" />
    <glyph glyph-name="bracketleft" unicode="[" horiz-adv-x="601" 
d="M547 -156v-165h-471v1686h471v-165h-173v-1356h173z" />
    <glyph glyph-name="backslash" unicode="\" horiz-adv-x="1047" 
d="M48 1365h204l920 -1686h-201z" />
    <glyph glyph-name="bracketright" unicode="]" horiz-adv-x="601" 
d="M54 1200v165h471v-1686h-471v165h173v1356h-173z" />
    <glyph glyph-name="asciicircum" unicode="^" horiz-adv-x="1024" 
d="M296 685h-287l323 689h360l323 -689h-287l-216 470z" />
    <glyph glyph-name="underscore" unicode="_" horiz-adv-x="1024" 
d="M0 -94h1024v-239h-1024v239z" />
    <glyph glyph-name="grave" unicode="`" horiz-adv-x="1024" 
d="M736 1298l-52 -137l-478 166l73 195z" />
    <glyph glyph-name="a" unicode="a" 
d="M1130 0l-380.002 0.00390625c-9.33301 43.333 -14 90.666 -14 141.999c-72 -108.667 -181 -163 -327 -163c-120 0 -209.833 30.667 -269.5 92s-89.5 131.666 -89.5 210.999c0 107.333 48.833 194.166 146.5 260.499s270.834 106.166 519.501 119.499v23
c0 44.667 -10.167 74.334 -30.5 89.001s-50.166 22 -89.499 22c-92 0 -143.333 -37 -154 -111l-364 34c52 212.667 229 319 531 319c82 0 157.333 -8.16699 226 -24.5s123 -41.833 163 -76.5s66.833 -71.334 80.5 -110.001s20.5 -113 20.5 -223v-406
c0 -77.333 10.333 -143.333 31 -198zM715.998 476.004c-170 -18 -255 -72.333 -255 -163c0 -61.333 33.667 -92 101 -92c42.667 0 79 12.667 109 38s45 81.333 45 168v49z" />
    <glyph glyph-name="b" unicode="b" horiz-adv-x="1203" 
d="M332 0h-225.003v1365h393v-469c54.667 94.667 141.667 142 261 142c84 0 155.333 -22 214 -66s102.334 -106.833 131.001 -188.5s43 -167.5 43 -257.5c0 -164 -36.667 -296.167 -110 -396.5s-182.666 -150.5 -327.999 -150.5c-143.333 0 -252.333 53.667 -327 161
c-21.333 -40 -38.666 -86.667 -51.999 -140zM499.997 379c0 -100 38.665 -149.999 115.998 -149.999c42 0 74.167 18.167 96.5 54.5s33.5 111.166 33.5 224.499c0 123.333 -12.667 200.833 -38 232.5s-56.666 47.5 -93.999 47.5c-29.333 0 -55.666 -11.333 -78.999 -34
s-35 -55.667 -35 -99v-276z" />
    <glyph glyph-name="c" unicode="c" horiz-adv-x="1071" 
d="M718 410l340.003 -29c-16 -118.667 -65.833 -215.334 -149.5 -290.001s-194.834 -112 -333.501 -112c-155.333 0 -281.5 48.833 -378.5 146.5s-145.5 222.834 -145.5 375.501c0 156 48.167 284.5 144.5 385.5s221.5 151.5 375.5 151.5c136.667 0 248 -38.167 334 -114.5
s135.333 -172.833 148 -289.5l-349 -29c-14.667 107.333 -55.334 161 -122.001 161c-42.667 0 -73.834 -19.5 -93.501 -58.5s-29.5 -106.833 -29.5 -203.5c0 -83.333 9.83301 -145 29.5 -185s53.834 -60 102.501 -60c71.333 0 113.666 50.333 126.999 151z" />
    <glyph glyph-name="d" unicode="d" horiz-adv-x="1203" 
d="M1098 0l-374.001 -0.000976562v135c-55.333 -104 -146.666 -156 -273.999 -156c-117.333 0 -212.5 45.833 -285.5 137.5s-109.5 224.834 -109.5 399.501c0 163.333 36.667 293 110 389s170.333 144 291 144c100.667 0 183.667 -38.333 249 -115v431h393v-1365z
M704.999 653.999c0 91.333 -37.667 137 -113 137c-52.667 0 -87.167 -29 -103.5 -87s-24.5 -129 -24.5 -213c0 -164.667 42 -247 126 -247c32 0 59.167 13 81.5 39s33.5 65.667 33.5 119v252z" />
    <glyph glyph-name="e" unicode="e" 
d="M777 365l372.001 -25c-22 -100 -78.167 -185.167 -168.5 -255.5s-212.5 -105.5 -366.5 -105.5c-171.333 0 -308 49.5 -410 148.5s-153 221.833 -153 368.5c0 152 50.333 280.333 151 385s235 157 403 157c162.667 0 294.167 -49.333 394.5 -148s150.5 -233 150.5 -403
c0 -14 -0.333008 -33.333 -1 -58h-681c1.33301 -64 12.666 -111.5 33.999 -142.5s62 -46.5 122 -46.5c86.667 0 137.667 41.667 153 125zM751.001 629c-0.666992 68.667 -14.5 114.833 -41.5 138.5s-60.5 35.5 -100.5 35.5c-94.667 0 -142 -58 -142 -174h284z" />
    <glyph glyph-name="f" unicode="f" horiz-adv-x="803" 
d="M535 758l0.00195312 -758h-376v758h-152v259h152c0 84 3.66699 146.167 11 186.5s25.666 79 54.999 116s68.666 65.333 117.999 85s115.666 29.5 198.999 29.5c89.333 0 175 -7 257 -21v-261c-63.333 8.66699 -110.666 13 -141.999 13s-60 -6.33301 -86 -19
s-39 -43.667 -39 -93v-36h260v-259h-257z" />
    <glyph glyph-name="g" unicode="g" horiz-adv-x="1166" 
d="M1165 1248l-10.002 -273.001l-19 1c-36 2 -61.667 3 -77 3c-62 0 -99.333 -12.333 -112 -37c76 -62.667 114 -138.334 114 -227.001c0 -104 -41.167 -182.167 -123.5 -234.5s-194.166 -78.5 -335.499 -78.5c-3.33301 0 -20.666 0.666992 -51.999 2
c-29.333 1.33301 -44.666 2 -45.999 2c-64.667 0 -97 -16.667 -97 -50c0 -29.333 28.667 -45 86 -47l327 -14c119.333 -5.33301 206.833 -38.666 262.5 -99.999s83.5 -133 83.5 -215c0 -97.333 -41.5 -176.833 -124.5 -238.5s-244.5 -92.5 -484.5 -92.5
c-370 0 -555 85 -555 255c0 92.667 49 157.334 147 194.001c-63.333 44.667 -95 97.667 -95 159c0 100 65 175.333 195 226c-108.667 47.333 -163 126 -163 236c0 100.667 44 179 132 235s208.667 84 362 84c70 0 133.667 -7 191 -21
c23.333 159.333 107.666 239 252.999 239c33.333 0 80.333 -2.66699 141 -8zM580.998 590.999c77.333 0 116 41 116 123c0 84 -39.667 126 -119 126c-78.667 0 -118 -42.667 -118 -128c0 -80.667 40.333 -121 121 -121zM478.998 12.999
c-14.667 0.666992 -29.333 0.999023 -44 0.999023c-68.667 0 -103 -21.333 -103 -64c0 -39.333 26.167 -64.666 78.5 -75.999s122.166 -17 209.499 -17c82.667 0 135.834 7 159.501 21s35.5 33.333 35.5 58c0 17.333 -5.33301 31.833 -16 43.5s-36 18.5 -76 20.5z" />
    <glyph glyph-name="h" unicode="h" horiz-adv-x="1210" 
d="M1104 0l-398.003 -0.00195312v612c0 56 -6.16699 94.5 -18.5 115.5s-36.166 31.5 -71.499 31.5c-27.333 0 -51.166 -8.16699 -71.499 -24.5s-32.166 -33.166 -35.499 -50.499s-5 -53.666 -5 -108.999v-575h-399v1365h399v-468c72 94 166 141 282 141
c58.667 0 110.167 -10.167 154.5 -30.5s78.5 -46.5 102.5 -78.5s40.167 -63 48.5 -93s12.5 -88 12.5 -174v-662z" />
    <glyph glyph-name="i" unicode="i" horiz-adv-x="609" 
d="M504 1408v-316h-399v316h399zM504 1017v-1017h-399v1017h399z" />
    <glyph glyph-name="j" unicode="j" horiz-adv-x="609" 
d="M504 1406v-314h-398v314h398zM504 1017l0.000976562 -957c0 -96.667 -8.5 -171.667 -25.5 -225s-54.833 -98.333 -113.5 -135s-141.667 -55 -249 -55c-70 0 -137.667 6.33301 -203 19v291c29.333 -12.667 58.666 -19 87.999 -19c70 0 105 41.333 105 124v957h398z" />
    <glyph glyph-name="k" unicode="k" horiz-adv-x="1175" 
d="M1156 1017l-307 -350.001l342 -667h-412l-191 407l-109 -127v-280h-374v1365h374v-551c0 -15.333 -1 -76.666 -3 -183.999c24 34 48.333 65 73 93l255 294h352z" />
    <glyph glyph-name="l" unicode="l" horiz-adv-x="603" 
d="M498 1365v-1365h-393v1365h393z" />
    <glyph glyph-name="m" unicode="m" horiz-adv-x="1752" 
d="M1646 0h-387v636c0 42.667 -6.16699 72.5 -18.5 89.5s-34.166 25.5 -65.499 25.5c-74.667 0 -112 -54.333 -112 -163v-588h-383v636c0 81.333 -31.333 122 -94 122c-64.667 0 -97 -40.667 -97 -122v-636h-384v1017h358v-137c64 105.333 157 158 279 158
c131.333 0 226.666 -52.667 285.999 -158c66 105.333 167.333 158 304 158c65.333 0 122.833 -13.667 172.5 -41s85.667 -62.5 108 -105.5s33.5 -109.5 33.5 -199.5v-692z" />
    <glyph glyph-name="n" unicode="n" horiz-adv-x="1203" 
d="M1098 0l-399.001 -0.000976562v640c0 52.667 -8.16699 86.334 -24.5 101.001s-36.833 22 -61.5 22c-72.667 0 -109 -50.667 -109 -152v-611h-399v1017h370v-144c54.667 110 152.334 165 293.001 165c74 0 136.5 -14.167 187.5 -42.5s87.5 -65 109.5 -110
s33 -123.167 33 -234.5v-651z" />
    <glyph glyph-name="o" unicode="o" horiz-adv-x="1217" 
d="M602 -21c-168.667 0 -302.667 52.5 -402 157.5s-149 228.167 -149 369.5c0 152 51.833 278.667 155.5 380s238.5 152 404.5 152c167.333 0 301.833 -50 403.5 -150s152.5 -225.333 152.5 -376c0 -152 -51.5 -278.833 -154.5 -380.5s-239.833 -152.5 -410.5 -152.5z
M608 221c62 0 99.833 32.167 113.5 96.5s20.5 131.5 20.5 201.5c0 95.333 -9.66699 164 -29 206s-54 63 -104 63c-46 0 -79.667 -21.667 -101 -65s-32 -114.666 -32 -213.999c0 -116.667 11 -193.834 33 -231.501s55 -56.5 99 -56.5z" />
    <glyph glyph-name="p" unicode="p" 
d="M504 -321h-399.002v1338h367v-144c51.333 110 147 165 287 165c121.333 0 216.333 -47.167 285 -141.5s103 -222.833 103 -385.5s-35.167 -292 -105.5 -388s-163.166 -144 -278.499 -144c-113.333 0 -199.666 43.333 -258.999 130v-430zM503.998 372
c0 -45.333 10.332 -80.5 30.999 -105.5s46.334 -37.5 77.001 -37.5c48 0 81 22.167 99 66.5s27 112.5 27 204.5c0 106 -10.333 180.5 -31 223.5s-51.667 64.5 -93 64.5c-24.667 0 -49.167 -9.66699 -73.5 -29s-36.5 -51 -36.5 -95v-292z" />
    <glyph glyph-name="q" unicode="q" horiz-adv-x="1206" 
d="M1101 -321h-393.001v430c-43.333 -86.667 -123.333 -130 -240 -130c-131.333 0 -233 49 -305 147s-108 224.333 -108 379c0 147.333 37.667 273 113 377s188 156 338 156c146.667 0 249.334 -53 308.001 -159c27.333 46.667 49.333 92.667 66 138h231
c-6.66699 -30.667 -10 -76.667 -10 -138v-1200zM707.999 644c0 51.333 -11.3311 90.8311 -33.998 118.498s-49 41.5 -79 41.5c-42.667 0 -75.334 -21 -98.001 -63s-34 -120.333 -34 -235c0 -115.333 11.167 -191.666 33.5 -228.999s52.166 -56 89.499 -56
c29.333 0 57 11.333 83 34s39 61.334 39 116.001v273z" />
    <glyph glyph-name="r" unicode="r" horiz-adv-x="781" 
d="M487 0h-382v1017h332v-210c38 152.667 126.333 229 265 229c14 0 33.333 -1.33301 58 -4v-355c-28 6.66699 -53 10 -75 10c-132 0 -198 -73.667 -198 -221v-466z" />
    <glyph glyph-name="s" unicode="s" horiz-adv-x="1085" 
d="M15 288l314.998 42.9971c18 -73.333 89.333 -110 214 -110c103.333 0 155 20 155 60c0 17.333 -10 30.833 -30 40.5s-67.333 19.5 -142 29.5c-206.667 28.667 -335.667 73.5 -387 134.5s-77 128.833 -77 203.5c0 104 43.333 188.167 130 252.5s200.334 96.5 341.001 96.5
c246.667 0 404 -89 472 -267l-302 -57c-28 60 -87 90 -177 90c-42.667 0 -74.5 -5.83301 -95.5 -17.5s-31.5 -23.167 -31.5 -34.5c0 -33.333 32 -53.666 96 -60.999c166.667 -18.667 279.667 -37.667 339 -57s110 -54.666 152 -105.999s63 -113.333 63 -186
c0 -111.333 -46.5 -199.666 -139.5 -264.999s-221.167 -98 -384.5 -98c-275.333 0 -445.666 103 -510.999 309z" />
    <glyph glyph-name="t" unicode="t" horiz-adv-x="761" 
d="M733 1017l0.000976562 -259h-203v-375c0 -51.333 9.66699 -81.833 29 -91.5s39.333 -14.5 60 -14.5c32 0 70 5.66699 114 17v-284c-78.667 -15.333 -156 -23 -232 -23c-122.667 0 -212.834 26.333 -270.501 79s-86.5 136.667 -86.5 252l1 119v321h-152v259h152l6 331
l379 6v-337h203z" />
    <glyph glyph-name="u" unicode="u" horiz-adv-x="1199" 
d="M1094 1017v-1017h-369v167c-54 -125.333 -159.333 -188 -316 -188c-96.667 0 -171.5 26.833 -224.5 80.5s-79.5 130.5 -79.5 230.5v727h399v-640c0 -40 5.5 -68.167 16.5 -84.5s32.5 -24.5 64.5 -24.5c34 0 61.667 12.167 83 36.5s32 58.5 32 102.5v610h394z" />
    <glyph glyph-name="v" unicode="v" horiz-adv-x="1037" 
d="M1044 1017l-372.999 -1017h-298l-380 1017h410l145 -432c12 -35.333 22.667 -70.333 32 -105c3.33301 12 8.33301 27.333 15 46c1.33301 2.66699 5.66602 15.334 12.999 38.001l150 453h286z" />
    <glyph glyph-name="w" unicode="w" horiz-adv-x="1521" 
d="M1507 1017l-322 -1017h-287l-133 551l-139 -551h-284l-328 1017h392l134 -498l128 498h294l127 -498l141 498h277z" />
    <glyph glyph-name="x" unicode="x" horiz-adv-x="1133" 
d="M1146 0l-450.001 0.000976562l-187 324l-199 -324h-324l357 539l-313 478h444l105 -190c4.66699 -8.66699 10.334 -18.667 17.001 -30c3.33301 -5.33301 8 -14 14 -26c7.33301 11.333 16.333 26.666 27 45.999c1.33301 3.33301 5 10.333 11 21l104 179h329l-298 -462z
" />
    <glyph glyph-name="y" unicode="y" horiz-adv-x="1049" 
d="M1055 1017l-399 -1102c-30.667 -83.333 -74.667 -148.5 -132 -195.5s-145.666 -70.5 -264.999 -70.5c-28.667 0 -95.334 3 -200.001 9v283c52 -8 100 -12 144 -12c114.667 0 172 25.333 172 76c0 16.667 -5.66699 39.667 -17 69l-365 943h427l168 -542l176 542h291z" />
    <glyph glyph-name="z" unicode="z" horiz-adv-x="965" 
d="M931 253l-0.000976562 -253h-897v221l429 551c-51.333 -2 -86 -3 -104 -3h-290v248h846v-214l-438 -552l53 1c10.667 0.666992 20.334 1 29.001 1h372z" />
    <glyph glyph-name="braceleft" unicode="{" horiz-adv-x="601" 
d="M276 522c43.333 -26.667 74.5029 -57 93.5029 -91s28.5 -85.333 28.5 -154v-297c0 -58.667 8.5 -95.5 25.5 -110.5s66.167 -22.5 147.5 -22.5h31v-164l-68 -1c-60 -2 -98.667 -3 -116 -3c-113.333 0 -193.833 21.833 -241.5 65.5s-71.5 114.834 -71.5 213.501v335
c0 65.333 -11.833 108.5 -35.5 129.5s-49.167 33.5 -76.5 37.5v144c74.667 11.333 112 60.666 112 147.999v334c0 99.333 23.667 170.833 71 214.5s126.666 65.5 237.999 65.5c19.333 0 82 -1.66699 188 -5v-159l-43 1c-58.667 0 -97.334 -4 -116.001 -12
s-30.834 -19.167 -36.501 -33.5s-8.5 -43.833 -8.5 -88.5v-302c0 -40.667 -6.16699 -83 -18.5 -127s-46.833 -83.333 -103.5 -118z" />
    <glyph glyph-name="bar" unicode="|" horiz-adv-x="1024" 
d="M371 1365h283v-1706h-283v1706z" />
    <glyph glyph-name="braceright" unicode="}" horiz-adv-x="601" 
d="M325 522c-43.333 27.333 -74.501 57.832 -93.501 91.499s-28.5 84.834 -28.5 153.501v297c0 56.667 -7.83301 93.167 -23.5 109.5s-61.834 24.5 -138.501 24.5c-9.33301 0 -23.333 -0.333008 -42 -1v164c4.66699 0 27.667 0.666992 69 2c60 2 99.667 3 119 3
c112.667 0 192.334 -22 239.001 -66s70 -115.333 70 -214v-334c0 -64.667 11.333 -107.667 34 -129s48.667 -34 78 -38v-145c-74.667 -10.667 -112 -59.667 -112 -147v-335c0 -96 -22.5 -166.5 -67.5 -211.5s-126.833 -67.5 -245.5 -67.5c-16 0 -77.333 1.33301 -184 4v160
l42 -1c76.667 0 122.834 8.33301 138.501 25s23.5 53 23.5 109v301c0 40.667 6.16699 83 18.5 127s46.833 83.333 103.5 118z" />
    <glyph glyph-name="asciitilde" unicode="~" 
d="M254 474l-151.999 103.999c43.333 110.667 89.166 186.334 137.499 227.001s105.833 61 172.5 61c46.667 0 118.667 -18 216 -54c85.333 -31.333 143 -47 173 -47c58 0 105.333 35 142 105l156 -96c-78 -185.333 -186.667 -278 -326 -278c-35.333 0 -103.333 18 -204 54
c-88.667 31.333 -145.667 47 -171 47c-58.667 0 -106.667 -41 -144 -123z" />
    <glyph glyph-name="nonbreakingspace" unicode="&#xa0;" horiz-adv-x="512" 
 />
    <glyph glyph-name="exclamdown" unicode="&#xa1;" horiz-adv-x="646" 
d="M130 680v365h386v-365h-386zM83 -321l113 905h253l108 -905h-474z" />
    <glyph glyph-name="cent" unicode="&#xa2;" 
d="M709 234l-0.000976562 -257.001h-191v257c-134 29.333 -233.5 87.5 -298.5 174.5s-97.5 189.167 -97.5 306.5c0 132 34.5 242.833 103.5 332.5s166.5 147.167 292.5 172.5v204h191v-204c214 -35.333 337 -158 369 -368l-334 -26c-2 44 -14.167 80 -36.5 108
s-50.166 42 -83.499 42c-84.667 0 -127 -83 -127 -249c0 -157.333 42.667 -236 128 -236c72.667 0 116.667 45.667 132 137l321 -27c-38.667 -209.333 -161.667 -331.666 -369 -366.999z" />
    <glyph glyph-name="sterling" unicode="&#xa3;" 
d="M850 856l0.000976562 -241.999h-181c0 -72 -10.5 -132.5 -31.5 -181.5s-58.167 -95.167 -111.5 -138.5h169c53.333 0 94 13.667 122 41s47.667 69.666 59 126.999l321 -62c-28.667 -128.667 -84.834 -227.5 -168.501 -296.5s-184.167 -103.5 -301.5 -103.5h-689v294h60
c68 0 116.667 18 146 54s44 77 44 123c0 39.333 -6 87 -18 143h-172v242h130c-9.33301 56.667 -14 103.334 -14 140.001c0 132 49.833 235.5 149.5 310.5s216.834 112.5 351.501 112.5c99.333 0 189.166 -23.333 269.499 -70s136.166 -119.334 167.499 -218.001l-302 -107
c-27.333 74.667 -68 112 -122 112c-33.333 0 -60.166 -10.667 -80.499 -32s-30.5 -50.333 -30.5 -87c0 -39.333 7 -93 21 -161h212z" />
    <glyph glyph-name="currency" unicode="&#xa4;" horiz-adv-x="1365" 
d="M41 282l212 211.001c-60 87.333 -90 180.666 -90 279.999c0 102.667 30 196.667 90 282l-212 212l144 145l212 -211c88 58.667 183.333 88 286 88s196.667 -29.333 282 -88l211 211l144 -145l-209 -209c62 -94 93 -189 93 -285c0 -100 -29.667 -193.333 -89 -280
l211 -211l-143 -144l-210 209c-92 -60.667 -188.333 -91 -289 -91c-100 0 -195.667 30.333 -287 91l-212 -209zM962 773.001c0 76.667 -27.1689 142.333 -81.502 197s-119.833 82 -196.5 82c-77.333 0 -143.166 -27.5 -197.499 -82.5s-81.5 -120.5 -81.5 -196.5
c0 -76.667 27.333 -142.5 82 -197.5s120 -82.5 196 -82.5c76.667 0 142.334 27.333 197.001 82s82 120.667 82 198z" />
    <glyph glyph-name="yen" unicode="&#xa5;" horiz-adv-x="1199" 
d="M957 915h162v-205h-262l-47 -96h309v-204h-327v-410h-353v410h-332v204h312l-50 96h-262v205h153l-239 450h391l238 -490l230 490h298z" />
    <glyph glyph-name="brokenbar" unicode="&#xa6;" horiz-adv-x="1024" 
d="M371 1365h283v-713h-283v713zM371 314h283v-655h-283v655z" />
    <glyph glyph-name="section" unicode="&#xa7;" 
d="M117 -40l295.003 48.999c46.667 -86.667 120.667 -130 222 -130c49.333 0 88.166 9.33301 116.499 28s42.5 41.667 42.5 69c0 30 -14.5 55.667 -43.5 77s-89.5 49.333 -181.5 84c-116 43.333 -201.667 80.833 -257 112.5s-97.5 71 -126.5 118s-43.5 104.5 -43.5 172.5
c0 94.667 40 189.667 120 285c-66 54 -99 128 -99 222c0 106.667 43.5 189.834 130.5 249.501s198.5 89.5 334.5 89.5c212.667 0 357.334 -81.667 434.001 -245l-247 -71c-34.667 75.333 -99.334 113 -194.001 113c-38.667 0 -70.5 -7 -95.5 -21s-37.5 -31.333 -37.5 -52
c0 -26.667 11.833 -48.5 35.5 -65.5s92.167 -48.167 205.5 -93.5c96.667 -38.667 164.667 -70 204 -94s73.166 -61 101.499 -111s42.5 -104.333 42.5 -163c0 -93.333 -37.667 -180.666 -113 -261.999c96 -66 144 -157.667 144 -275
c0 -114.667 -45.167 -207.834 -135.5 -279.501s-210.5 -107.5 -360.5 -107.5c-242.667 0 -407.334 100.333 -494.001 301zM731.003 426.999c40.667 30 61 60.334 61 91.001c0 34.667 -18.833 63 -56.5 85s-119.5 57.333 -245.5 106c-36.667 -30 -55 -63.333 -55 -100
c0 -21.333 10.167 -41.833 30.5 -61.5s108.833 -59.834 265.5 -120.501z" />
    <glyph glyph-name="dieresis" unicode="&#xa8;" horiz-adv-x="1024" 
d="M332 1188c-36.667 0 -67.999 12.8311 -93.999 38.498s-39 56.834 -39 93.501c0 35.333 12.833 66 38.5 92s57.167 39 94.5 39s68.666 -13.167 93.999 -39.5s38 -57.166 38 -92.499c0 -36 -13 -66.833 -39 -92.5s-57 -38.5 -93 -38.5zM693.001 1188
c-36.667 0 -68.168 13.001 -94.501 39.001s-39.5 57 -39.5 93s13 66.833 39 92.5s57.333 38.5 94 38.5s67.834 -12.833 93.501 -38.5s38.5 -56.5 38.5 -92.5c0 -36.667 -13 -67.834 -39 -93.501s-56.667 -38.5 -92 -38.5z" />
    <glyph glyph-name="copyright" unicode="&#xa9;" horiz-adv-x="1584" 
d="M792 -21c-194 0 -359.667 68.833 -497 206.5s-206 303.5 -206 497.5c0 192 68.667 357.167 206 495.5s303 207.5 497 207.5s359.667 -69 497 -207s206 -303.333 206 -496c0 -193.333 -68.833 -359 -206.5 -497s-303.167 -207 -496.5 -207zM792 137
c148 0 275.003 53.501 381.003 160.501s159 235.5 159 385.5c0 149.333 -52.833 277.5 -158.5 384.5s-232.834 160.5 -381.501 160.5s-275.834 -53.5 -381.501 -160.5s-158.5 -235.167 -158.5 -384.5c0 -150.667 52.667 -279.334 158 -386.001s232.666 -160 381.999 -160z
M908.003 595.001l258.998 -15c-11.333 -104 -51.166 -183.167 -119.499 -237.5s-151.166 -81.5 -248.499 -81.5c-119.333 0 -215 37 -287 111s-108 175.333 -108 304c0 128 34.5 231.333 103.5 310s165.167 118 288.5 118c221.333 0 345 -112 371 -336l-265 -13
c-1.33301 102 -34.333 153 -99 153c-74 0 -111 -76 -111 -228c0 -146 37 -219 111 -219c63.333 0 98.333 44.667 105 134z" />
    <glyph glyph-name="ordfeminine" unicode="&#xaa;" horiz-adv-x="786" 
d="M735 767h-258.999c-4.66699 21.333 -7.66699 42 -9 62c-40 -49.333 -105.333 -74 -196 -74c-68.667 0 -124.167 17.5 -166.5 52.5s-63.5 78.833 -63.5 131.5c0 136.667 137.667 211.667 413 225c0 33.333 -4.33301 54.833 -13 64.5s-25.667 14.5 -51 14.5
c-52 0 -82.333 -20 -91 -60c-0.666992 -1.33301 -1.33398 -3.33301 -2.00098 -6l-240 22c32 129.333 145.667 194 341 194c88 0 156.333 -12.167 205 -36.5s79.167 -50.833 91.5 -79.5s18.5 -77.667 18.5 -147v-239c0 -46.667 7.33301 -88 22 -124zM461.001 1053
c-100 -12 -150 -43.667 -150 -95c0 -36 19.333 -54 58 -54c37.333 0 62 10.5 74 31.5s18 60.167 18 117.5z" />
    <glyph glyph-name="guillemotleft" unicode="&#xab;" horiz-adv-x="771" 
d="M696 784l-105 -293l105 -271h-141l-174 271l174 293h141zM381 784l-107 -293l107 -271h-140l-179 271l179 293h140z" />
    <glyph glyph-name="logicalnot" unicode="&#xac;" 
d="M763 0v301h-606v253h887v-554h-281z" />
    <glyph glyph-name="sfthyphen" unicode="&#xad;" horiz-adv-x="563" 
d="M535 673v-314h-507v314h507z" />
    <glyph glyph-name="registered" unicode="&#xae;" horiz-adv-x="1584" 
d="M792 -21c-194 0 -359.667 68.833 -497 206.5s-206 303.5 -206 497.5c0 192 68.667 357.167 206 495.5s303 207.5 497 207.5s359.667 -69 497 -207s206 -303.333 206 -496c0 -193.333 -68.833 -359 -206.5 -497s-303.167 -207 -496.5 -207zM792 137
c148 0 275.003 53.501 381.003 160.501s159 235.5 159 385.5c0 149.333 -52.833 277.5 -158.5 384.5s-232.834 160.5 -381.501 160.5s-275.834 -53.5 -381.501 -160.5s-158.5 -235.167 -158.5 -384.5c0 -150.667 52.667 -279.334 158 -386.001s232.666 -160 381.999 -160z
M1140 300.001h-274l-111 292h-63v-292h-248v765h403c86 0 155.5 -20 208.5 -60s79.5 -97.333 79.5 -172c0 -92.667 -44.667 -159.667 -134 -201zM692.003 755.001h90c63.333 0 95 24 95 72c0 47.333 -29 71 -87 71h-98v-143z" />
    <glyph glyph-name="overscore" unicode="&#xaf;" horiz-adv-x="1024" 
d="M0 1830h1024v-239h-1024v239z" />
    <glyph glyph-name="degree" unicode="&#xb0;" 
d="M297 1087c0 82 29.667 152.333 89 211s131 88 215 88c83.333 0 154.833 -29.167 214.5 -87.5s89.5 -129.166 89.5 -212.499c0 -82.667 -29.833 -153.334 -89.5 -212.001s-131.167 -88 -214.5 -88c-84 0 -155.667 29.5 -215 88.5s-89 129.833 -89 212.5zM464 1087
c0 -38.667 13.499 -71.501 40.499 -98.501s58.833 -40.5 95.5 -40.5c38 0 70.5 13.333 97.5 40s40.5 59.334 40.5 98.001s-13.667 71.667 -41 99s-59.666 41 -96.999 41c-38 0 -70.167 -13.667 -96.5 -41s-39.5 -60 -39.5 -98z" />
    <glyph glyph-name="plusminus" unicode="&#xb1;" 
d="M1098 837v-254h-370v-363h-255v363h-370v254h370v363h255v-363h370zM1098 134v-254h-995v254h995z" />
    <glyph glyph-name="twosuperior" unicode="&#xb2;" horiz-adv-x="792" 
d="M736 755l-10 -209h-687v194l154 98c178 113.333 267 202.666 267 267.999c0 52.667 -27 79 -81 79c-64 0 -99 -47 -105 -141l-235 42c16.667 98.667 58.167 172 124.5 220s144.5 72 234.5 72c98 0 177.833 -24.167 239.5 -72.5s92.5 -112.166 92.5 -191.499
c0 -54.667 -16.5 -105.167 -49.5 -151.5s-125.167 -115.5 -276.5 -207.5h332z" />
    <glyph glyph-name="threesuperior" unicode="&#xb3;" horiz-adv-x="792" 
d="M15 803l243.001 28c11.333 -74 53.333 -111 126 -111c70 0 105 27.667 105 83c0 52.667 -37.667 79 -113 79h-113v167h96c72.667 0 109 23.667 109 71c0 48 -29.667 72 -89 72c-58.667 0 -94 -31 -106 -93l-226 32c18.667 79.333 60.5 140.333 125.5 183
s141.5 64 229.5 64c99.333 0 178.833 -21.333 238.5 -64s89.5 -99 89.5 -169c0 -82.667 -40 -139.667 -120 -171c97.333 -32 146 -95.333 146 -190c0 -80 -33 -141.667 -99 -185s-151.333 -65 -256 -65c-210.667 0 -339.334 89.667 -386.001 269z" />
    <glyph glyph-name="acute" unicode="&#xb4;" horiz-adv-x="1024" 
d="M288 1298l457 224l73 -195l-478 -166z" />
    <glyph glyph-name="mu1" unicode="&#xb5;" 
d="M99 -341v1351h399v-514c0 -114.667 7 -187.834 21 -219.501s40.667 -47.5 80 -47.5c41.333 0 69.166 15.5 83.499 46.5s21.5 104.5 21.5 220.5v514h399v-1010h-310l-13 150c-10 -56 -26.167 -98.5 -48.5 -127.5s-58.166 -43.5 -107.499 -43.5
c-64 0 -110.667 43.667 -140 131v-451h-385z" />
    <glyph glyph-name="paragraph" unicode="&#xb6;" 
d="M1206 1365l0.00292969 -158h-137v-1528h-151v1528h-141v-1528h-158v974h-86c-128 0 -214.833 2 -260.5 6s-90.334 19.667 -134.001 47s-78.5 68 -104.5 122s-39 116 -39 186c0 91.333 22.167 165.5 66.5 222.5s97.666 92.667 159.999 107s169.166 21.5 320.499 21.5h664z
M619.003 810l-0.000976562 397.002c-74 0 -124.167 -4.5 -150.5 -13.5s-48.166 -28.333 -65.499 -58s-26 -72.834 -26 -129.501c0 -54 9.5 -96.333 28.5 -127s42.5 -49.834 70.5 -57.501s75.667 -11.5 143 -11.5z" />
    <glyph glyph-name="middot" unicode="&#xb7;" horiz-adv-x="380" 
d="M380 698v-365h-380v365h380z" />
    <glyph glyph-name="cedilla" unicode="&#xb8;" horiz-adv-x="1024" 
d="M448 0h112l-36 -100c14 0.666992 25.333 1 34 1c45.333 0 81.833 -14.5 109.5 -43.5s41.5 -65.167 41.5 -108.5c0 -54 -20.167 -95.667 -60.5 -125s-92.5 -44 -156.5 -44c-78 0 -154 22 -228 66l38 82c55.333 -30 107.333 -45 156 -45c54 0 81 21.667 81 65
c0 52.667 -43 79 -129 79c-6.66699 0 -16 -0.333008 -28 -1z" />
    <glyph glyph-name="onesuperior" unicode="&#xb9;" horiz-adv-x="792" 
d="M569 737h182.001v-191h-639v191h192v371c-77.333 -32 -142.333 -51.333 -195 -58v193c129.333 26 215.666 71 258.999 135h201v-641z" />
    <glyph glyph-name="ordmasculine" unicode="&#xba;" horiz-adv-x="796" 
d="M394 755c-112 0 -198.834 32.502 -260.501 97.502s-92.5 138.167 -92.5 219.5c0 91.333 33.167 167.666 99.5 228.999s152.5 92 258.5 92c104.667 0 190 -29.667 256 -89s99 -137.333 99 -234c0 -86.667 -32.667 -160.834 -98 -222.501s-152.666 -92.5 -261.999 -92.5z
M396.999 911.002c28 0 47 13.501 57 40.501s15 67.167 15 120.5c0 63.333 -5.66699 105.833 -17 127.5s-29.333 32.5 -54 32.5c-48 0 -72 -53 -72 -159c0 -62.667 5.66699 -105.334 17 -128.001s29.333 -34 54 -34z" />
    <glyph glyph-name="guillemotright" unicode="&#xbb;" horiz-adv-x="771" 
d="M75 220l106 292l-106 272h142l173 -272l-173 -292h-142zM390 220l107 292l-107 272h141l178 -272l-178 -292h-141z" />
    <glyph glyph-name="onequarter" unicode="&#xbc;" horiz-adv-x="1802" 
d="M477 737h141.001v-191h-598v191h192v371c-77.333 -32 -142.333 -51.333 -195 -58v193c129.333 26 215.666 71 258.999 135h201v-641zM1384 1365l-829 -1365h-216l834 1365h211zM1786 177h-126v-177h-248v177h-370v184l337 470h281v-466h126v-188zM1434 344v297l-212 -297
h212z" />
    <glyph glyph-name="onehalf" unicode="&#xbd;" horiz-adv-x="1802" 
d="M490 737h154.001v-191h-611v191h192v371c-77.333 -32 -142.333 -51.333 -195 -58v193c129.333 26 215.666 71 258.999 135h201v-641zM1411 1365l-829 -1365h-217l835 1365h211zM1771 209l-10.001 -209h-687v194l154 98c80.667 52 145.334 100.5 194.001 145.5
s73 85.5 73 121.5c0 53.333 -27 80 -81 80c-64 0 -99 -47 -105 -141l-235 42c16.667 98.667 58 172 124 220s144.333 72 235 72c98.667 0 178.667 -24 240 -72s92 -112 92 -192c0 -54 -16.333 -104.333 -49 -151s-125 -116 -277 -208h332z" />
    <glyph glyph-name="threequarters" unicode="&#xbe;" horiz-adv-x="1802" 
d="M-5 803l243.001 28c11.333 -74 53.333 -111 126 -111c70 0 105 27.667 105 83c0 52.667 -37.667 79 -113 79h-113v167h96c72.667 0 109 23.667 109 71c0 48 -29.667 72 -89 72c-58.667 0 -94 -31 -106 -93l-226 32c18.667 79.333 60.5 140.333 125.5 183
s141.5 64 229.5 64c99.333 0 178.833 -21.333 238.5 -64s89.5 -99 89.5 -169c0 -82.667 -40 -139.667 -120 -171c97.333 -32 146 -95.333 146 -190c0 -80 -33 -141.667 -99 -185s-151.333 -65 -256 -65c-210.667 0 -339.334 89.667 -386.001 269zM1469 1365l-830 -1365h-216
l835 1365h211zM1802 177h-126v-177h-248v177h-370v184l337 470h281v-466h126v-188zM1450 344v297l-212 -297h212z" />
    <glyph glyph-name="questiondown" unicode="&#xbf;" horiz-adv-x="1119" 
d="M362 680v365h383v-365h-383zM732 168l367 -40c-56 -312.667 -237.667 -469 -545 -469c-154.667 0 -276.667 40.667 -366 122s-134 182.666 -134 303.999c0 80.667 16.833 146 50.5 196s93.167 106.333 178.5 169c50.667 36.667 81.667 62.834 93 78.501
s19.333 37.5 24 65.5h332c-0.666992 -83.333 -8 -142.333 -22 -177s-43.333 -72 -88 -112c-67.333 -60.667 -109.333 -105.834 -126 -135.501s-25 -64.167 -25 -103.5c0 -41.333 11.167 -73.166 33.5 -95.499s49.5 -33.5 81.5 -33.5c96 0 144.667 77 146 231z" />
    <glyph glyph-name="Agrave" unicode="&#xc0;" horiz-adv-x="1306" 
d="M872 0l-77 269h-366l-82 -269h-340l422 1365h443l427 -1365h-427zM500 567h222l-111 396zM877 1619l-52 -137l-478 166l73 195z" />
    <glyph glyph-name="Aacute" unicode="&#xc1;" horiz-adv-x="1306" 
d="M872 0l-77 269h-366l-82 -269h-340l422 1365h443l427 -1365h-427zM500 567h222l-111 396zM429 1619l457 224l73 -195l-478 -166z" />
    <glyph glyph-name="Acircumflex" unicode="&#xc2;" horiz-adv-x="1306" 
d="M872 0l-77 269h-366l-82 -269h-340l422 1365h443l427 -1365h-427zM500 567h222l-111 396zM1052 1516l-232 -21l-170 130l-169 -130l-232 21l401 318z" />
    <glyph glyph-name="Atilde" unicode="&#xc3;" horiz-adv-x="1306" 
d="M872 0l-77 269h-366l-82 -269h-340l422 1365h443l427 -1365h-427zM500 567h222l-111 396zM921 1754l99.9971 -117c-81.333 -85.333 -162.666 -128 -243.999 -128c-41.333 0 -93.666 16.333 -156.999 49c-42.667 22 -76 33 -100 33c-46.667 0 -92 -26 -136 -78l-98 117
c80.667 85.333 158.334 128 233.001 128c38.667 0 84 -13.333 136 -40c56 -28.667 95.333 -43 118 -43c42.667 0 92 26.333 148 79z" />
    <glyph glyph-name="Adieresis" unicode="&#xc4;" horiz-adv-x="1306" 
d="M872 0l-77 269h-366l-82 -269h-340l422 1365h443l427 -1365h-427zM500 567h222l-111 396zM473 1511c-36.667 0 -67.999 12.8311 -93.999 38.498s-39 56.834 -39 93.501c0 35.333 12.833 66 38.5 92s57.167 39 94.5 39s68.666 -13.167 93.999 -39.5s38 -57.166 38 -92.499
c0 -36 -13 -66.833 -39 -92.5s-57 -38.5 -93 -38.5zM834.001 1511c-36.667 0 -68.168 13.001 -94.501 39.001s-39.5 57 -39.5 93s13 66.833 39 92.5s57.333 38.5 94 38.5s67.834 -12.833 93.501 -38.5s38.5 -56.5 38.5 -92.5c0 -36.667 -13 -67.834 -39 -93.501
s-56.667 -38.5 -92 -38.5z" />
    <glyph glyph-name="Aring" unicode="&#xc5;" horiz-adv-x="1306" 
d="M872 0l-77 269h-366l-82 -269h-340l422 1365h443l427 -1365h-427zM500 567h222l-111 396zM656 1468c-55.333 0 -102.666 19.501 -141.999 58.501s-59 86.167 -59 141.5s19.667 102.666 59 141.999s86.666 59 141.999 59c56 0 103.667 -19.5 143 -58.5
s59 -86.167 59 -141.5c0 -56 -19.833 -103.5 -59.5 -142.5s-87.167 -58.5 -142.5 -58.5zM656 1594c20.667 0 38.5 7.33398 53.5 22.001s22.5 33 22.5 55c0 19.333 -7.5 36.333 -22.5 51s-32.833 22 -53.5 22s-38.334 -7.5 -53.001 -22.5s-22 -32.5 -22 -52.5
c0 -20.667 7.33301 -38.334 22 -53.001s32.334 -22 53.001 -22z" />
    <glyph glyph-name="AE" unicode="&#xc6;" horiz-adv-x="1865" 
d="M1818 326v-326h-1037v283h-326l-127 -283h-355l609 1365h1222v-315h-609v-198h493v-303h-493v-223h623zM566 568h215v482z" />
    <glyph glyph-name="Ccedilla" unicode="&#xc7;" horiz-adv-x="1287" 
d="M707 -20l-30.999 -85c14.667 1.33301 26.667 2 36 2c46.667 0 84.334 -15.167 113.001 -45.5s43 -68.166 43 -113.499c0 -56 -21 -99.333 -63 -130s-96 -46 -162 -46c-80.667 0 -160 23.333 -238 70l40 85c57.333 -31.333 111.666 -47 162.999 -47
c55.333 0 83 22.667 83 68c0 29.333 -14.167 50.333 -42.5 63s-58.833 19 -91.5 19c-6.66699 0 -16.334 -0.333008 -29.001 -1l63 166c-168 20.667 -298.833 92.167 -392.5 214.5s-140.5 279.5 -140.5 471.5c0 214 54 386.667 162 518s258.667 197 452 197
c180.667 0 319.5 -50 416.5 -150s151.833 -232.667 164.5 -398l-391 -21c0 91.333 -17.5 157.333 -52.5 198s-76.167 61 -123.5 61c-132 0 -198 -132.667 -198 -398c0 -148.667 17.167 -249.667 51.5 -303s82.5 -80 144.5 -80c110.667 0 172.667 75.333 186 226l383 -23
c-18 -162.667 -77 -288.334 -177 -377.001s-223 -135.667 -369 -141z" />
    <glyph glyph-name="Egrave" unicode="&#xc8;" horiz-adv-x="1193" 
d="M1146 326v-326h-1027v1365h1027v-315h-616v-198h498v-303h-498v-223h616zM832 1619l-52 -137l-478 166l73 195z" />
    <glyph glyph-name="Eacute" unicode="&#xc9;" horiz-adv-x="1193" 
d="M1146 326v-326h-1027v1365h1027v-315h-616v-198h498v-303h-498v-223h616zM449 1619l457 224l73 -195l-478 -166z" />
    <glyph glyph-name="Ecircumflex" unicode="&#xca;" horiz-adv-x="1193" 
d="M1146 326v-326h-1027v1365h1027v-315h-616v-198h498v-303h-498v-223h616zM1034 1516l-232 -21l-170 130l-169 -130l-232 21l401 318z" />
    <glyph glyph-name="Edieresis" unicode="&#xcb;" horiz-adv-x="1193" 
d="M1146 326v-326h-1027v1365h1027v-315h-616v-198h498v-303h-498v-223h616zM446 1511c-36.667 0 -67.999 12.8311 -93.999 38.498s-39 56.834 -39 93.501c0 35.333 12.833 66 38.5 92s57.167 39 94.5 39s68.666 -13.167 93.999 -39.5s38 -57.166 38 -92.499
c0 -36 -13 -66.833 -39 -92.5s-57 -38.5 -93 -38.5zM807.001 1511c-36.667 0 -68.168 13.001 -94.501 39.001s-39.5 57 -39.5 93s13 66.833 39 92.5s57.333 38.5 94 38.5s67.834 -12.833 93.501 -38.5s38.5 -56.5 38.5 -92.5c0 -36.667 -13 -67.834 -39 -93.501
s-56.667 -38.5 -92 -38.5z" />
    <glyph glyph-name="Igrave" unicode="&#xcc;" horiz-adv-x="657" 
d="M538 1365v-1365h-419v1365h419zM565 1619l-52 -137l-478 166l73 195z" />
    <glyph glyph-name="Iacute" unicode="&#xcd;" horiz-adv-x="657" 
d="M538 1365v-1365h-419v1365h419zM117 1619l457 224l73 -195l-478 -166z" />
    <glyph glyph-name="Icircumflex" unicode="&#xce;" horiz-adv-x="657" 
d="M538 1365v-1365h-419v1365h419zM785 1516l-232 -21l-170 130l-169 -130l-232 21l401 318z" />
    <glyph glyph-name="Idieresis" unicode="&#xcf;" horiz-adv-x="657" 
d="M538 1365v-1365h-419v1365h419zM166 1511c-36.667 0 -67.999 12.8311 -93.999 38.498s-39 56.834 -39 93.501c0 35.333 12.833 66 38.5 92s57.167 39 94.5 39s68.666 -13.167 93.999 -39.5s38 -57.166 38 -92.499c0 -36 -13 -66.833 -39 -92.5s-57 -38.5 -93 -38.5z
M527.001 1511c-36.667 0 -68.168 13.001 -94.501 39.001s-39.5 57 -39.5 93s13 66.833 39 92.5s57.333 38.5 94 38.5s67.834 -12.833 93.501 -38.5s38.5 -56.5 38.5 -92.5c0 -36.667 -13 -67.834 -39 -93.501s-56.667 -38.5 -92 -38.5z" />
    <glyph glyph-name="Eth" unicode="&#xd0;" horiz-adv-x="1391" 
d="M119 1365h528c229.333 0 401 -68 515 -204s171 -293.333 171 -472c0 -204 -61.167 -369.833 -183.5 -497.5s-280.833 -191.5 -475.5 -191.5h-555v601h-112v200h112v564zM538 801h195v-200h-195v-287h109c69.333 0 127.833 33.667 175.5 101s71.5 159 71.5 275
c0 93.333 -20.167 177.5 -60.5 252.5s-102.5 112.5 -186.5 112.5h-109v-254z" />
    <glyph glyph-name="Ntilde" unicode="&#xd1;" horiz-adv-x="1405" 
d="M1286 0l-341 -0.000976562l-374 603c-48 77.333 -96.333 171.333 -145 282c22 -88 33 -162.667 33 -224v-661h-340v1365h396l318 -500c63.333 -99.333 111.333 -186.666 144 -261.999c-21.333 116.667 -32 236 -32 358v404h341v-1365zM970 1754l99.9971 -117
c-81.333 -85.333 -162.666 -128 -243.999 -128c-41.333 0 -93.666 16.333 -156.999 49c-42.667 22 -76 33 -100 33c-46.667 0 -92 -26 -136 -78l-98 117c80.667 85.333 158.334 128 233.001 128c38.667 0 84 -13.333 136 -40c56 -28.667 95.333 -43 118 -43
c42.667 0 92 26.333 148 79z" />
    <glyph glyph-name="Ograve" unicode="&#xd2;" horiz-adv-x="1415" 
d="M709 -21c-192 0 -348.499 63.668 -469.499 191.001s-181.5 297.666 -181.5 510.999c0 204 57.833 372.5 173.5 505.5s276.167 199.5 481.5 199.5c190 0 344.833 -62.667 464.5 -188s179.5 -292.666 179.5 -501.999c0 -216.667 -60.333 -390.334 -181 -521.001
s-276.334 -196 -467.001 -196zM707.001 289.001c70.667 0 121.5 30.833 152.5 92.5s46.5 174.5 46.5 338.5c0 237.333 -63.667 356 -191 356c-137.333 0 -206 -135.333 -206 -406c0 -254 66 -381 198 -381zM916.001 1619l-52 -137l-478 166l73 195z" />
    <glyph glyph-name="Oacute" unicode="&#xd3;" horiz-adv-x="1415" 
d="M709 -21c-192 0 -348.499 63.668 -469.499 191.001s-181.5 297.666 -181.5 510.999c0 204 57.833 372.5 173.5 505.5s276.167 199.5 481.5 199.5c190 0 344.833 -62.667 464.5 -188s179.5 -292.666 179.5 -501.999c0 -216.667 -60.333 -390.334 -181 -521.001
s-276.334 -196 -467.001 -196zM707.001 289.001c70.667 0 121.5 30.833 152.5 92.5s46.5 174.5 46.5 338.5c0 237.333 -63.667 356 -191 356c-137.333 0 -206 -135.333 -206 -406c0 -254 66 -381 198 -381zM525.001 1619l457 224l73 -195l-478 -166z" />
    <glyph glyph-name="Ocircumflex" unicode="&#xd4;" horiz-adv-x="1415" 
d="M709 -21c-192 0 -348.499 63.668 -469.499 191.001s-181.5 297.666 -181.5 510.999c0 204 57.833 372.5 173.5 505.5s276.167 199.5 481.5 199.5c190 0 344.833 -62.667 464.5 -188s179.5 -292.666 179.5 -501.999c0 -216.667 -60.333 -390.334 -181 -521.001
s-276.334 -196 -467.001 -196zM707.001 289.001c70.667 0 121.5 30.833 152.5 92.5s46.5 174.5 46.5 338.5c0 237.333 -63.667 356 -191 356c-137.333 0 -206 -135.333 -206 -406c0 -254 66 -381 198 -381zM1109 1516l-232 -21l-170 130l-169 -130l-232 21l401 318z" />
    <glyph glyph-name="Otilde" unicode="&#xd5;" horiz-adv-x="1415" 
d="M709 -21c-192 0 -348.499 63.668 -469.499 191.001s-181.5 297.666 -181.5 510.999c0 204 57.833 372.5 173.5 505.5s276.167 199.5 481.5 199.5c190 0 344.833 -62.667 464.5 -188s179.5 -292.666 179.5 -501.999c0 -216.667 -60.333 -390.334 -181 -521.001
s-276.334 -196 -467.001 -196zM707.001 289.001c70.667 0 121.5 30.833 152.5 92.5s46.5 174.5 46.5 338.5c0 237.333 -63.667 356 -191 356c-137.333 0 -206 -135.333 -206 -406c0 -254 66 -381 198 -381zM989.001 1754l99.9971 -117
c-81.333 -85.333 -162.666 -128 -243.999 -128c-41.333 0 -93.666 16.333 -156.999 49c-42.667 22 -76 33 -100 33c-46.667 0 -92 -26 -136 -78l-98 117c80.667 85.333 158.334 128 233.001 128c38.667 0 84 -13.333 136 -40c56 -28.667 95.333 -43 118 -43
c42.667 0 92 26.333 148 79z" />
    <glyph glyph-name="Odieresis" unicode="&#xd6;" horiz-adv-x="1415" 
d="M709 -21c-192 0 -348.499 63.668 -469.499 191.001s-181.5 297.666 -181.5 510.999c0 204 57.833 372.5 173.5 505.5s276.167 199.5 481.5 199.5c190 0 344.833 -62.667 464.5 -188s179.5 -292.666 179.5 -501.999c0 -216.667 -60.333 -390.334 -181 -521.001
s-276.334 -196 -467.001 -196zM707.001 289.001c70.667 0 121.5 30.833 152.5 92.5s46.5 174.5 46.5 338.5c0 237.333 -63.667 356 -191 356c-137.333 0 -206 -135.333 -206 -406c0 -254 66 -381 198 -381zM521.001 1511c-36.667 0 -67.999 12.8311 -93.999 38.498
s-39 56.834 -39 93.501c0 35.333 12.833 66 38.5 92s57.167 39 94.5 39s68.666 -13.167 93.999 -39.5s38 -57.166 38 -92.499c0 -36 -13 -66.833 -39 -92.5s-57 -38.5 -93 -38.5zM882.002 1511c-36.667 0 -68.168 13.001 -94.501 39.001s-39.5 57 -39.5 93
s13 66.833 39 92.5s57.333 38.5 94 38.5s67.834 -12.833 93.501 -38.5s38.5 -56.5 38.5 -92.5c0 -36.667 -13 -67.834 -39 -93.501s-56.667 -38.5 -92 -38.5z" />
    <glyph glyph-name="multiply" unicode="&#xd7;" 
d="M882 1159l180 -180l-281 -280l281 -281l-180 -180l-281 281l-281 -281l-180 180l281 281l-281 280l180 180l281 -280z" />
    <glyph glyph-name="Oslash" unicode="&#xd8;" horiz-adv-x="1415" 
d="M270 140c-141.333 130.667 -212 310.333 -212 539c0 208 58.667 377.833 176 509.5s274 197.5 470 197.5c112.667 0 209.334 -18.667 290.001 -56l90 149h211l-151 -249c142 -129.333 213 -307.333 213 -534c0 -218 -60.833 -392 -182.5 -522
s-274.834 -195 -459.501 -195c-109.333 0 -207 20 -293 60l-92 -152h-214zM516 543.999l301 496c-28 24 -61.667 36 -101 36c-138 0 -207 -133.667 -207 -401c0 -39.333 2.33301 -83 7 -131zM902 829.999l-304 -502c28.667 -26 65 -39 109 -39
c70.667 0 121.5 30.833 152.5 92.5s46.5 174.5 46.5 338.5c0 33.333 -1.33301 70 -4 110z" />
    <glyph glyph-name="Ugrave" unicode="&#xd9;" horiz-adv-x="1331" 
d="M1226 1365v-903.999c0 -171.333 -50.833 -294.5 -152.5 -369.5s-234.167 -112.5 -397.5 -112.5c-172 0 -310.167 36 -414.5 108s-156.5 189.333 -156.5 352v926h426v-877c0 -65.333 13.833 -113 41.5 -143s71.834 -45 132.501 -45c50.667 0 92.167 10.833 124.5 32.5
s51.666 46.167 57.999 73.5s9.5 80.666 9.5 159.999v799h329zM893 1619l-52 -137l-478 166l73 195z" />
    <glyph glyph-name="Uacute" unicode="&#xda;" horiz-adv-x="1331" 
d="M1226 1365v-903.999c0 -171.333 -50.833 -294.5 -152.5 -369.5s-234.167 -112.5 -397.5 -112.5c-172 0 -310.167 36 -414.5 108s-156.5 189.333 -156.5 352v926h426v-877c0 -65.333 13.833 -113 41.5 -143s71.834 -45 132.501 -45c50.667 0 92.167 10.833 124.5 32.5
s51.666 46.167 57.999 73.5s9.5 80.666 9.5 159.999v799h329zM498 1619l457 224l73 -195l-478 -166z" />
    <glyph glyph-name="Ucircumflex" unicode="&#xdb;" horiz-adv-x="1331" 
d="M1226 1365v-903.999c0 -171.333 -50.833 -294.5 -152.5 -369.5s-234.167 -112.5 -397.5 -112.5c-172 0 -310.167 36 -414.5 108s-156.5 189.333 -156.5 352v926h426v-877c0 -65.333 13.833 -113 41.5 -143s71.834 -45 132.501 -45c50.667 0 92.167 10.833 124.5 32.5
s51.666 46.167 57.999 73.5s9.5 80.666 9.5 159.999v799h329zM1094 1516l-232 -21l-170 130l-169 -130l-232 21l401 318z" />
    <glyph glyph-name="Udieresis" unicode="&#xdc;" horiz-adv-x="1331" 
d="M1226 1365v-903.999c0 -171.333 -50.833 -294.5 -152.5 -369.5s-234.167 -112.5 -397.5 -112.5c-172 0 -310.167 36 -414.5 108s-156.5 189.333 -156.5 352v926h426v-877c0 -65.333 13.833 -113 41.5 -143s71.834 -45 132.501 -45c50.667 0 92.167 10.833 124.5 32.5
s51.666 46.167 57.999 73.5s9.5 80.666 9.5 159.999v799h329zM485 1511c-36.667 0 -67.999 12.8311 -93.999 38.498s-39 56.834 -39 93.501c0 35.333 12.833 66 38.5 92s57.167 39 94.5 39s68.666 -13.167 93.999 -39.5s38 -57.166 38 -92.499c0 -36 -13 -66.833 -39 -92.5
s-57 -38.5 -93 -38.5zM846.001 1511c-36.667 0 -68.168 13.001 -94.501 39.001s-39.5 57 -39.5 93s13 66.833 39 92.5s57.333 38.5 94 38.5s67.834 -12.833 93.501 -38.5s38.5 -56.5 38.5 -92.5c0 -36.667 -13 -67.834 -39 -93.501s-56.667 -38.5 -92 -38.5z" />
    <glyph glyph-name="Yacute" unicode="&#xdd;" horiz-adv-x="1211" 
d="M1252 1365l-427 -787v-578h-407v578l-459 787h459l239 -449l229 449h366zM453 1619l457 224l73 -195l-478 -166z" />
    <glyph glyph-name="Thorn" unicode="&#xde;" horiz-adv-x="1331" 
d="M544 0h-425v1365h425v-191h158c145.333 0 256 -16.667 332 -50s136 -84.333 180 -153s66 -145.667 66 -231c0 -130.667 -45.333 -236 -136 -316s-211.667 -120 -363 -120h-237v-304zM538 598h140c123.333 0 185 45.333 185 136c0 84.667 -57 127 -171 127h-154v-263z" />
    <glyph glyph-name="germandbls" unicode="&#xdf;" horiz-adv-x="1319" 
d="M491 -130l-374.997 -0.00292969v814h-74v250h74c8 184 64.667 320.167 170 408.5s239 132.5 401 132.5c150.667 0 262.667 -31.667 336 -95s110 -139 110 -227c0 -167.333 -113.333 -270.333 -340 -309c21.333 -10 55.666 -24.667 102.999 -44
c148 -61.333 249.833 -126.166 305.5 -194.499s83.5 -147.166 83.5 -236.499c0 -113.333 -43.833 -208.833 -131.5 -286.5s-199.834 -116.5 -336.501 -116.5c-102.667 0 -185.334 11.333 -248.001 34l88 272c40 -26.667 85.667 -40 137 -40c92 0 138 30.333 138 91
c0 27.333 -8.33301 49.333 -25 66s-54 40.334 -112 71.001c-98 52.667 -164.333 98 -199 136s-52 85 -52 141c0 98 35 189 105 273c84 0 126 33.333 126 100c0 29.333 -11 54 -33 74s-50 30 -84 30c-111.333 0 -167 -74.667 -167 -224v-1120z" />
    <glyph glyph-name="agrave" unicode="&#xe0;" 
d="M1130 0l-380.002 0.00390625c-9.33301 43.333 -14 90.666 -14 141.999c-72 -108.667 -181 -163 -327 -163c-120 0 -209.833 30.667 -269.5 92s-89.5 131.666 -89.5 210.999c0 107.333 48.833 194.166 146.5 260.499s270.834 106.166 519.501 119.499v23
c0 44.667 -10.167 74.334 -30.5 89.001s-50.166 22 -89.499 22c-92 0 -143.333 -37 -154 -111l-364 34c52 212.667 229 319 531 319c82 0 157.333 -8.16699 226 -24.5s123 -41.833 163 -76.5s66.833 -71.334 80.5 -110.001s20.5 -113 20.5 -223v-406
c0 -77.333 10.333 -143.333 31 -198zM715.998 476.004c-170 -18 -255 -72.333 -255 -163c0 -61.333 33.667 -92 101 -92c42.667 0 79 12.667 109 38s45 81.333 45 168v49zM833.998 1298l-52 -137l-478 166l73 195z" />
    <glyph glyph-name="aacute" unicode="&#xe1;" 
d="M1130 0l-380.002 0.00390625c-9.33301 43.333 -14 90.666 -14 141.999c-72 -108.667 -181 -163 -327 -163c-120 0 -209.833 30.667 -269.5 92s-89.5 131.666 -89.5 210.999c0 107.333 48.833 194.166 146.5 260.499s270.834 106.166 519.501 119.499v23
c0 44.667 -10.167 74.334 -30.5 89.001s-50.166 22 -89.499 22c-92 0 -143.333 -37 -154 -111l-364 34c52 212.667 229 319 531 319c82 0 157.333 -8.16699 226 -24.5s123 -41.833 163 -76.5s66.833 -71.334 80.5 -110.001s20.5 -113 20.5 -223v-406
c0 -77.333 10.333 -143.333 31 -198zM715.998 476.004c-170 -18 -255 -72.333 -255 -163c0 -61.333 33.667 -92 101 -92c42.667 0 79 12.667 109 38s45 81.333 45 168v49zM414.998 1298l457 224l73 -195l-478 -166z" />
    <glyph glyph-name="acircumflex" unicode="&#xe2;" 
d="M1130 0l-380.002 0.00390625c-9.33301 43.333 -14 90.666 -14 141.999c-72 -108.667 -181 -163 -327 -163c-120 0 -209.833 30.667 -269.5 92s-89.5 131.666 -89.5 210.999c0 107.333 48.833 194.166 146.5 260.499s270.834 106.166 519.501 119.499v23
c0 44.667 -10.167 74.334 -30.5 89.001s-50.166 22 -89.499 22c-92 0 -143.333 -37 -154 -111l-364 34c52 212.667 229 319 531 319c82 0 157.333 -8.16699 226 -24.5s123 -41.833 163 -76.5s66.833 -71.334 80.5 -110.001s20.5 -113 20.5 -223v-406
c0 -77.333 10.333 -143.333 31 -198zM715.998 476.004c-170 -18 -255 -72.333 -255 -163c0 -61.333 33.667 -92 101 -92c42.667 0 79 12.667 109 38s45 81.333 45 168v49zM1025 1195l-232 -21l-170 130l-169 -130l-232 21l401 318z" />
    <glyph glyph-name="atilde" unicode="&#xe3;" 
d="M1130 0l-380.002 0.00390625c-9.33301 43.333 -14 90.666 -14 141.999c-72 -108.667 -181 -163 -327 -163c-120 0 -209.833 30.667 -269.5 92s-89.5 131.666 -89.5 210.999c0 107.333 48.833 194.166 146.5 260.499s270.834 106.166 519.501 119.499v23
c0 44.667 -10.167 74.334 -30.5 89.001s-50.166 22 -89.499 22c-92 0 -143.333 -37 -154 -111l-364 34c52 212.667 229 319 531 319c82 0 157.333 -8.16699 226 -24.5s123 -41.833 163 -76.5s66.833 -71.334 80.5 -110.001s20.5 -113 20.5 -223v-406
c0 -77.333 10.333 -143.333 31 -198zM715.998 476.004c-170 -18 -255 -72.333 -255 -163c0 -61.333 33.667 -92 101 -92c42.667 0 79 12.667 109 38s45 81.333 45 168v49zM891.998 1429l99.9971 -117c-81.333 -85.333 -162.666 -128 -243.999 -128
c-41.333 0 -93.666 16.333 -156.999 49c-42.667 22 -76 33 -100 33c-46.667 0 -92 -26 -136 -78l-98 117c80.667 85.333 158.334 128 233.001 128c38.667 0 84 -13.333 136 -40c56 -28.667 95.333 -43 118 -43c42.667 0 92 26.333 148 79z" />
    <glyph glyph-name="adieresis" unicode="&#xe4;" 
d="M1130 0l-380.002 0.00390625c-9.33301 43.333 -14 90.666 -14 141.999c-72 -108.667 -181 -163 -327 -163c-120 0 -209.833 30.667 -269.5 92s-89.5 131.666 -89.5 210.999c0 107.333 48.833 194.166 146.5 260.499s270.834 106.166 519.501 119.499v23
c0 44.667 -10.167 74.334 -30.5 89.001s-50.166 22 -89.499 22c-92 0 -143.333 -37 -154 -111l-364 34c52 212.667 229 319 531 319c82 0 157.333 -8.16699 226 -24.5s123 -41.833 163 -76.5s66.833 -71.334 80.5 -110.001s20.5 -113 20.5 -223v-406
c0 -77.333 10.333 -143.333 31 -198zM715.998 476.004c-170 -18 -255 -72.333 -255 -163c0 -61.333 33.667 -92 101 -92c42.667 0 79 12.667 109 38s45 81.333 45 168v49zM439.998 1188c-36.667 0 -67.999 12.8311 -93.999 38.498s-39 56.834 -39 93.501
c0 35.333 12.833 66 38.5 92s57.167 39 94.5 39s68.666 -13.167 93.999 -39.5s38 -57.166 38 -92.499c0 -36 -13 -66.833 -39 -92.5s-57 -38.5 -93 -38.5zM800.999 1188c-36.667 0 -68.168 13.001 -94.501 39.001s-39.5 57 -39.5 93s13 66.833 39 92.5s57.333 38.5 94 38.5
s67.834 -12.833 93.501 -38.5s38.5 -56.5 38.5 -92.5c0 -36.667 -13 -67.834 -39 -93.501s-56.667 -38.5 -92 -38.5z" />
    <glyph glyph-name="aring" unicode="&#xe5;" 
d="M1130 0l-380.002 0.00390625c-9.33301 43.333 -14 90.666 -14 141.999c-72 -108.667 -181 -163 -327 -163c-120 0 -209.833 30.667 -269.5 92s-89.5 131.666 -89.5 210.999c0 107.333 48.833 194.166 146.5 260.499s270.834 106.166 519.501 119.499v23
c0 44.667 -10.167 74.334 -30.5 89.001s-50.166 22 -89.499 22c-92 0 -143.333 -37 -154 -111l-364 34c52 212.667 229 319 531 319c82 0 157.333 -8.16699 226 -24.5s123 -41.833 163 -76.5s66.833 -71.334 80.5 -110.001s20.5 -113 20.5 -223v-406
c0 -77.333 10.333 -143.333 31 -198zM715.998 476.004c-170 -18 -255 -72.333 -255 -163c0 -61.333 33.667 -92 101 -92c42.667 0 79 12.667 109 38s45 81.333 45 168v49zM620.998 1147c-55.333 0 -102.666 19.501 -141.999 58.501s-59 86.167 -59 141.5
s19.667 102.666 59 141.999s86.666 59 141.999 59c56 0 103.667 -19.5 143 -58.5s59 -86.167 59 -141.5c0 -56 -19.833 -103.5 -59.5 -142.5s-87.167 -58.5 -142.5 -58.5zM620.998 1273c20.667 0 38.5 7.33398 53.5 22.001s22.5 33 22.5 55c0 19.333 -7.5 36.333 -22.5 51
s-32.833 22 -53.5 22s-38.334 -7.5 -53.001 -22.5s-22 -32.5 -22 -52.5c0 -20.667 7.33301 -38.334 22 -53.001s32.334 -22 53.001 -22z" />
    <glyph glyph-name="ae" unicode="&#xe6;" horiz-adv-x="1627" 
d="M1573 436h-605.999c2.66699 -128 50.667 -192 144 -192c78.667 0 123.334 41.667 134.001 125l328 -25c-20 -109.333 -73 -197.5 -159 -264.5s-188.667 -100.5 -308 -100.5c-157.333 0 -285 57.667 -383 173c-84.667 -115.333 -201.667 -173 -351 -173
c-104.667 0 -184.334 30 -239.001 90s-82 130.667 -82 212c0 105.333 41.5 191 124.5 257s240.833 108.667 473.5 128v32c0 65.333 -34.667 98 -104 98c-74.667 0 -119 -37.333 -133 -112l-338 35c53.333 212.667 216.333 319 489 319
c111.333 0 201.666 -23.333 270.999 -70c78.667 46.667 163.667 70 255 70c150.667 0 269.667 -50 357 -150s131 -225.667 131 -377c0 -15.333 -1.33301 -40.333 -4 -75zM1224 633c0 116.667 -42.668 175 -128.001 175s-128.666 -58.333 -129.999 -175h258zM649 479
c-146.667 -22 -220 -76.333 -220 -163c0 -29.333 8.5 -52.5 25.5 -69.5s37.833 -25.5 62.5 -25.5c90.667 0 136 67 136 201c0 12 -1.33301 31 -4 57z" />
    <glyph glyph-name="ccedilla" unicode="&#xe7;" horiz-adv-x="1071" 
d="M606 -20l-28.9971 -80c14 0.666992 25.667 1 35 1c44.667 0 80.834 -14.5 108.501 -43.5s41.5 -65.167 41.5 -108.5c0 -54 -20.167 -95.667 -60.5 -125s-92.5 -44 -156.5 -44c-78 0 -154 22 -228 66l39 82c55.333 -30 107 -45 155 -45c54 0 81 21.667 81 65
c0 52.667 -43 79 -129 79c-6.66699 0 -16 -0.333008 -28 -1l60 157c-132.667 14.667 -239.834 71 -321.501 169s-122.5 214.333 -122.5 349c0 156 48.167 284.5 144.5 385.5s221.5 151.5 375.5 151.5c136.667 0 248 -38.167 334 -114.5s135.333 -172.833 148 -289.5
l-349 -29c-14.667 107.333 -55.334 161 -122.001 161c-42.667 0 -73.834 -19.5 -93.501 -58.5s-29.5 -106.833 -29.5 -203.5c0 -83.333 9.83301 -145 29.5 -185s53.834 -60 102.501 -60c71.333 0 113.666 50.333 126.999 151l340 -29
c-40.667 -250 -191.334 -383.667 -452.001 -401z" />
    <glyph glyph-name="egrave" unicode="&#xe8;" 
d="M777 365l372.001 -25c-22 -100 -78.167 -185.167 -168.5 -255.5s-212.5 -105.5 -366.5 -105.5c-171.333 0 -308 49.5 -410 148.5s-153 221.833 -153 368.5c0 152 50.333 280.333 151 385s235 157 403 157c162.667 0 294.167 -49.333 394.5 -148s150.5 -233 150.5 -403
c0 -14 -0.333008 -33.333 -1 -58h-681c1.33301 -64 12.666 -111.5 33.999 -142.5s62 -46.5 122 -46.5c86.667 0 137.667 41.667 153 125zM751.001 629c-0.666992 68.667 -14.5 114.833 -41.5 138.5s-60.5 35.5 -100.5 35.5c-94.667 0 -142 -58 -142 -174h284zM832.001 1298
l-52 -137l-478 166l73 195z" />
    <glyph glyph-name="eacute" unicode="&#xe9;" 
d="M777 365l372.001 -25c-22 -100 -78.167 -185.167 -168.5 -255.5s-212.5 -105.5 -366.5 -105.5c-171.333 0 -308 49.5 -410 148.5s-153 221.833 -153 368.5c0 152 50.333 280.333 151 385s235 157 403 157c162.667 0 294.167 -49.333 394.5 -148s150.5 -233 150.5 -403
c0 -14 -0.333008 -33.333 -1 -58h-681c1.33301 -64 12.666 -111.5 33.999 -142.5s62 -46.5 122 -46.5c86.667 0 137.667 41.667 153 125zM751.001 629c-0.666992 68.667 -14.5 114.833 -41.5 138.5s-60.5 35.5 -100.5 35.5c-94.667 0 -142 -58 -142 -174h284zM408.001 1298
l457 224l73 -195l-478 -166z" />
    <glyph glyph-name="ecircumflex" unicode="&#xea;" 
d="M777 365l372.001 -25c-22 -100 -78.167 -185.167 -168.5 -255.5s-212.5 -105.5 -366.5 -105.5c-171.333 0 -308 49.5 -410 148.5s-153 221.833 -153 368.5c0 152 50.333 280.333 151 385s235 157 403 157c162.667 0 294.167 -49.333 394.5 -148s150.5 -233 150.5 -403
c0 -14 -0.333008 -33.333 -1 -58h-681c1.33301 -64 12.666 -111.5 33.999 -142.5s62 -46.5 122 -46.5c86.667 0 137.667 41.667 153 125zM751.001 629c-0.666992 68.667 -14.5 114.833 -41.5 138.5s-60.5 35.5 -100.5 35.5c-94.667 0 -142 -58 -142 -174h284zM1021 1195
l-232 -21l-170 130l-169 -130l-232 21l401 318z" />
    <glyph glyph-name="edieresis" unicode="&#xeb;" 
d="M777 365l372.001 -25c-22 -100 -78.167 -185.167 -168.5 -255.5s-212.5 -105.5 -366.5 -105.5c-171.333 0 -308 49.5 -410 148.5s-153 221.833 -153 368.5c0 152 50.333 280.333 151 385s235 157 403 157c162.667 0 294.167 -49.333 394.5 -148s150.5 -233 150.5 -403
c0 -14 -0.333008 -33.333 -1 -58h-681c1.33301 -64 12.666 -111.5 33.999 -142.5s62 -46.5 122 -46.5c86.667 0 137.667 41.667 153 125zM751.001 629c-0.666992 68.667 -14.5 114.833 -41.5 138.5s-60.5 35.5 -100.5 35.5c-94.667 0 -142 -58 -142 -174h284zM435.001 1188
c-36.667 0 -67.999 12.8311 -93.999 38.498s-39 56.834 -39 93.501c0 35.333 12.833 66 38.5 92s57.167 39 94.5 39s68.666 -13.167 93.999 -39.5s38 -57.166 38 -92.499c0 -36 -13 -66.833 -39 -92.5s-57 -38.5 -93 -38.5zM796.002 1188
c-36.667 0 -68.168 13.001 -94.501 39.001s-39.5 57 -39.5 93s13 66.833 39 92.5s57.333 38.5 94 38.5s67.834 -12.833 93.501 -38.5s38.5 -56.5 38.5 -92.5c0 -36.667 -13 -67.834 -39 -93.501s-56.667 -38.5 -92 -38.5z" />
    <glyph glyph-name="igrave" unicode="&#xec;" horiz-adv-x="609" 
d="M504 1017v-1017h-399v1017h399zM517 1298l-52 -137l-478 166l73 195z" />
    <glyph glyph-name="iacute" unicode="&#xed;" horiz-adv-x="609" 
d="M504 1017v-1017h-399v1017h399zM96 1298l457 224l73 -195l-478 -166z" />
    <glyph glyph-name="icircumflex" unicode="&#xee;" horiz-adv-x="609" 
d="M504 1017v-1017h-399v1017h399zM706 1195l-232 -21l-170 130l-169 -130l-232 21l401 318z" />
    <glyph glyph-name="idieresis" unicode="&#xef;" horiz-adv-x="609" 
d="M504 1017v-1017h-399v1017h399zM141 1188c-36.667 0 -67.999 12.8311 -93.999 38.498s-39 56.834 -39 93.501c0 35.333 12.833 66 38.5 92s57.167 39 94.5 39s68.666 -13.167 93.999 -39.5s38 -57.166 38 -92.499c0 -36 -13 -66.833 -39 -92.5s-57 -38.5 -93 -38.5z
M502.001 1188c-36.667 0 -68.168 13.001 -94.501 39.001s-39.5 57 -39.5 93s13 66.833 39 92.5s57.333 38.5 94 38.5s67.834 -12.833 93.501 -38.5s38.5 -56.5 38.5 -92.5c0 -36.667 -13 -67.834 -39 -93.501s-56.667 -38.5 -92 -38.5z" />
    <glyph glyph-name="eth" unicode="&#xf0;" horiz-adv-x="1216" 
d="M366 1196l151 67.002c-30.667 24.667 -90 48.667 -178 72l70 120c104.667 -21.333 207 -53.333 307 -96l214 96l66 -126l-143 -63c88 -63.333 162 -159.333 222 -288s90 -263.667 90 -405c0 -198 -51.167 -346.5 -153.5 -445.5s-231.166 -148.5 -386.499 -148.5
c-182.667 0 -323.334 53.667 -422.001 161s-148 229.666 -148 366.999s47.5 255.666 142.5 354.999s208.167 149 339.5 149c84.667 0 154 -20.667 208 -62c-24 82.667 -63.667 154.667 -119 216l-201 -89zM606 767.002c-47.333 0 -80.999 -21.667 -100.999 -65
s-30 -112.333 -30 -207c0 -92 9.66699 -160.667 29 -206s53.666 -68 102.999 -68c52 0 87.333 24.667 106 74s28 116.333 28 201c0 180.667 -45 271 -135 271z" />
    <glyph glyph-name="ntilde" unicode="&#xf1;" horiz-adv-x="1203" 
d="M1098 0l-399.001 -0.000976562v640c0 52.667 -8.16699 86.334 -24.5 101.001s-36.833 22 -61.5 22c-72.667 0 -109 -50.667 -109 -152v-611h-399v1017h370v-144c54.667 110 152.334 165 293.001 165c74 0 136.5 -14.167 187.5 -42.5s87.5 -65 109.5 -110
s33 -123.167 33 -234.5v-651zM868.999 1433l99.9971 -117c-81.333 -85.333 -162.666 -128 -243.999 -128c-41.333 0 -93.666 16.333 -156.999 49c-42.667 22 -76 33 -100 33c-46.667 0 -92 -26 -136 -78l-98 117c80.667 85.333 158.334 128 233.001 128
c38.667 0 84 -13.333 136 -40c56 -28.667 95.333 -43 118 -43c42.667 0 92 26.333 148 79z" />
    <glyph glyph-name="ograve" unicode="&#xf2;" horiz-adv-x="1217" 
d="M602 -21c-168.667 0 -302.667 52.5 -402 157.5s-149 228.167 -149 369.5c0 152 51.833 278.667 155.5 380s238.5 152 404.5 152c167.333 0 301.833 -50 403.5 -150s152.5 -225.333 152.5 -376c0 -152 -51.5 -278.833 -154.5 -380.5s-239.833 -152.5 -410.5 -152.5z
M608 221c62 0 99.833 32.167 113.5 96.5s20.5 131.5 20.5 201.5c0 95.333 -9.66699 164 -29 206s-54 63 -104 63c-46 0 -79.667 -21.667 -101 -65s-32 -114.666 -32 -213.999c0 -116.667 11 -193.834 33 -231.501s55 -56.5 99 -56.5zM827 1298l-52 -137l-478 166l73 195z
" />
    <glyph glyph-name="oacute" unicode="&#xf3;" horiz-adv-x="1217" 
d="M602 -21c-168.667 0 -302.667 52.5 -402 157.5s-149 228.167 -149 369.5c0 152 51.833 278.667 155.5 380s238.5 152 404.5 152c167.333 0 301.833 -50 403.5 -150s152.5 -225.333 152.5 -376c0 -152 -51.5 -278.833 -154.5 -380.5s-239.833 -152.5 -410.5 -152.5z
M608 221c62 0 99.833 32.167 113.5 96.5s20.5 131.5 20.5 201.5c0 95.333 -9.66699 164 -29 206s-54 63 -104 63c-46 0 -79.667 -21.667 -101 -65s-32 -114.666 -32 -213.999c0 -116.667 11 -193.834 33 -231.501s55 -56.5 99 -56.5zM412 1298l457 224l73 -195l-478 -166z
" />
    <glyph glyph-name="ocircumflex" unicode="&#xf4;" horiz-adv-x="1217" 
d="M602 -21c-168.667 0 -302.667 52.5 -402 157.5s-149 228.167 -149 369.5c0 152 51.833 278.667 155.5 380s238.5 152 404.5 152c167.333 0 301.833 -50 403.5 -150s152.5 -225.333 152.5 -376c0 -152 -51.5 -278.833 -154.5 -380.5s-239.833 -152.5 -410.5 -152.5z
M608 221c62 0 99.833 32.167 113.5 96.5s20.5 131.5 20.5 201.5c0 95.333 -9.66699 164 -29 206s-54 63 -104 63c-46 0 -79.667 -21.667 -101 -65s-32 -114.666 -32 -213.999c0 -116.667 11 -193.834 33 -231.501s55 -56.5 99 -56.5zM1010 1195l-232 -21l-170 130l-169 -130
l-232 21l401 318z" />
    <glyph glyph-name="otilde" unicode="&#xf5;" horiz-adv-x="1217" 
d="M602 -21c-168.667 0 -302.667 52.5 -402 157.5s-149 228.167 -149 369.5c0 152 51.833 278.667 155.5 380s238.5 152 404.5 152c167.333 0 301.833 -50 403.5 -150s152.5 -225.333 152.5 -376c0 -152 -51.5 -278.833 -154.5 -380.5s-239.833 -152.5 -410.5 -152.5z
M608 221c62 0 99.833 32.167 113.5 96.5s20.5 131.5 20.5 201.5c0 95.333 -9.66699 164 -29 206s-54 63 -104 63c-46 0 -79.667 -21.667 -101 -65s-32 -114.666 -32 -213.999c0 -116.667 11 -193.834 33 -231.501s55 -56.5 99 -56.5zM890 1433l99.9971 -117
c-81.333 -85.333 -162.666 -128 -243.999 -128c-41.333 0 -93.666 16.333 -156.999 49c-42.667 22 -76 33 -100 33c-46.667 0 -92 -26 -136 -78l-98 117c80.667 85.333 158.334 128 233.001 128c38.667 0 84 -13.333 136 -40c56 -28.667 95.333 -43 118 -43
c42.667 0 92 26.333 148 79z" />
    <glyph glyph-name="odieresis" unicode="&#xf6;" horiz-adv-x="1217" 
d="M602 -21c-168.667 0 -302.667 52.5 -402 157.5s-149 228.167 -149 369.5c0 152 51.833 278.667 155.5 380s238.5 152 404.5 152c167.333 0 301.833 -50 403.5 -150s152.5 -225.333 152.5 -376c0 -152 -51.5 -278.833 -154.5 -380.5s-239.833 -152.5 -410.5 -152.5z
M608 221c62 0 99.833 32.167 113.5 96.5s20.5 131.5 20.5 201.5c0 95.333 -9.66699 164 -29 206s-54 63 -104 63c-46 0 -79.667 -21.667 -101 -65s-32 -114.666 -32 -213.999c0 -116.667 11 -193.834 33 -231.501s55 -56.5 99 -56.5zM429 1188
c-36.667 0 -67.999 12.8311 -93.999 38.498s-39 56.834 -39 93.501c0 35.333 12.833 66 38.5 92s57.167 39 94.5 39s68.666 -13.167 93.999 -39.5s38 -57.166 38 -92.499c0 -36 -13 -66.833 -39 -92.5s-57 -38.5 -93 -38.5zM790.001 1188
c-36.667 0 -68.168 13.001 -94.501 39.001s-39.5 57 -39.5 93s13 66.833 39 92.5s57.333 38.5 94 38.5s67.834 -12.833 93.501 -38.5s38.5 -56.5 38.5 -92.5c0 -36.667 -13 -67.834 -39 -93.501s-56.667 -38.5 -92 -38.5z" />
    <glyph glyph-name="divide" unicode="&#xf7;" 
d="M752 1053c0 -43.333 -15.333 -80.166 -46 -110.499s-67.667 -45.5 -111 -45.5s-81.333 15.167 -114 45.5s-49 68.166 -49 113.499c0 44 16 81.5 48 112.5s70 46.5 114 46.5c47.333 0 85.5 -16.5 114.5 -49.5s43.5 -70.5 43.5 -112.5zM1098 816v-253h-995v253h995z
M752 320c0 -43.333 -15.333 -80.167 -46 -110.5s-67.667 -45.5 -111 -45.5c-44 0 -82.167 15.167 -114.5 45.5s-48.5 68.166 -48.5 113.499c0 44 16 81.5 48 112.5s70.333 46.5 115 46.5s82 -16.167 112 -48.5s45 -70.166 45 -113.499z" />
    <glyph glyph-name="oslash" unicode="&#xf8;" horiz-adv-x="1217" 
d="M1109 1128l-139.001 -200.999c130.667 -102 196 -240.667 196 -416c0 -154 -52.167 -281.167 -156.5 -381.5s-243.166 -150.5 -416.499 -150.5c-74 0 -145.333 13.333 -214 40l-86 -128h-185l132 209c-126 105.333 -189 241 -189 407
c0 151.333 51.833 277.666 155.5 378.999s239.167 152 406.5 152c74 0 147.667 -12.667 221 -38l89 128h186zM693.999 762.001c-20.667 17.333 -48.667 25.999 -84 25.999c-48 0 -83.833 -19.5 -107.5 -58.5s-35.5 -115.5 -35.5 -229.5c0 -23.333 1.66699 -55.666 5 -96.999
zM519.999 252c19.333 -20.667 48.667 -31 88 -31c48.667 0 84.5 19.333 107.5 58s34.5 120 34.5 244c0 31.333 -1.66699 64 -5 98z" />
    <glyph glyph-name="ugrave" unicode="&#xf9;" horiz-adv-x="1199" 
d="M1094 1017v-1017h-369v167c-54 -125.333 -159.333 -188 -316 -188c-96.667 0 -171.5 26.833 -224.5 80.5s-79.5 130.5 -79.5 230.5v727h399v-640c0 -40 5.5 -68.167 16.5 -84.5s32.5 -24.5 64.5 -24.5c34 0 61.667 12.167 83 36.5s32 58.5 32 102.5v610h394zM812 1298
l-52 -137l-478 166l73 195z" />
    <glyph glyph-name="uacute" unicode="&#xfa;" horiz-adv-x="1199" 
d="M1094 1017v-1017h-369v167c-54 -125.333 -159.333 -188 -316 -188c-96.667 0 -171.5 26.833 -224.5 80.5s-79.5 130.5 -79.5 230.5v727h399v-640c0 -40 5.5 -68.167 16.5 -84.5s32.5 -24.5 64.5 -24.5c34 0 61.667 12.167 83 36.5s32 58.5 32 102.5v610h394zM396 1298
l457 224l73 -195l-478 -166z" />
    <glyph glyph-name="ucircumflex" unicode="&#xfb;" horiz-adv-x="1199" 
d="M1094 1017v-1017h-369v167c-54 -125.333 -159.333 -188 -316 -188c-96.667 0 -171.5 26.833 -224.5 80.5s-79.5 130.5 -79.5 230.5v727h399v-640c0 -40 5.5 -68.167 16.5 -84.5s32.5 -24.5 64.5 -24.5c34 0 61.667 12.167 83 36.5s32 58.5 32 102.5v610h394zM1001 1195
l-232 -21l-170 130l-169 -130l-232 21l401 318z" />
    <glyph glyph-name="udieresis" unicode="&#xfc;" horiz-adv-x="1199" 
d="M1094 1017v-1017h-369v167c-54 -125.333 -159.333 -188 -316 -188c-96.667 0 -171.5 26.833 -224.5 80.5s-79.5 130.5 -79.5 230.5v727h399v-640c0 -40 5.5 -68.167 16.5 -84.5s32.5 -24.5 64.5 -24.5c34 0 61.667 12.167 83 36.5s32 58.5 32 102.5v610h394zM420 1188
c-36.667 0 -67.999 12.8311 -93.999 38.498s-39 56.834 -39 93.501c0 35.333 12.833 66 38.5 92s57.167 39 94.5 39s68.666 -13.167 93.999 -39.5s38 -57.166 38 -92.499c0 -36 -13 -66.833 -39 -92.5s-57 -38.5 -93 -38.5zM781.001 1188
c-36.667 0 -68.168 13.001 -94.501 39.001s-39.5 57 -39.5 93s13 66.833 39 92.5s57.333 38.5 94 38.5s67.834 -12.833 93.501 -38.5s38.5 -56.5 38.5 -92.5c0 -36.667 -13 -67.834 -39 -93.501s-56.667 -38.5 -92 -38.5z" />
    <glyph glyph-name="yacute" unicode="&#xfd;" horiz-adv-x="1049" 
d="M1055 1017l-399 -1102c-30.667 -83.333 -74.667 -148.5 -132 -195.5s-145.666 -70.5 -264.999 -70.5c-28.667 0 -95.334 3 -200.001 9v283c52 -8 100 -12 144 -12c114.667 0 172 25.333 172 76c0 16.667 -5.66699 39.667 -17 69l-365 943h427l168 -542l176 542h291z
M347 1298l457 224l73 -195l-478 -166z" />
    <glyph glyph-name="thorn" unicode="&#xfe;" 
d="M504 -321h-399.002v1686h396v-469c46 94.667 132.333 142 259 142c118 0 212 -46 282 -138s105 -221.667 105 -389c0 -162.667 -35.167 -292 -105.5 -388s-163.166 -144 -278.499 -144c-113.333 0 -199.666 43.333 -258.999 130v-430zM503.998 372
c0 -45.333 10.332 -80.5 30.999 -105.5s46.334 -37.5 77.001 -37.5c48 0 81 22.167 99 66.5s27 112.5 27 204.5c0 106 -10.333 180.5 -31 223.5s-51.667 64.5 -93 64.5c-24.667 0 -49.167 -9.66699 -73.5 -29s-36.5 -51 -36.5 -95v-292z" />
    <glyph glyph-name="ydieresis" unicode="&#xff;" horiz-adv-x="1049" 
d="M1055 1017l-399 -1102c-30.667 -83.333 -74.667 -148.5 -132 -195.5s-145.666 -70.5 -264.999 -70.5c-28.667 0 -95.334 3 -200.001 9v283c52 -8 100 -12 144 -12c114.667 0 172 25.333 172 76c0 16.667 -5.66699 39.667 -17 69l-365 943h427l168 -542l176 542h291z
M362 1188c-36.667 0 -67.999 12.8311 -93.999 38.498s-39 56.834 -39 93.501c0 35.333 12.833 66 38.5 92s57.167 39 94.5 39s68.666 -13.167 93.999 -39.5s38 -57.166 38 -92.499c0 -36 -13 -66.833 -39 -92.5s-57 -38.5 -93 -38.5zM723.001 1188
c-36.667 0 -68.168 13.001 -94.501 39.001s-39.5 57 -39.5 93s13 66.833 39 92.5s57.333 38.5 94 38.5s67.834 -12.833 93.501 -38.5s38.5 -56.5 38.5 -92.5c0 -36.667 -13 -67.834 -39 -93.501s-56.667 -38.5 -92 -38.5z" />
    <glyph glyph-name="Amacron" unicode="&#x100;" horiz-adv-x="1306" 
d="M872 0l-77 269h-366l-82 -269h-340l422 1365h443l427 -1365h-427zM500 567h222l-111 396zM327 1547v155h647v-155h-647z" />
    <glyph glyph-name="amacron" unicode="&#x101;" 
d="M1130 0l-380.002 0.00390625c-9.33301 43.333 -14 90.666 -14 141.999c-72 -108.667 -181 -163 -327 -163c-120 0 -209.833 30.667 -269.5 92s-89.5 131.666 -89.5 210.999c0 107.333 48.833 194.166 146.5 260.499s270.834 106.166 519.501 119.499v23
c0 44.667 -10.167 74.334 -30.5 89.001s-50.166 22 -89.499 22c-92 0 -143.333 -37 -154 -111l-364 34c52 212.667 229 319 531 319c82 0 157.333 -8.16699 226 -24.5s123 -41.833 163 -76.5s66.833 -71.334 80.5 -110.001s20.5 -113 20.5 -223v-406
c0 -77.333 10.333 -143.333 31 -198zM715.998 476.004c-170 -18 -255 -72.333 -255 -163c0 -61.333 33.667 -92 101 -92c42.667 0 79 12.667 109 38s45 81.333 45 168v49zM296.998 1208v155h647v-155h-647z" />
    <glyph glyph-name="Abreve" unicode="&#x102;" horiz-adv-x="1306" 
d="M872 0l-77 269h-366l-82 -269h-340l422 1365h443l427 -1365h-427zM500 567h222l-111 396zM839 1816h176c-23.333 -102 -69 -179.833 -137 -233.5s-143.333 -80.5 -226 -80.5c-81.333 0 -156 25.667 -224 77s-115 130.333 -141 237h176c46 -94.667 109.333 -142 190 -142
c81.333 0 143.333 47.333 186 142z" />
    <glyph glyph-name="abreve" unicode="&#x103;" 
d="M1130 0l-380.002 0.00390625c-9.33301 43.333 -14 90.666 -14 141.999c-72 -108.667 -181 -163 -327 -163c-120 0 -209.833 30.667 -269.5 92s-89.5 131.666 -89.5 210.999c0 107.333 48.833 194.166 146.5 260.499s270.834 106.166 519.501 119.499v23
c0 44.667 -10.167 74.334 -30.5 89.001s-50.166 22 -89.499 22c-92 0 -143.333 -37 -154 -111l-364 34c52 212.667 229 319 531 319c82 0 157.333 -8.16699 226 -24.5s123 -41.833 163 -76.5s66.833 -71.334 80.5 -110.001s20.5 -113 20.5 -223v-406
c0 -77.333 10.333 -143.333 31 -198zM715.998 476.004c-170 -18 -255 -72.333 -255 -163c0 -61.333 33.667 -92 101 -92c42.667 0 79 12.667 109 38s45 81.333 45 168v49zM812.998 1495h176c-23.333 -102 -69 -179.833 -137 -233.5s-143.333 -80.5 -226 -80.5
c-81.333 0 -156 25.667 -224 77s-115 130.333 -141 237h176c46 -94.667 109.333 -142 190 -142c81.333 0 143.333 47.333 186 142z" />
    <glyph glyph-name="Aogonek" unicode="&#x104;" horiz-adv-x="1306" 
d="M1299 0c-93.333 -52 -139.999 -109 -139.999 -171c0 -62.667 37.333 -94 112 -94c28 0 60 6.33301 96 19l20 -90c-56.667 -26.667 -120.334 -40 -191.001 -40c-84 0 -142.5 17 -175.5 51s-49.5 71.667 -49.5 113c0 84 57 154.667 171 212h-270l-77 269h-366l-82 -269
h-340l422 1365h443zM500.001 567h222l-111 396z" />
    <glyph glyph-name="aogonek" unicode="&#x105;" 
d="M1130 0c-90 -50 -135.002 -104.664 -135.002 -163.997c0 -60 35.667 -90 107 -90c27.333 0 58 6 92 18l20 -85c-55.333 -26.667 -116.333 -40 -183 -40c-76.667 0 -132 15.5 -166 46.5s-51 68.167 -51 111.5c0 80.667 55 148.334 165 203.001h-229
c-9.33301 43.333 -14 90.666 -14 141.999c-72 -108.667 -181 -163 -327 -163c-120 0 -209.833 30.667 -269.5 92s-89.5 131.666 -89.5 210.999c0 107.333 48.833 194.166 146.5 260.499s270.834 106.166 519.501 119.499v23c0 44.667 -10.167 74.334 -30.5 89.001
s-50.166 22 -89.499 22c-92 0 -143.333 -37 -154 -111l-364 34c52 212.667 229 319 531 319c82 0 157.333 -8.16699 226 -24.5s123 -41.833 163 -76.5s66.833 -71.334 80.5 -110.001s20.5 -113 20.5 -223v-406c0 -77.333 10.333 -143.333 31 -198zM715.998 476.003
c-170 -18 -255 -72.333 -255 -163c0 -61.333 33.667 -92 101 -92c42.667 0 79 12.667 109 38s45 81.333 45 168v49z" />
    <glyph glyph-name="Cacute" unicode="&#x106;" horiz-adv-x="1287" 
d="M870 521l383 -23.001c-18 -167.333 -79.833 -295.666 -185.5 -384.999s-235.5 -134 -389.5 -134c-185.333 0 -335 61.333 -449 184s-171 292 -171 508c0 214 54 386.667 162 518s258.667 197 452 197c180.667 0 319.5 -50 416.5 -150s151.833 -232.667 164.5 -398
l-391 -21c0 91.333 -17.5 157.333 -52.5 198s-76.167 61 -123.5 61c-132 0 -198 -132.667 -198 -398c0 -148.667 17.167 -249.667 51.5 -303s82.5 -80 144.5 -80c110.667 0 172.667 75.333 186 226zM493 1619l457 224l73 -195l-478 -166z" />
    <glyph glyph-name="cacute" unicode="&#x107;" horiz-adv-x="1071" 
d="M718 410l340.003 -29c-16 -118.667 -65.833 -215.334 -149.5 -290.001s-194.834 -112 -333.501 -112c-155.333 0 -281.5 48.833 -378.5 146.5s-145.5 222.834 -145.5 375.501c0 156 48.167 284.5 144.5 385.5s221.5 151.5 375.5 151.5c136.667 0 248 -38.167 334 -114.5
s135.333 -172.833 148 -289.5l-349 -29c-14.667 107.333 -55.334 161 -122.001 161c-42.667 0 -73.834 -19.5 -93.501 -58.5s-29.5 -106.833 -29.5 -203.5c0 -83.333 9.83301 -145 29.5 -185s53.834 -60 102.501 -60c71.333 0 113.666 50.333 126.999 151zM377.003 1298
l457 224l73 -195l-478 -166z" />
    <glyph glyph-name="Ccircumflex" unicode="&#x108;" horiz-adv-x="1287" 
d="M870 521l383 -23.001c-18 -167.333 -79.833 -295.666 -185.5 -384.999s-235.5 -134 -389.5 -134c-185.333 0 -335 61.333 -449 184s-171 292 -171 508c0 214 54 386.667 162 518s258.667 197 452 197c180.667 0 319.5 -50 416.5 -150s151.833 -232.667 164.5 -398
l-391 -21c0 91.333 -17.5 157.333 -52.5 198s-76.167 61 -123.5 61c-132 0 -198 -132.667 -198 -398c0 -148.667 17.167 -249.667 51.5 -303s82.5 -80 144.5 -80c110.667 0 172.667 75.333 186 226zM1088 1516l-232 -21l-170 130l-169 -130l-232 21l401 318z" />
    <glyph glyph-name="ccircumflex" unicode="&#x109;" horiz-adv-x="1071" 
d="M718 410l340.003 -29c-16 -118.667 -65.833 -215.334 -149.5 -290.001s-194.834 -112 -333.501 -112c-155.333 0 -281.5 48.833 -378.5 146.5s-145.5 222.834 -145.5 375.501c0 156 48.167 284.5 144.5 385.5s221.5 151.5 375.5 151.5c136.667 0 248 -38.167 334 -114.5
s135.333 -172.833 148 -289.5l-349 -29c-14.667 107.333 -55.334 161 -122.001 161c-42.667 0 -73.834 -19.5 -93.501 -58.5s-29.5 -106.833 -29.5 -203.5c0 -83.333 9.83301 -145 29.5 -185s53.834 -60 102.501 -60c71.333 0 113.666 50.333 126.999 151zM984.003 1195
l-232 -21l-170 130l-169 -130l-232 21l401 318z" />
    <glyph glyph-name="Cdot" unicode="&#x10a;" horiz-adv-x="1287" 
d="M870 521l383 -23.001c-18 -167.333 -79.833 -295.666 -185.5 -384.999s-235.5 -134 -389.5 -134c-185.333 0 -335 61.333 -449 184s-171 292 -171 508c0 214 54 386.667 162 518s258.667 197 452 197c180.667 0 319.5 -50 416.5 -150s151.833 -232.667 164.5 -398
l-391 -21c0 91.333 -17.5 157.333 -52.5 198s-76.167 61 -123.5 61c-132 0 -198 -132.667 -198 -398c0 -148.667 17.167 -249.667 51.5 -303s82.5 -80 144.5 -80c110.667 0 172.667 75.333 186 226zM687 1508c-37.333 0 -69.5 13.333 -96.5 40s-40.5 58.667 -40.5 96
s13.333 69.166 40 95.499s58.667 39.5 96 39.5c38 0 70.333 -13.167 97 -39.5s40 -58.166 40 -95.499c0 -38 -13.333 -70.167 -40 -96.5s-58.667 -39.5 -96 -39.5z" />
    <glyph glyph-name="cdot" unicode="&#x10b;" horiz-adv-x="1071" 
d="M718 410l340.003 -29c-16 -118.667 -65.833 -215.334 -149.5 -290.001s-194.834 -112 -333.501 -112c-155.333 0 -281.5 48.833 -378.5 146.5s-145.5 222.834 -145.5 375.501c0 156 48.167 284.5 144.5 385.5s221.5 151.5 375.5 151.5c136.667 0 248 -38.167 334 -114.5
s135.333 -172.833 148 -289.5l-349 -29c-14.667 107.333 -55.334 161 -122.001 161c-42.667 0 -73.834 -19.5 -93.501 -58.5s-29.5 -106.833 -29.5 -203.5c0 -83.333 9.83301 -145 29.5 -185s53.834 -60 102.501 -60c71.333 0 113.666 50.333 126.999 151zM585.003 1188
c-37.333 0 -69.5 13.333 -96.5 40s-40.5 58.667 -40.5 96s13.333 69.166 40 95.499s58.667 39.5 96 39.5c38 0 70.333 -13.167 97 -39.5s40 -58.166 40 -95.499c0 -38 -13.333 -70.167 -40 -96.5s-58.667 -39.5 -96 -39.5z" />
    <glyph glyph-name="Ccaron" unicode="&#x10c;" horiz-adv-x="1287" 
d="M870 521l383 -23.001c-18 -167.333 -79.833 -295.666 -185.5 -384.999s-235.5 -134 -389.5 -134c-185.333 0 -335 61.333 -449 184s-171 292 -171 508c0 214 54 386.667 162 518s258.667 197 452 197c180.667 0 319.5 -50 416.5 -150s151.833 -232.667 164.5 -398
l-391 -21c0 91.333 -17.5 157.333 -52.5 198s-76.167 61 -123.5 61c-132 0 -198 -132.667 -198 -398c0 -148.667 17.167 -249.667 51.5 -303s82.5 -80 144.5 -80c110.667 0 172.667 75.333 186 226zM285 1800l232 20l169 -130l170 130l232 -20l-402 -318z" />
    <glyph glyph-name="ccaron" unicode="&#x10d;" horiz-adv-x="1071" 
d="M718 410l340.003 -29c-16 -118.667 -65.833 -215.334 -149.5 -290.001s-194.834 -112 -333.501 -112c-155.333 0 -281.5 48.833 -378.5 146.5s-145.5 222.834 -145.5 375.501c0 156 48.167 284.5 144.5 385.5s221.5 151.5 375.5 151.5c136.667 0 248 -38.167 334 -114.5
s135.333 -172.833 148 -289.5l-349 -29c-14.667 107.333 -55.334 161 -122.001 161c-42.667 0 -73.834 -19.5 -93.501 -58.5s-29.5 -106.833 -29.5 -203.5c0 -83.333 9.83301 -145 29.5 -185s53.834 -60 102.501 -60c71.333 0 113.666 50.333 126.999 151zM182.003 1479
l232 20l169 -130l170 130l232 -20l-402 -318z" />
    <glyph glyph-name="Dcaron" unicode="&#x10e;" horiz-adv-x="1391" 
d="M119 0l-0.000976562 1365h528c229.333 0 401 -68 515 -204s171 -293.333 171 -472c0 -204 -61.167 -369.833 -183.5 -497.5s-281.166 -191.5 -476.499 -191.5h-554zM537.999 314h109c69.333 0 127.833 33.667 175.5 101s71.5 159 71.5 275
c0 99.333 -21.167 185 -63.5 257s-103.5 108 -183.5 108h-109v-741zM228.999 1800l232 20l169 -130l170 130l232 -20l-402 -318z" />
    <glyph glyph-name="dcaron" unicode="&#x10f;" horiz-adv-x="1458" 
d="M1098 0l-374.001 -0.000976562v135c-55.333 -104 -146.666 -156 -273.999 -156c-117.333 0 -212.5 45.833 -285.5 137.5s-109.5 224.834 -109.5 399.501c0 163.333 36.667 293 110 389s170.333 144 291 144c100.667 0 183.667 -38.333 249 -115v431h393v-1365z
M704.999 653.999c0 91.333 -37.667 137 -113 137c-52.667 0 -87.167 -29 -103.5 -87s-24.5 -129 -24.5 -213c0 -164.667 42 -247 126 -247c32 0 59.167 13 81.5 39s33.5 65.667 33.5 119v252zM1459 1365l-141 -421h-107l24 421h224z" />
    <glyph glyph-name="Dslash" unicode="&#x110;" horiz-adv-x="1391" 
d="M119 1365h528c229.333 0 401 -68 515 -204s171 -293.333 171 -472c0 -204 -61.167 -369.833 -183.5 -497.5s-280.833 -191.5 -475.5 -191.5h-555v601h-112v200h112v564zM538 801h195v-200h-195v-287h109c69.333 0 127.833 33.667 175.5 101s71.5 159 71.5 275
c0 93.333 -20.167 177.5 -60.5 252.5s-102.5 112.5 -186.5 112.5h-109v-254z" />
    <glyph glyph-name="dmacron" unicode="&#x111;" horiz-adv-x="1203" 
d="M1097 0l-374.001 0.000976562v135c-55.333 -104 -146.666 -156 -273.999 -156c-128 0 -225.833 49.667 -293.5 149s-101.5 222.666 -101.5 369.999c0 160 36.5 288.333 109.5 385s170.5 145 292.5 145c100 0 182.667 -38 248 -114v182h-243v178h243v91h393v-91h106v-178
h-106v-1096zM703.999 634.001c0 90.667 -37.667 136 -113 136c-85.333 0 -128 -94.667 -128 -284c0 -161.333 42.333 -242 127 -242c32 0 59 13 81 39s33 65.667 33 119v232z" />
    <glyph glyph-name="Emacron" unicode="&#x112;" horiz-adv-x="1193" 
d="M1146 326v-326h-1027v1365h1027v-315h-616v-198h498v-303h-498v-223h616zM309 1547v155h647v-155h-647z" />
    <glyph glyph-name="emacron" unicode="&#x113;" 
d="M777 365l372.001 -25c-22 -100 -78.167 -185.167 -168.5 -255.5s-212.5 -105.5 -366.5 -105.5c-171.333 0 -308 49.5 -410 148.5s-153 221.833 -153 368.5c0 152 50.333 280.333 151 385s235 157 403 157c162.667 0 294.167 -49.333 394.5 -148s150.5 -233 150.5 -403
c0 -14 -0.333008 -33.333 -1 -58h-681c1.33301 -64 12.666 -111.5 33.999 -142.5s62 -46.5 122 -46.5c86.667 0 137.667 41.667 153 125zM751.001 629c-0.666992 68.667 -14.5 114.833 -41.5 138.5s-60.5 35.5 -100.5 35.5c-94.667 0 -142 -58 -142 -174h284zM292.001 1208
v155h647v-155h-647z" />
    <glyph glyph-name="Ebreve" unicode="&#x114;" horiz-adv-x="1193" 
d="M1146 326v-326h-1027v1365h1027v-315h-616v-198h498v-303h-498v-223h616zM820 1816h176c-23.333 -102 -69 -179.833 -137 -233.5s-143.333 -80.5 -226 -80.5c-81.333 0 -156 25.667 -224 77s-115 130.333 -141 237h176c46 -94.667 109.333 -142 190 -142
c81.333 0 143.333 47.333 186 142z" />
    <glyph glyph-name="ebreve" unicode="&#x115;" 
d="M777 365l372.001 -25c-22 -100 -78.167 -185.167 -168.5 -255.5s-212.5 -105.5 -366.5 -105.5c-171.333 0 -308 49.5 -410 148.5s-153 221.833 -153 368.5c0 152 50.333 280.333 151 385s235 157 403 157c162.667 0 294.167 -49.333 394.5 -148s150.5 -233 150.5 -403
c0 -14 -0.333008 -33.333 -1 -58h-681c1.33301 -64 12.666 -111.5 33.999 -142.5s62 -46.5 122 -46.5c86.667 0 137.667 41.667 153 125zM751.001 629c-0.666992 68.667 -14.5 114.833 -41.5 138.5s-60.5 35.5 -100.5 35.5c-94.667 0 -142 -58 -142 -174h284zM803.001 1495
h176c-23.333 -102 -69 -179.833 -137 -233.5s-143.333 -80.5 -226 -80.5c-81.333 0 -156 25.667 -224 77s-115 130.333 -141 237h176c46 -94.667 109.333 -142 190 -142c81.333 0 143.333 47.333 186 142z" />
    <glyph glyph-name="Edot" unicode="&#x116;" horiz-adv-x="1193" 
d="M1146 326v-326h-1027v1365h1027v-315h-616v-198h498v-303h-498v-223h616zM628 1508c-37.333 0 -69.5 13.333 -96.5 40s-40.5 58.667 -40.5 96s13.333 69.166 40 95.499s58.667 39.5 96 39.5c38 0 70.333 -13.167 97 -39.5s40 -58.166 40 -95.499
c0 -38 -13.333 -70.167 -40 -96.5s-58.667 -39.5 -96 -39.5z" />
    <glyph glyph-name="edot" unicode="&#x117;" 
d="M777 365l372.001 -25c-22 -100 -78.167 -185.167 -168.5 -255.5s-212.5 -105.5 -366.5 -105.5c-171.333 0 -308 49.5 -410 148.5s-153 221.833 -153 368.5c0 152 50.333 280.333 151 385s235 157 403 157c162.667 0 294.167 -49.333 394.5 -148s150.5 -233 150.5 -403
c0 -14 -0.333008 -33.333 -1 -58h-681c1.33301 -64 12.666 -111.5 33.999 -142.5s62 -46.5 122 -46.5c86.667 0 137.667 41.667 153 125zM751.001 629c-0.666992 68.667 -14.5 114.833 -41.5 138.5s-60.5 35.5 -100.5 35.5c-94.667 0 -142 -58 -142 -174h284zM616.001 1188
c-37.333 0 -69.5 13.333 -96.5 40s-40.5 58.667 -40.5 96s13.333 69.166 40 95.499s58.667 39.5 96 39.5c38 0 70.333 -13.167 97 -39.5s40 -58.166 40 -95.499c0 -38 -13.333 -70.167 -40 -96.5s-58.667 -39.5 -96 -39.5z" />
    <glyph glyph-name="Eogonek" unicode="&#x118;" horiz-adv-x="1193" 
d="M1146 0c-93.333 -52 -139.999 -109.001 -139.999 -171.001c0 -62.667 37 -94 111 -94c28 0 60 6.33301 96 19l21 -90c-56.667 -26.667 -120.334 -40 -191.001 -40c-84.667 0 -143.5 17 -176.5 51s-49.5 71.667 -49.5 113c0 84.667 57 155.334 171 212.001h-869v1365h1027
v-315h-616v-198h498v-303h-498v-223h616v-326z" />
    <glyph glyph-name="eogonek" unicode="&#x119;" 
d="M990 -230l20.002 -86c-55.333 -25.333 -116.666 -38 -183.999 -38c-80.667 0 -136.834 16.167 -168.501 48.5s-47.5 68.5 -47.5 108.5c0 72 43.333 134 130 186c-41.333 -6.66699 -83.333 -10 -126 -10c-176 0 -313.833 50.167 -413.5 150.5s-149.5 222.5 -149.5 366.5
c0 152 50.333 280.333 151 385s235 157 403 157c162.667 0 294.167 -49.333 394.5 -148s150.5 -233 150.5 -403c0 -14 -0.333008 -33.333 -1 -58h-681c1.33301 -64 12.666 -111.5 33.999 -142.5s62 -46.5 122 -46.5c86.667 0 137.667 41.667 153 125l372 -25
c-20.667 -99.333 -87.334 -193.333 -200.001 -282c-59.333 -46.667 -100.5 -85.167 -123.5 -115.5s-34.5 -62.833 -34.5 -97.5c0 -61.333 35.333 -92 106 -92c27.333 0 58.333 5.66699 93 17zM751.002 629c-0.666992 68.667 -14.5 114.833 -41.5 138.5
s-60.5 35.5 -100.5 35.5c-94.667 0 -142 -58 -142 -174h284z" />
    <glyph glyph-name="Ecaron" unicode="&#x11a;" horiz-adv-x="1193" 
d="M1146 326v-326h-1027v1365h1027v-315h-616v-198h498v-303h-498v-223h616zM231 1800l232 20l169 -130l170 130l232 -20l-402 -318z" />
    <glyph glyph-name="ecaron" unicode="&#x11b;" 
d="M777 365l372.001 -25c-22 -100 -78.167 -185.167 -168.5 -255.5s-212.5 -105.5 -366.5 -105.5c-171.333 0 -308 49.5 -410 148.5s-153 221.833 -153 368.5c0 152 50.333 280.333 151 385s235 157 403 157c162.667 0 294.167 -49.333 394.5 -148s150.5 -233 150.5 -403
c0 -14 -0.333008 -33.333 -1 -58h-681c1.33301 -64 12.666 -111.5 33.999 -142.5s62 -46.5 122 -46.5c86.667 0 137.667 41.667 153 125zM751.001 629c-0.666992 68.667 -14.5 114.833 -41.5 138.5s-60.5 35.5 -100.5 35.5c-94.667 0 -142 -58 -142 -174h284zM218.001 1479
l232 20l169 -130l170 130l232 -20l-402 -318z" />
    <glyph glyph-name="Gcircumflex" unicode="&#x11c;" horiz-adv-x="1400" 
d="M1298 765l-0.00195312 -765.001h-205c-16.667 56.667 -35 104.334 -55 143.001c-84.667 -109.333 -210 -164 -376 -164c-176 0 -320.667 61.5 -434 184.5s-170 289.5 -170 499.5c0 204 54.833 375.5 164.5 514.5s272.834 208.5 489.501 208.5
c162.667 0 293.667 -41.333 393 -124s163.666 -200 192.999 -352l-406 -40c-20 142 -82.333 213 -187 213c-137.333 0 -206 -130.667 -206 -392c0 -158 22 -262.167 66 -312.5s97.333 -75.5 160 -75.5c50.667 0 93.834 15.333 129.501 46s53.834 72.667 54.501 126h-226v290
h615zM1121 1516l-232 -21l-170 130l-169 -130l-232 21l401 318z" />
    <glyph glyph-name="gcircumflex" unicode="&#x11d;" horiz-adv-x="1166" 
d="M1165 1248l-10.002 -273.001l-19 1c-36 2 -61.667 3 -77 3c-62 0 -99.333 -12.333 -112 -37c76 -62.667 114 -138.334 114 -227.001c0 -104 -41.167 -182.167 -123.5 -234.5s-194.166 -78.5 -335.499 -78.5c-3.33301 0 -20.666 0.666992 -51.999 2
c-29.333 1.33301 -44.666 2 -45.999 2c-64.667 0 -97 -16.667 -97 -50c0 -29.333 28.667 -45 86 -47l327 -14c119.333 -5.33301 206.833 -38.666 262.5 -99.999s83.5 -133 83.5 -215c0 -97.333 -41.5 -176.833 -124.5 -238.5s-244.5 -92.5 -484.5 -92.5
c-370 0 -555 85 -555 255c0 92.667 49 157.334 147 194.001c-63.333 44.667 -95 97.667 -95 159c0 100 65 175.333 195 226c-108.667 47.333 -163 126 -163 236c0 100.667 44 179 132 235s208.667 84 362 84c70 0 133.667 -7 191 -21
c23.333 159.333 107.666 239 252.999 239c33.333 0 80.333 -2.66699 141 -8zM580.998 590.999c77.333 0 116 41 116 123c0 84 -39.667 126 -119 126c-78.667 0 -118 -42.667 -118 -128c0 -80.667 40.333 -121 121 -121zM478.998 12.999
c-14.667 0.666992 -29.333 0.999023 -44 0.999023c-68.667 0 -103 -21.333 -103 -64c0 -39.333 26.167 -64.666 78.5 -75.999s122.166 -17 209.499 -17c82.667 0 135.834 7 159.501 21s35.5 33.333 35.5 58c0 17.333 -5.33301 31.833 -16 43.5s-36 18.5 -76 20.5z
M922.999 1222l-232 -21l-170 130l-169 -130l-232 21l401 318z" />
    <glyph glyph-name="Gbreve" unicode="&#x11e;" horiz-adv-x="1400" 
d="M1298 765l-0.00195312 -765.001h-205c-16.667 56.667 -35 104.334 -55 143.001c-84.667 -109.333 -210 -164 -376 -164c-176 0 -320.667 61.5 -434 184.5s-170 289.5 -170 499.5c0 204 54.833 375.5 164.5 514.5s272.834 208.5 489.501 208.5
c162.667 0 293.667 -41.333 393 -124s163.666 -200 192.999 -352l-406 -40c-20 142 -82.333 213 -187 213c-137.333 0 -206 -130.667 -206 -392c0 -158 22 -262.167 66 -312.5s97.333 -75.5 160 -75.5c50.667 0 93.834 15.333 129.501 46s53.834 72.667 54.501 126h-226v290
h615zM903.998 1816h176c-23.333 -102 -69 -179.833 -137 -233.5s-143.333 -80.5 -226 -80.5c-81.333 0 -156 25.667 -224 77s-115 130.333 -141 237h176c46 -94.667 109.333 -142 190 -142c81.333 0 143.333 47.333 186 142z" />
    <glyph glyph-name="gbreve" unicode="&#x11f;" horiz-adv-x="1166" 
d="M1165 1174l-10.002 -273.001l-19 1c-36 2 -61.667 3 -77 3c-62 0 -99.333 -12.333 -112 -37c76 -62.667 114 -138.334 114 -227.001c0 -104 -41.167 -182.167 -123.5 -234.5s-194.166 -78.5 -335.499 -78.5c-3.33301 0 -20.666 0.666992 -51.999 2
c-29.333 1.33301 -44.666 2 -45.999 2c-64.667 0 -97 -16.667 -97 -50c0 -29.333 28.667 -45 86 -47l327 -14c119.333 -5.33301 206.833 -38.666 262.5 -99.999s83.5 -133 83.5 -215c0 -97.333 -41.5 -176.833 -124.5 -238.5s-244.5 -92.5 -484.5 -92.5
c-370 0 -555 85 -555 255c0 92.667 49 157.334 147 194.001c-63.333 44.667 -95 97.667 -95 159c0 100 65 175.333 195 226c-108.667 47.333 -163 126 -163 236c0 100.667 44 179 132 235s208.667 84 362 84c70 0 133.667 -7 191 -21
c23.333 159.333 107.666 239 252.999 239c33.333 0 80.333 -2.66699 141 -8zM580.998 516.999c77.333 0 116 41 116 123c0 84 -39.667 126 -119 126c-78.667 0 -118 -42.667 -118 -128c0 -80.667 40.333 -121 121 -121zM478.998 -61.001
c-14.667 0.666992 -29.333 0.999023 -44 0.999023c-68.667 0 -103 -21.333 -103 -64c0 -39.333 26.167 -64.666 78.5 -75.999s122.166 -17 209.499 -17c82.667 0 135.834 7 159.501 21s35.5 33.333 35.5 58c0 17.333 -5.33301 31.833 -16 43.5s-36 18.5 -76 20.5z
M710.999 1495h176c-23.333 -102 -69 -179.833 -137 -233.5s-143.333 -80.5 -226 -80.5c-81.333 0 -156 25.667 -224 77s-115 130.333 -141 237h176c46 -94.667 109.333 -142 190 -142c81.333 0 143.333 47.333 186 142z" />
    <glyph glyph-name="Gdot" unicode="&#x120;" horiz-adv-x="1400" 
d="M1298 765l-0.00195312 -765.001h-205c-16.667 56.667 -35 104.334 -55 143.001c-84.667 -109.333 -210 -164 -376 -164c-176 0 -320.667 61.5 -434 184.5s-170 289.5 -170 499.5c0 204 54.833 375.5 164.5 514.5s272.834 208.5 489.501 208.5
c162.667 0 293.667 -41.333 393 -124s163.666 -200 192.999 -352l-406 -40c-20 142 -82.333 213 -187 213c-137.333 0 -206 -130.667 -206 -392c0 -158 22 -262.167 66 -312.5s97.333 -75.5 160 -75.5c50.667 0 93.834 15.333 129.501 46s53.834 72.667 54.501 126h-226v290
h615zM714.998 1508c-37.333 0 -69.5 13.333 -96.5 40s-40.5 58.667 -40.5 96s13.333 69.166 40 95.499s58.667 39.5 96 39.5c38 0 70.333 -13.167 97 -39.5s40 -58.166 40 -95.499c0 -38 -13.333 -70.167 -40 -96.5s-58.667 -39.5 -96 -39.5z" />
    <glyph glyph-name="gdot" unicode="&#x121;" horiz-adv-x="1166" 
d="M1165 1248l-10.002 -273.001l-19 1c-36 2 -61.667 3 -77 3c-62 0 -99.333 -12.333 -112 -37c76 -62.667 114 -138.334 114 -227.001c0 -104 -41.167 -182.167 -123.5 -234.5s-194.166 -78.5 -335.499 -78.5c-3.33301 0 -20.666 0.666992 -51.999 2
c-29.333 1.33301 -44.666 2 -45.999 2c-64.667 0 -97 -16.667 -97 -50c0 -29.333 28.667 -45 86 -47l327 -14c119.333 -5.33301 206.833 -38.666 262.5 -99.999s83.5 -133 83.5 -215c0 -97.333 -41.5 -176.833 -124.5 -238.5s-244.5 -92.5 -484.5 -92.5
c-370 0 -555 85 -555 255c0 92.667 49 157.334 147 194.001c-63.333 44.667 -95 97.667 -95 159c0 100 65 175.333 195 226c-108.667 47.333 -163 126 -163 236c0 100.667 44 179 132 235s208.667 84 362 84c70 0 133.667 -7 191 -21
c23.333 159.333 107.666 239 252.999 239c33.333 0 80.333 -2.66699 141 -8zM580.998 590.999c77.333 0 116 41 116 123c0 84 -39.667 126 -119 126c-78.667 0 -118 -42.667 -118 -128c0 -80.667 40.333 -121 121 -121zM478.998 12.999
c-14.667 0.666992 -29.333 0.999023 -44 0.999023c-68.667 0 -103 -21.333 -103 -64c0 -39.333 26.167 -64.666 78.5 -75.999s122.166 -17 209.499 -17c82.667 0 135.834 7 159.501 21s35.5 33.333 35.5 58c0 17.333 -5.33301 31.833 -16 43.5s-36 18.5 -76 20.5z
M583.999 1188c-37.333 0 -69.5 13.333 -96.5 40s-40.5 58.667 -40.5 96s13.333 69.166 40 95.499s58.667 39.5 96 39.5c38 0 70.333 -13.167 97 -39.5s40 -58.166 40 -95.499c0 -38 -13.333 -70.167 -40 -96.5s-58.667 -39.5 -96 -39.5z" />
    <glyph glyph-name="Gcedilla" unicode="&#x122;" horiz-adv-x="1400" 
d="M1298 765l-0.00195312 -765.001h-205c-16.667 56.667 -35 104.334 -55 143.001c-84.667 -109.333 -210 -164 -376 -164c-176 0 -320.667 61.5 -434 184.5s-170 289.5 -170 499.5c0 204 54.833 375.5 164.5 514.5s272.834 208.5 489.501 208.5
c162.667 0 293.667 -41.333 393 -124s163.666 -200 192.999 -352l-406 -40c-20 142 -82.333 213 -187 213c-137.333 0 -206 -130.667 -206 -392c0 -158 22 -262.167 66 -312.5s97.333 -75.5 160 -75.5c50.667 0 93.834 15.333 129.501 46s53.834 72.667 54.501 126h-226v290
h615zM786.998 -120.001l-141 -404h-107l25 404h223z" />
    <glyph glyph-name="gcedilla" unicode="&#x123;" horiz-adv-x="1166" 
d="M1165 1248l-10.002 -273.001l-19 1c-36 2 -61.667 3 -77 3c-62 0 -99.333 -12.333 -112 -37c76 -62.667 114 -138.334 114 -227.001c0 -104 -41.167 -182.167 -123.5 -234.5s-194.166 -78.5 -335.499 -78.5c-3.33301 0 -20.666 0.666992 -51.999 2
c-29.333 1.33301 -44.666 2 -45.999 2c-64.667 0 -97 -16.667 -97 -50c0 -29.333 28.667 -45 86 -47l327 -14c119.333 -5.33301 206.833 -38.666 262.5 -99.999s83.5 -133 83.5 -215c0 -97.333 -41.5 -176.833 -124.5 -238.5s-244.5 -92.5 -484.5 -92.5
c-370 0 -555 85 -555 255c0 92.667 49 157.334 147 194.001c-63.333 44.667 -95 97.667 -95 159c0 100 65 175.333 195 226c-108.667 47.333 -163 126 -163 236c0 100.667 44 179 132 235s208.667 84 362 84c70 0 133.667 -7 191 -21
c23.333 159.333 107.666 239 252.999 239c33.333 0 80.333 -2.66699 141 -8zM580.998 590.999c77.333 0 116 41 116 123c0 84 -39.667 126 -119 126c-78.667 0 -118 -42.667 -118 -128c0 -80.667 40.333 -121 121 -121zM478.998 12.999
c-14.667 0.666992 -29.333 0.999023 -44 0.999023c-68.667 0 -103 -21.333 -103 -64c0 -39.333 26.167 -64.666 78.5 -75.999s122.166 -17 209.499 -17c82.667 0 135.834 7 159.501 21s35.5 33.333 35.5 58c0 17.333 -5.33301 31.833 -16 43.5s-36 18.5 -76 20.5z
M520.999 1173l141 421h107l-24 -421h-224z" />
    <glyph glyph-name="Hcircumflex" unicode="&#x124;" horiz-adv-x="1395" 
d="M1277 1365v-1365h-419v531h-320v-531h-419v1365h419v-502h320v502h419zM1100 1516l-232 -21l-170 130l-169 -130l-232 21l401 318z" />
    <glyph glyph-name="hcircumflex" unicode="&#x125;" horiz-adv-x="1210" 
d="M1104 0l-398.003 -0.00195312v612c0 56 -6.16699 94.5 -18.5 115.5s-36.166 31.5 -71.499 31.5c-27.333 0 -51.166 -8.16699 -71.499 -24.5s-32.166 -33.166 -35.499 -50.499s-5 -53.666 -5 -108.999v-575h-399v1365h399v-468c72 94 166 141 282 141
c58.667 0 110.167 -10.167 154.5 -30.5s78.5 -46.5 102.5 -78.5s40.167 -63 48.5 -93s12.5 -88 12.5 -174v-662zM726.997 1516l-232 -21l-170 130l-169 -130l-232 21l401 318z" />
    <glyph glyph-name="Hbar" unicode="&#x126;" horiz-adv-x="1395" 
d="M1389 1206v-194h-112v-1012h-419v531h-320v-531h-419v1012h-112v194h112v159h419v-159h320v159h419v-159h112zM538 1012v-190h320v190h-320z" />
    <glyph glyph-name="hbar" unicode="&#x127;" horiz-adv-x="1210" 
d="M0 1096l-0.000976562 177.999h105v91h399v-91h243v-178h-243v-199c72 94 166 141 282 141c58.667 0 110.334 -10 155.001 -30s79 -46.167 103 -78.5s40.167 -63.5 48.5 -93.5s12.5 -88 12.5 -174v-662h-399v612l1 52c0 63.333 -30.333 95 -91 95
c-28 0 -53.833 -9.66699 -77.5 -29s-35.5 -49.666 -35.5 -90.999l1 -64v-575h-399v1096h-105z" />
    <glyph glyph-name="Itilde" unicode="&#x128;" horiz-adv-x="657" 
d="M538 1365v-1365h-419v1365h419zM596 1754l99.9971 -117c-81.333 -85.333 -162.666 -128 -243.999 -128c-41.333 0 -93.666 16.333 -156.999 49c-42.667 22 -76 33 -100 33c-46.667 0 -92 -26 -136 -78l-98 117c80.667 85.333 158.334 128 233.001 128
c38.667 0 84 -13.333 136 -40c56 -28.667 95.333 -43 118 -43c42.667 0 92 26.333 148 79z" />
    <glyph glyph-name="itilde" unicode="&#x129;" horiz-adv-x="609" 
d="M504 1017v-1017h-399v1017h399zM572 1433l99.9971 -117c-81.333 -85.333 -162.666 -128 -243.999 -128c-41.333 0 -93.666 16.333 -156.999 49c-42.667 22 -76 33 -100 33c-46.667 0 -92 -26 -136 -78l-98 117c80.667 85.333 158.334 128 233.001 128
c38.667 0 84 -13.333 136 -40c56 -28.667 95.333 -43 118 -43c42.667 0 92 26.333 148 79z" />
    <glyph glyph-name="Imacron" unicode="&#x12a;" horiz-adv-x="657" 
d="M538 1365v-1365h-419v1365h419zM5 1547v155h647v-155h-647z" />
    <glyph glyph-name="imacron" unicode="&#x12b;" horiz-adv-x="609" 
d="M504 1017v-1017h-399v1017h399zM-19 1208v155h647v-155h-647z" />
    <glyph glyph-name="Ibreve" unicode="&#x12c;" horiz-adv-x="657" 
d="M538 1365v-1365h-419v1365h419zM516 1816h176c-23.333 -102 -69 -179.833 -137 -233.5s-143.333 -80.5 -226 -80.5c-81.333 0 -156 25.667 -224 77s-115 130.333 -141 237h176c46 -94.667 109.333 -142 190 -142c81.333 0 143.333 47.333 186 142z" />
    <glyph glyph-name="ibreve" unicode="&#x12d;" horiz-adv-x="609" 
d="M504 1017v-1017h-399v1017h399zM496 1495h176c-23.333 -102 -69 -179.833 -137 -233.5s-143.333 -80.5 -226 -80.5c-81.333 0 -156 25.667 -224 77s-115 130.333 -141 237h176c46 -94.667 109.333 -142 190 -142c81.333 0 143.333 47.333 186 142z" />
    <glyph glyph-name="Iogonek" unicode="&#x12e;" horiz-adv-x="657" 
d="M538 0c-93.333 -52 -139.999 -109.001 -139.999 -171.001c0 -62.667 37 -94 111 -94c28 0 60 6.33301 96 19l21 -90c-56.667 -26.667 -120.334 -40 -191.001 -40c-80 0 -137.5 16.167 -172.5 48.5s-52.5 70.833 -52.5 115.5c0 84.667 57 155.334 171 212.001h-262v1365
h419v-1365z" />
    <glyph glyph-name="iogonek" unicode="&#x12f;" horiz-adv-x="609" 
d="M504 1408v-316h-399v316h399zM504 0c-90 -50 -135 -104.668 -135 -164.001c0 -60 35.667 -90 107 -90c27.333 0 58 6 92 18l20 -85c-55.333 -26.667 -116.333 -40 -183 -40c-76.667 0 -132 15.5 -166 46.5s-51 68.167 -51 111.5c0 80.667 55 148.334 165 203.001h-248
v1017h399v-1017z" />
    <glyph glyph-name="Idotaccent" unicode="&#x130;" horiz-adv-x="657" 
d="M538 1365v-1365h-419v1365h419zM329 1508c-37.333 0 -69.5 13.333 -96.5 40s-40.5 58.667 -40.5 96s13.333 69.166 40 95.499s58.667 39.5 96 39.5c38 0 70.333 -13.167 97 -39.5s40 -58.166 40 -95.499c0 -38 -13.333 -70.167 -40 -96.5s-58.667 -39.5 -96 -39.5z" />
    <glyph glyph-name="dotlessi" unicode="&#x131;" horiz-adv-x="609" 
d="M504 1017v-1017h-399v1017h399z" />
    <glyph glyph-name="IJ" unicode="&#x132;" horiz-adv-x="1502" 
d="M538 1365v-1365h-419v1365h419zM1397 1365v-860.003c0 -131.333 -11.833 -231.666 -35.5 -300.999s-69.834 -124.166 -138.501 -164.499s-161.667 -60.5 -279 -60.5c-103.333 0 -196.666 11 -279.999 33v326c58 -16.667 112.333 -25 163 -25
c60 0 102.833 13.833 128.5 41.5s38.5 77.834 38.5 150.501v860h403z" />
    <glyph glyph-name="ij" unicode="&#x133;" horiz-adv-x="1213" 
d="M504 1406v-314h-399v314h399zM1108 1406v-314h-399v314h399zM504 1017v-1017h-399v1017h399zM1108 1017l-0.00195312 -957c0 -96.667 -8.66699 -171.667 -26 -225s-55.166 -98.333 -113.499 -135s-141.166 -55 -248.499 -55c-70.667 0 -138.667 6.33301 -204 19v291
c30 -12.667 59.333 -19 88 -19c70 0 105 41.333 105 124v957h399z" />
    <glyph glyph-name="Jcircumflex" unicode="&#x134;" horiz-adv-x="852" 
d="M747 1365l-0.000976562 -860.001c0 -132 -11.833 -232.5 -35.5 -301.5s-69.834 -123.667 -138.501 -164s-161.667 -60.5 -279 -60.5c-103.333 0 -196.666 11 -279.999 33v326c58.667 -16.667 113.334 -25 164.001 -25c60 0 102.667 13.833 128 41.5s38 77.834 38 150.501
v860h403zM938.999 1516l-232 -21l-170 130l-169 -130l-232 21l401 318z" />
    <glyph glyph-name="jcircumflex" unicode="&#x135;" horiz-adv-x="609" 
d="M706 1195l-232 -21l-170 130l-169 -130l-232 21l401 318zM504 1017v-956.999c0 -96 -8.5 -170.833 -25.5 -224.5s-54.667 -98.834 -113 -135.501s-141.166 -55 -248.499 -55c-70.667 0 -138.667 6.33301 -204 19v291c29.333 -12.667 58.666 -19 87.999 -19
c70 0 105 41.333 105 124v957h398z" />
    <glyph glyph-name="Kcedilla" unicode="&#x136;" horiz-adv-x="1343" 
d="M1350 0h-459l-236 516l-141 -201v-315h-395v1365h395v-564l377 564h376l-345 -499zM815 -120l-141 -404h-107l25 404h223z" />
    <glyph glyph-name="kcedilla" unicode="&#x137;" horiz-adv-x="1175" 
d="M1156 1017l-307 -350.001l342 -667h-412l-191 407l-109 -127v-280h-374v1365h374v-551c0 -15.333 -1 -76.666 -3 -183.999c24 34 48.333 65 73 93l255 294h352zM742 -116.001l-141 -404h-107l25 404h223z" />
    <glyph glyph-name="kgreenlandic" unicode="&#x138;" horiz-adv-x="1175" 
d="M1156 1017l-307 -350.001l342 -667h-412l-191 407l-109 -127v-280h-374v1017h374v-203c0 -15.333 -1 -76.666 -3 -183.999c24 34 48.333 65 73 93l255 294h352z" />
    <glyph glyph-name="Lacute" unicode="&#x139;" horiz-adv-x="1103" 
d="M1076 335v-335h-957v1365h419v-1030h538zM161 1619l457 224l73 -195l-478 -166z" />
    <glyph glyph-name="lacute" unicode="&#x13a;" horiz-adv-x="603" 
d="M498 1365v-1365h-393v1365h393zM70 1619l457 224l73 -195l-478 -166z" />
    <glyph glyph-name="Lcedilla" unicode="&#x13b;" horiz-adv-x="1103" 
d="M1076 335v-335h-957v1365h419v-1030h538zM722 -120l-141 -404h-107l25 404h223z" />
    <glyph glyph-name="lcedilla" unicode="&#x13c;" horiz-adv-x="603" 
d="M498 1365v-1365h-393v1365h393zM424 -116l-141 -404h-107l25 404h223z" />
    <glyph glyph-name="Lcaron" unicode="&#x13d;" horiz-adv-x="1103" 
d="M1076 335v-335h-957v1365h419v-1030h538zM951 1363l-141 -421h-107l24 421h224z" />
    <glyph glyph-name="lcaron" unicode="&#x13e;" horiz-adv-x="603" 
d="M498 1365v-1365h-393v1365h393zM858 1365l-141 -421h-107l24 421h224z" />
    <glyph glyph-name="Ldot" unicode="&#x13f;" horiz-adv-x="1103" 
d="M1076 335v-335h-957v1365h419v-1030h538zM1070 885v-365h-380v365h380z" />
    <glyph glyph-name="ldot" unicode="&#x140;" horiz-adv-x="982" 
d="M498 1365v-1365h-393v1365h393zM983 885v-365h-380v365h380z" />
    <glyph glyph-name="Lslash" unicode="&#x141;" horiz-adv-x="1103" 
d="M1076 333v-333h-961v463l-108 -106v243l108 105v660h419v-398l190 173v-242l-190 -174v-391h542z" />
    <glyph glyph-name="lslash" unicode="&#x142;" horiz-adv-x="642" 
d="M635 994v-210l-117 -92v-692h-394v503l-117 -93v210l117 93v652h394v-463z" />
    <glyph glyph-name="Nacute" unicode="&#x143;" horiz-adv-x="1405" 
d="M1286 0l-341 -0.000976562l-374 603c-48 77.333 -96.333 171.333 -145 282c22 -88 33 -162.667 33 -224v-661h-340v1365h396l318 -500c63.333 -99.333 111.333 -186.666 144 -261.999c-21.333 116.667 -32 236 -32 358v404h341v-1365zM520 1619l457 224l73 -195
l-478 -166z" />
    <glyph glyph-name="nacute" unicode="&#x144;" horiz-adv-x="1203" 
d="M1098 0l-399.001 -0.000976562v640c0 52.667 -8.16699 86.334 -24.5 101.001s-36.833 22 -61.5 22c-72.667 0 -109 -50.667 -109 -152v-611h-399v1017h370v-144c54.667 110 152.334 165 293.001 165c74 0 136.5 -14.167 187.5 -42.5s87.5 -65 109.5 -110
s33 -123.167 33 -234.5v-651zM380.999 1298l457 224l73 -195l-478 -166z" />
    <glyph glyph-name="Ncedilla" unicode="&#x145;" horiz-adv-x="1405" 
d="M1286 0l-341 -0.000976562l-374 603c-48 77.333 -96.333 171.333 -145 282c22 -88 33 -162.667 33 -224v-661h-340v1365h396l318 -500c63.333 -99.333 111.333 -186.666 144 -261.999c-21.333 116.667 -32 236 -32 358v404h341v-1365zM842 -120.001l-141 -404h-107
l25 404h223z" />
    <glyph glyph-name="ncedilla" unicode="&#x146;" horiz-adv-x="1203" 
d="M1098 0l-399.001 -0.000976562v640c0 52.667 -8.16699 86.334 -24.5 101.001s-36.833 22 -61.5 22c-72.667 0 -109 -50.667 -109 -152v-611h-399v1017h370v-144c54.667 110 152.334 165 293.001 165c74 0 136.5 -14.167 187.5 -42.5s87.5 -65 109.5 -110
s33 -123.167 33 -234.5v-651zM717.999 -116.001l-141 -404h-107l25 404h223z" />
    <glyph glyph-name="Ncaron" unicode="&#x147;" horiz-adv-x="1405" 
d="M1286 0l-341 -0.000976562l-374 603c-48 77.333 -96.333 171.333 -145 282c22 -88 33 -162.667 33 -224v-661h-340v1365h396l318 -500c63.333 -99.333 111.333 -186.666 144 -261.999c-21.333 116.667 -32 236 -32 358v404h341v-1365zM301 1800l232 20l169 -130l170 130
l232 -20l-402 -318z" />
    <glyph glyph-name="ncaron" unicode="&#x148;" horiz-adv-x="1203" 
d="M1098 0l-399.001 -0.000976562v640c0 52.667 -8.16699 86.334 -24.5 101.001s-36.833 22 -61.5 22c-72.667 0 -109 -50.667 -109 -152v-611h-399v1017h370v-144c54.667 110 152.334 165 293.001 165c74 0 136.5 -14.167 187.5 -42.5s87.5 -65 109.5 -110
s33 -123.167 33 -234.5v-651zM195.999 1479l232 20l169 -130l170 130l232 -20l-402 -318z" />
    <glyph glyph-name="napostrophe" unicode="&#x149;" horiz-adv-x="1657" 
d="M1552 0l-399.001 -0.000976562v640c0 52.667 -8.16699 86.334 -24.5 101.001s-36.833 22 -61.5 22c-72.667 0 -109 -50.667 -109 -152v-611h-399v1017h370v-144c54.667 110 152.334 165 293.001 165c74 0 136.5 -14.167 187.5 -42.5s87.5 -65 109.5 -110
s33 -123.167 33 -234.5v-651zM446.999 1365v-287l-187 -303h-158l138 272h-138v318h345z" />
    <glyph glyph-name="Eng" unicode="&#x14a;" horiz-adv-x="1395" 
d="M119 1365h381v-193c73.333 142.667 204.666 214 393.999 214c56 0 110.833 -10.167 164.5 -30.5s96.834 -50.5 129.501 -90.5s55.667 -81.5 69 -124.5s20 -132.167 20 -267.5v-739c0 -116 -9.83301 -205.667 -29.5 -269s-61.167 -115.833 -124.5 -157.5
s-150.666 -62.5 -261.999 -62.5c-60 0 -117.667 8.66699 -173 26v269h42c46 0 78.833 12.833 98.5 38.5s29.5 68.5 29.5 128.5v775c0 83.333 -13.833 136.5 -41.5 159.5s-58.834 34.5 -93.501 34.5c-123.333 0 -185 -77.667 -185 -233v-843h-419v1365z" />
    <glyph glyph-name="eng" unicode="&#x14b;" horiz-adv-x="1203" 
d="M105 1017l370.001 -0.000976562v-144c54.667 110 152.334 165 293.001 165c74 0 136.5 -14.167 187.5 -42.5s87.5 -65 109.5 -110s33 -123.167 33 -234.5v-591c0 -96 -8 -171 -24 -225s-50.833 -99.167 -104.5 -135.5s-128.834 -54.5 -225.501 -54.5
c-58.667 0 -115 6.33301 -169 19v277c19.333 -3.33301 35.666 -5 48.999 -5c50 0 75 41.333 75 124v580c0 52.667 -8.16699 86.334 -24.5 101.001s-36.833 22 -61.5 22c-72.667 0 -109 -50.667 -109 -152v-611h-399v1017z" />
    <glyph glyph-name="Omacron" unicode="&#x14c;" horiz-adv-x="1415" 
d="M709 -21c-192 0 -348.499 63.668 -469.499 191.001s-181.5 297.666 -181.5 510.999c0 204 57.833 372.5 173.5 505.5s276.167 199.5 481.5 199.5c190 0 344.833 -62.667 464.5 -188s179.5 -292.666 179.5 -501.999c0 -216.667 -60.333 -390.334 -181 -521.001
s-276.334 -196 -467.001 -196zM707.001 289.001c70.667 0 121.5 30.833 152.5 92.5s46.5 174.5 46.5 338.5c0 237.333 -63.667 356 -191 356c-137.333 0 -206 -135.333 -206 -406c0 -254 66 -381 198 -381zM384.001 1547v155h647v-155h-647z" />
    <glyph glyph-name="omacron" unicode="&#x14d;" horiz-adv-x="1217" 
d="M602 -21c-168.667 0 -302.667 52.5 -402 157.5s-149 228.167 -149 369.5c0 152 51.833 278.667 155.5 380s238.5 152 404.5 152c167.333 0 301.833 -50 403.5 -150s152.5 -225.333 152.5 -376c0 -152 -51.5 -278.833 -154.5 -380.5s-239.833 -152.5 -410.5 -152.5z
M608 221c62 0 99.833 32.167 113.5 96.5s20.5 131.5 20.5 201.5c0 95.333 -9.66699 164 -29 206s-54 63 -104 63c-46 0 -79.667 -21.667 -101 -65s-32 -114.666 -32 -213.999c0 -116.667 11 -193.834 33 -231.501s55 -56.5 99 -56.5zM285 1208v155h647v-155h-647z" />
    <glyph glyph-name="Obreve" unicode="&#x14e;" horiz-adv-x="1415" 
d="M709 -21c-192 0 -348.499 63.668 -469.499 191.001s-181.5 297.666 -181.5 510.999c0 204 57.833 372.5 173.5 505.5s276.167 199.5 481.5 199.5c190 0 344.833 -62.667 464.5 -188s179.5 -292.666 179.5 -501.999c0 -216.667 -60.333 -390.334 -181 -521.001
s-276.334 -196 -467.001 -196zM707.001 289.001c70.667 0 121.5 30.833 152.5 92.5s46.5 174.5 46.5 338.5c0 237.333 -63.667 356 -191 356c-137.333 0 -206 -135.333 -206 -406c0 -254 66 -381 198 -381zM895.001 1816h176c-23.333 -102 -69 -179.833 -137 -233.5
s-143.333 -80.5 -226 -80.5c-81.333 0 -156 25.667 -224 77s-115 130.333 -141 237h176c46 -94.667 109.333 -142 190 -142c81.333 0 143.333 47.333 186 142z" />
    <glyph glyph-name="obreve" unicode="&#x14f;" horiz-adv-x="1217" 
d="M602 -21c-168.667 0 -302.667 52.5 -402 157.5s-149 228.167 -149 369.5c0 152 51.833 278.667 155.5 380s238.5 152 404.5 152c167.333 0 301.833 -50 403.5 -150s152.5 -225.333 152.5 -376c0 -152 -51.5 -278.833 -154.5 -380.5s-239.833 -152.5 -410.5 -152.5z
M608 221c62 0 99.833 32.167 113.5 96.5s20.5 131.5 20.5 201.5c0 95.333 -9.66699 164 -29 206s-54 63 -104 63c-46 0 -79.667 -21.667 -101 -65s-32 -114.666 -32 -213.999c0 -116.667 11 -193.834 33 -231.501s55 -56.5 99 -56.5zM797 1495h176
c-23.333 -102 -69 -179.833 -137 -233.5s-143.333 -80.5 -226 -80.5c-81.333 0 -156 25.667 -224 77s-115 130.333 -141 237h176c46 -94.667 109.333 -142 190 -142c81.333 0 143.333 47.333 186 142z" />
    <glyph glyph-name="Odblacute" unicode="&#x150;" horiz-adv-x="1415" 
d="M709 -21c-192 0 -348.499 63.668 -469.499 191.001s-181.5 297.666 -181.5 510.999c0 204 57.833 372.5 173.5 505.5s276.167 199.5 481.5 199.5c190 0 344.833 -62.667 464.5 -188s179.5 -292.666 179.5 -501.999c0 -216.667 -60.333 -390.334 -181 -521.001
s-276.334 -196 -467.001 -196zM707.001 289.001c70.667 0 121.5 30.833 152.5 92.5s46.5 174.5 46.5 338.5c0 237.333 -63.667 356 -191 356c-137.333 0 -206 -135.333 -206 -406c0 -254 66 -381 198 -381zM796.001 1598l324 259l97 -164l-353 -211zM388.001 1598l323 259
l98 -164l-354 -211z" />
    <glyph glyph-name="odblacute" unicode="&#x151;" horiz-adv-x="1217" 
d="M602 -21c-168.667 0 -302.667 52.5 -402 157.5s-149 228.167 -149 369.5c0 152 51.833 278.667 155.5 380s238.5 152 404.5 152c167.333 0 301.833 -50 403.5 -150s152.5 -225.333 152.5 -376c0 -152 -51.5 -278.833 -154.5 -380.5s-239.833 -152.5 -410.5 -152.5z
M608 221c62 0 99.833 32.167 113.5 96.5s20.5 131.5 20.5 201.5c0 95.333 -9.66699 164 -29 206s-54 63 -104 63c-46 0 -79.667 -21.667 -101 -65s-32 -114.666 -32 -213.999c0 -116.667 11 -193.834 33 -231.501s55 -56.5 99 -56.5zM698 1277l324 259l97 -164l-353 -211z
M290 1277l323 259l98 -164l-354 -211z" />
    <glyph glyph-name="OE" unicode="&#x152;" horiz-adv-x="1945" 
d="M1897 0h-996.002c-69.333 -14 -133.666 -21 -192.999 -21c-194 0 -350.833 64 -470.5 192s-179.5 298 -179.5 510c0 196 55.833 362.5 167.5 499.5s273.167 205.5 484.5 205.5c64.667 0 128.334 -7 191.001 -21h996v-315h-618v-198h497v-303h-497v-223h618v-326z
M711.998 1084c-139.333 0 -208.999 -134.333 -208.999 -403c0 -125.333 14.167 -222 42.5 -290s83.166 -102 164.499 -102c66 0 114.5 27.167 145.5 81.5s46.5 158.833 46.5 313.5c0 160.667 -16.5 267.5 -49.5 320.5s-79.833 79.5 -140.5 79.5z" />
    <glyph glyph-name="oe" unicode="&#x153;" horiz-adv-x="1733" 
d="M1680 429l-624 -0.000976562c3.33301 -133.333 50.333 -200 141 -200c34 0 65.167 11.167 93.5 33.5s45.166 55.833 50.499 100.5l339 -24c-22.667 -109.333 -78.5 -196.666 -167.5 -261.999s-193.833 -98 -314.5 -98c-122 0 -226.667 31.333 -314 94
c-98.667 -62.667 -203.667 -94 -315 -94c-108 0 -200.5 23.833 -277.5 71.5s-136.333 112.167 -178 193.5s-62.5 166 -62.5 254c0 150 47.667 277.5 143 382.5s221 157.5 377 157.5c112 0 216.333 -30.667 313 -92c88.667 61.333 188.334 92 299.001 92
c146 0 265.667 -48.333 359 -145s140 -232 140 -406c0 -12 -0.666992 -31.333 -2 -58zM1320 627.999c0.666992 10.667 1 19.333 1 26c0 40 -11.167 74.667 -33.5 104s-53.833 44 -94.5 44c-86.667 0 -133 -58 -139 -174h266zM576 220.998c42 0 72.833 17.5 92.5 52.5
s29.5 115.833 29.5 242.5c0 108 -9.16699 180.333 -27.5 217s-49.5 55 -93.5 55c-48 0 -81.167 -23.5 -99.5 -70.5s-27.5 -120.167 -27.5 -219.5c0 -114 10.5 -188.667 31.5 -224s52.5 -53 94.5 -53z" />
    <glyph glyph-name="Racute" unicode="&#x154;" horiz-adv-x="1413" 
d="M1334 0l-465 0.000976562l-199 522h-132v-522h-419v1365h713c157.333 0 279.5 -36.833 366.5 -110.5s130.5 -170.834 130.5 -291.501c0 -78.667 -16 -148.167 -48 -208.5s-96.667 -113.5 -194 -159.5zM538 814.001h179c52.667 0 95 11 127 33s48 54.333 48 97
c0 87.333 -53.667 131 -161 131h-193v-261zM461 1619l457 224l73 -195l-478 -166z" />
    <glyph glyph-name="racute" unicode="&#x155;" horiz-adv-x="781" 
d="M487 0h-382v1017h332v-210c38 152.667 126.333 229 265 229c14 0 33.333 -1.33301 58 -4v-355c-28 6.66699 -53 10 -75 10c-132 0 -198 -73.667 -198 -221v-466zM225 1298l457 224l73 -195l-478 -166z" />
    <glyph glyph-name="Rcedilla" unicode="&#x156;" horiz-adv-x="1413" 
d="M1334 0l-465 0.000976562l-199 522h-132v-522h-419v1365h713c157.333 0 279.5 -36.833 366.5 -110.5s130.5 -170.834 130.5 -291.501c0 -78.667 -16 -148.167 -48 -208.5s-96.667 -113.5 -194 -159.5zM538 814.001h179c52.667 0 95 11 127 33s48 54.333 48 97
c0 87.333 -53.667 131 -161 131h-193v-261zM839 -115.999l-141 -404h-107l25 404h223z" />
    <glyph glyph-name="rcedilla" unicode="&#x157;" horiz-adv-x="781" 
d="M487 0h-382v1017h332v-210c38 152.667 126.333 229 265 229c14 0 33.333 -1.33301 58 -4v-355c-28 6.66699 -53 10 -75 10c-132 0 -198 -73.667 -198 -221v-466zM421 -116l-141 -404h-107l25 404h223z" />
    <glyph glyph-name="Rcaron" unicode="&#x158;" horiz-adv-x="1413" 
d="M1334 0l-465 0.000976562l-199 522h-132v-522h-419v1365h713c157.333 0 279.5 -36.833 366.5 -110.5s130.5 -170.834 130.5 -291.501c0 -78.667 -16 -148.167 -48 -208.5s-96.667 -113.5 -194 -159.5zM538 814.001h179c52.667 0 95 11 127 33s48 54.333 48 97
c0 87.333 -53.667 131 -161 131h-193v-261zM261 1800l232 20l169 -130l170 130l232 -20l-402 -318z" />
    <glyph glyph-name="rcaron" unicode="&#x159;" horiz-adv-x="781" 
d="M487 0h-382v1017h332v-210c38 152.667 126.333 229 265 229c14 0 33.333 -1.33301 58 -4v-355c-28 6.66699 -53 10 -75 10c-132 0 -198 -73.667 -198 -221v-466zM32 1479l232 20l169 -130l170 130l232 -20l-402 -318z" />
    <glyph glyph-name="Sacute" unicode="&#x15a;" horiz-adv-x="1244" 
d="M-22 395l389 70.001c32.667 -110 116.667 -165 252 -165c105.333 0 158 28 158 84c0 29.333 -12.167 52.166 -36.5 68.499s-67.833 30.833 -130.5 43.5c-239.333 46 -393 106 -461 180s-102 161 -102 261c0 128.667 48.833 235.667 146.5 321s238.167 128 421.5 128
c278 0 461.667 -111.667 551 -335l-347 -105c-36 91.333 -109 137 -219 137c-91.333 0 -137 -28.333 -137 -85c0 -25.333 10.333 -45 31 -59s60.667 -27.333 120 -40c163.333 -34.667 279.333 -65.334 348 -92.001s126 -72.167 172 -136.5s69 -140.166 69 -227.499
c0 -138 -56 -249.833 -168 -335.5s-259 -128.5 -441 -128.5c-332.667 0 -538 138.667 -616 416zM399 1619l457 224l73 -195l-478 -166z" />
    <glyph glyph-name="sacute" unicode="&#x15b;" horiz-adv-x="1085" 
d="M15 288l314.998 42.9971c18 -73.333 89.333 -110 214 -110c103.333 0 155 20 155 60c0 17.333 -10 30.833 -30 40.5s-67.333 19.5 -142 29.5c-206.667 28.667 -335.667 73.5 -387 134.5s-77 128.833 -77 203.5c0 104 43.333 188.167 130 252.5s200.334 96.5 341.001 96.5
c246.667 0 404 -89 472 -267l-302 -57c-28 60 -87 90 -177 90c-42.667 0 -74.5 -5.83301 -95.5 -17.5s-31.5 -23.167 -31.5 -34.5c0 -33.333 32 -53.666 96 -60.999c166.667 -18.667 279.667 -37.667 339 -57s110 -54.666 152 -105.999s63 -113.333 63 -186
c0 -111.333 -46.5 -199.666 -139.5 -264.999s-221.167 -98 -384.5 -98c-275.333 0 -445.666 103 -510.999 309zM343.998 1298l457 224l73 -195l-478 -166z" />
    <glyph glyph-name="Scircumflex" unicode="&#x15c;" horiz-adv-x="1244" 
d="M-22 395l389 70.001c32.667 -110 116.667 -165 252 -165c105.333 0 158 28 158 84c0 29.333 -12.167 52.166 -36.5 68.499s-67.833 30.833 -130.5 43.5c-239.333 46 -393 106 -461 180s-102 161 -102 261c0 128.667 48.833 235.667 146.5 321s238.167 128 421.5 128
c278 0 461.667 -111.667 551 -335l-347 -105c-36 91.333 -109 137 -219 137c-91.333 0 -137 -28.333 -137 -85c0 -25.333 10.333 -45 31 -59s60.667 -27.333 120 -40c163.333 -34.667 279.333 -65.334 348 -92.001s126 -72.167 172 -136.5s69 -140.166 69 -227.499
c0 -138 -56 -249.833 -168 -335.5s-259 -128.5 -441 -128.5c-332.667 0 -538 138.667 -616 416zM1007 1516l-232 -21l-170 130l-169 -130l-232 21l401 318z" />
    <glyph glyph-name="scircumflex" unicode="&#x15d;" horiz-adv-x="1085" 
d="M15 288l314.998 42.9971c18 -73.333 89.333 -110 214 -110c103.333 0 155 20 155 60c0 17.333 -10 30.833 -30 40.5s-67.333 19.5 -142 29.5c-206.667 28.667 -335.667 73.5 -387 134.5s-77 128.833 -77 203.5c0 104 43.333 188.167 130 252.5s200.334 96.5 341.001 96.5
c246.667 0 404 -89 472 -267l-302 -57c-28 60 -87 90 -177 90c-42.667 0 -74.5 -5.83301 -95.5 -17.5s-31.5 -23.167 -31.5 -34.5c0 -33.333 32 -53.666 96 -60.999c166.667 -18.667 279.667 -37.667 339 -57s110 -54.666 152 -105.999s63 -113.333 63 -186
c0 -111.333 -46.5 -199.666 -139.5 -264.999s-221.167 -98 -384.5 -98c-275.333 0 -445.666 103 -510.999 309zM944.998 1195l-232 -21l-170 130l-169 -130l-232 21l401 318z" />
    <glyph glyph-name="Scedilla" unicode="&#x15e;" horiz-adv-x="1244" 
d="M630 -18l-30.001 -86.998c14 1.33301 26 2 36 2c46.667 0 84.334 -15.167 113.001 -45.5s43 -68.166 43 -113.499c0 -56 -21 -99.333 -63 -130s-96.333 -46 -163 -46c-80.667 0 -159.667 23.333 -237 70l39 85c56.667 -31.333 111 -47 163 -47c56 0 84 22.667 84 68
c0 29.333 -14.333 50.333 -43 63s-59 19 -91 19c-6.66699 0 -16.334 -0.333008 -29.001 -1l62 163c-293.333 25.333 -472 163 -536 413l390 70c33.333 -110 117 -165 251 -165c105.333 0 158 28 158 84c0 29.333 -12.167 52.166 -36.5 68.499s-67.833 30.833 -130.5 43.5
c-239.333 46 -393 106 -461 180s-102 161 -102 261c0 128.667 48.833 235.667 146.5 321s238.167 128 421.5 128c278 0 461.667 -111.667 551 -335l-347 -105c-36 91.333 -109 137 -219 137c-91.333 0 -137 -28.333 -137 -85c0 -25.333 10.333 -45 31 -59
s60.667 -27.333 120 -40c161.333 -34 276.833 -64.333 346.5 -91s127.5 -72.334 173.5 -137.001s69 -140.334 69 -227.001c0 -130.667 -51.167 -238.667 -153.5 -324s-242.166 -131.333 -419.499 -138z" />
    <glyph glyph-name="scedilla" unicode="&#x15f;" horiz-adv-x="1085" 
d="M581 -19l-30.002 -81.001c14 0.666992 25.667 1 35 1c44.667 0 80.834 -14.5 108.501 -43.5s41.5 -65.167 41.5 -108.5c0 -54 -20 -95.667 -60 -125s-92 -44 -156 -44c-78.667 0 -154.667 22 -228 66l38 82c55.333 -30 107.333 -45 156 -45c53.333 0 80 21.667 80 65
c0 52.667 -43 79 -129 79c-6 0 -15.333 -0.333008 -28 -1l59 155c-242 15.333 -393 117.666 -453 306.999l315 43c18 -73.333 89.333 -110 214 -110c103.333 0 155 20 155 60c0 17.333 -10 30.833 -30 40.5s-67.333 19.5 -142 29.5c-186 25.333 -309.833 65 -371.5 119
s-92.5 127 -92.5 219c0 104 43.333 188.167 130 252.5s200.334 96.5 341.001 96.5c246.667 0 404 -89 472 -267l-302 -57c-28 60 -87 90 -177 90c-38.667 0 -69.5 -5.33301 -92.5 -16s-34.5 -22.667 -34.5 -36c0 -33.333 32 -53.666 96 -60.999
c166.667 -18.667 279.667 -37.667 339 -57s110 -54.666 152 -105.999s63 -113.333 63 -186c0 -102 -39.833 -185.5 -119.5 -250.5s-196.167 -101.833 -349.5 -110.5z" />
    <glyph glyph-name="Scaron" unicode="&#x160;" horiz-adv-x="1244" 
d="M-22 395l389 70.001c32.667 -110 116.667 -165 252 -165c105.333 0 158 28 158 84c0 29.333 -12.167 52.166 -36.5 68.499s-67.833 30.833 -130.5 43.5c-239.333 46 -393 106 -461 180s-102 161 -102 261c0 128.667 48.833 235.667 146.5 321s238.167 128 421.5 128
c278 0 461.667 -111.667 551 -335l-347 -105c-36 91.333 -109 137 -219 137c-91.333 0 -137 -28.333 -137 -85c0 -25.333 10.333 -45 31 -59s60.667 -27.333 120 -40c163.333 -34.667 279.333 -65.334 348 -92.001s126 -72.167 172 -136.5s69 -140.166 69 -227.499
c0 -138 -56 -249.833 -168 -335.5s-259 -128.5 -441 -128.5c-332.667 0 -538 138.667 -616 416zM204 1800l232 20l169 -130l170 130l232 -20l-402 -318z" />
    <glyph glyph-name="scaron" unicode="&#x161;" horiz-adv-x="1085" 
d="M15 288l314.998 42.9971c18 -73.333 89.333 -110 214 -110c103.333 0 155 20 155 60c0 17.333 -10 30.833 -30 40.5s-67.333 19.5 -142 29.5c-206.667 28.667 -335.667 73.5 -387 134.5s-77 128.833 -77 203.5c0 104 43.333 188.167 130 252.5s200.334 96.5 341.001 96.5
c246.667 0 404 -89 472 -267l-302 -57c-28 60 -87 90 -177 90c-42.667 0 -74.5 -5.83301 -95.5 -17.5s-31.5 -23.167 -31.5 -34.5c0 -33.333 32 -53.666 96 -60.999c166.667 -18.667 279.667 -37.667 339 -57s110 -54.666 152 -105.999s63 -113.333 63 -186
c0 -111.333 -46.5 -199.666 -139.5 -264.999s-221.167 -98 -384.5 -98c-275.333 0 -445.666 103 -510.999 309zM141.998 1479l232 20l169 -130l170 130l232 -20l-402 -318z" />
    <glyph glyph-name="Tcedilla" unicode="&#x162;" horiz-adv-x="963" 
d="M680 1038v-1038h-397v1038h-283v327h963v-327h-283zM598 -120l-141 -404h-107l25 404h223z" />
    <glyph glyph-name="tcedilla" unicode="&#x163;" horiz-adv-x="761" 
d="M733 1017l0.000976562 -259h-203v-375c0 -51.333 9.66699 -81.833 29 -91.5s39.333 -14.5 60 -14.5c32 0 70 5.66699 114 17v-284c-78.667 -15.333 -156 -23 -232 -23c-122.667 0 -212.834 26.333 -270.501 79s-86.5 136.667 -86.5 252l1 119v321h-152v259h152l6 331
l379 6v-337h203zM581.001 -116l-141 -404h-107l25 404h223z" />
    <glyph glyph-name="Tcaron" unicode="&#x164;" horiz-adv-x="963" 
d="M680 1038v-1038h-397v1038h-283v327h963v-327h-283zM80 1800l232 20l169 -130l170 130l232 -20l-402 -318z" />
    <glyph glyph-name="tcaron" unicode="&#x165;" horiz-adv-x="897" 
d="M733 1017l0.000976562 -259h-203v-375c0 -51.333 9.66699 -81.833 29 -91.5s39.333 -14.5 60 -14.5c32 0 70 5.66699 114 17v-284c-78.667 -15.333 -156 -23 -232 -23c-122.667 0 -212.834 26.333 -270.501 79s-86.5 136.667 -86.5 252l1 119v321h-152v259h152l6 331
l379 6v-337h203zM897.001 1548l-141 -421h-107l24 421h224z" />
    <glyph glyph-name="Tbar" unicode="&#x166;" horiz-adv-x="963" 
d="M901 858v-200h-221v-658h-397v658h-222v200h222v180h-283v327h963v-327h-283v-180h221z" />
    <glyph glyph-name="tbar" unicode="&#x167;" horiz-adv-x="761" 
d="M717 635l0.000976562 -178h-187v-74c0 -51.333 9.66699 -81.833 29 -91.5s39.333 -14.5 60 -14.5c32 0 70 5.66699 114 17v-284c-78.667 -15.333 -156 -23 -232 -23c-122.667 0 -212.834 26.333 -270.501 79s-86.5 136.667 -86.5 252l1 119v20h-136v178h136v123h-152v259
h171l26 325l348 12l-8 -337h203v-259h-203v-123h187z" />
    <glyph glyph-name="Utilde" unicode="&#x168;" horiz-adv-x="1331" 
d="M1226 1365v-903.999c0 -171.333 -50.833 -294.5 -152.5 -369.5s-234.167 -112.5 -397.5 -112.5c-172 0 -310.167 36 -414.5 108s-156.5 189.333 -156.5 352v926h426v-877c0 -65.333 13.833 -113 41.5 -143s71.834 -45 132.501 -45c50.667 0 92.167 10.833 124.5 32.5
s51.666 46.167 57.999 73.5s9.5 80.666 9.5 159.999v799h329zM974 1754l99.9971 -117c-81.333 -85.333 -162.666 -128 -243.999 -128c-41.333 0 -93.666 16.333 -156.999 49c-42.667 22 -76 33 -100 33c-46.667 0 -92 -26 -136 -78l-98 117
c80.667 85.333 158.334 128 233.001 128c38.667 0 84 -13.333 136 -40c56 -28.667 95.333 -43 118 -43c42.667 0 92 26.333 148 79z" />
    <glyph glyph-name="utilde" unicode="&#x169;" horiz-adv-x="1199" 
d="M1094 1017v-1017h-369v167c-54 -125.333 -159.333 -188 -316 -188c-96.667 0 -171.5 26.833 -224.5 80.5s-79.5 130.5 -79.5 230.5v727h399v-640c0 -40 5.5 -68.167 16.5 -84.5s32.5 -24.5 64.5 -24.5c34 0 61.667 12.167 83 36.5s32 58.5 32 102.5v610h394zM867 1433
l99.9971 -117c-81.333 -85.333 -162.666 -128 -243.999 -128c-41.333 0 -93.666 16.333 -156.999 49c-42.667 22 -76 33 -100 33c-46.667 0 -92 -26 -136 -78l-98 117c80.667 85.333 158.334 128 233.001 128c38.667 0 84 -13.333 136 -40c56 -28.667 95.333 -43 118 -43
c42.667 0 92 26.333 148 79z" />
    <glyph glyph-name="Umacron" unicode="&#x16a;" horiz-adv-x="1331" 
d="M1226 1365v-903.999c0 -171.333 -50.833 -294.5 -152.5 -369.5s-234.167 -112.5 -397.5 -112.5c-172 0 -310.167 36 -414.5 108s-156.5 189.333 -156.5 352v926h426v-877c0 -65.333 13.833 -113 41.5 -143s71.834 -45 132.501 -45c50.667 0 92.167 10.833 124.5 32.5
s51.666 46.167 57.999 73.5s9.5 80.666 9.5 159.999v799h329zM368 1547v155h647v-155h-647z" />
    <glyph glyph-name="umacron" unicode="&#x16b;" horiz-adv-x="1199" 
d="M1094 1017v-1017h-369v167c-54 -125.333 -159.333 -188 -316 -188c-96.667 0 -171.5 26.833 -224.5 80.5s-79.5 130.5 -79.5 230.5v727h399v-640c0 -40 5.5 -68.167 16.5 -84.5s32.5 -24.5 64.5 -24.5c34 0 61.667 12.167 83 36.5s32 58.5 32 102.5v610h394zM276 1208
v155h647v-155h-647z" />
    <glyph glyph-name="Ubreve" unicode="&#x16c;" horiz-adv-x="1331" 
d="M1226 1365v-903.999c0 -171.333 -50.833 -294.5 -152.5 -369.5s-234.167 -112.5 -397.5 -112.5c-172 0 -310.167 36 -414.5 108s-156.5 189.333 -156.5 352v926h426v-877c0 -65.333 13.833 -113 41.5 -143s71.834 -45 132.501 -45c50.667 0 92.167 10.833 124.5 32.5
s51.666 46.167 57.999 73.5s9.5 80.666 9.5 159.999v799h329zM894 1816h176c-23.333 -102 -69 -179.833 -137 -233.5s-143.333 -80.5 -226 -80.5c-81.333 0 -156 25.667 -224 77s-115 130.333 -141 237h176c46 -94.667 109.333 -142 190 -142
c81.333 0 143.333 47.333 186 142z" />
    <glyph glyph-name="ubreve" unicode="&#x16d;" horiz-adv-x="1199" 
d="M1094 1017v-1017h-369v167c-54 -125.333 -159.333 -188 -316 -188c-96.667 0 -171.5 26.833 -224.5 80.5s-79.5 130.5 -79.5 230.5v727h399v-640c0 -40 5.5 -68.167 16.5 -84.5s32.5 -24.5 64.5 -24.5c34 0 61.667 12.167 83 36.5s32 58.5 32 102.5v610h394zM787 1495
h176c-23.333 -102 -69 -179.833 -137 -233.5s-143.333 -80.5 -226 -80.5c-81.333 0 -156 25.667 -224 77s-115 130.333 -141 237h176c46 -94.667 109.333 -142 190 -142c81.333 0 143.333 47.333 186 142z" />
    <glyph glyph-name="Uring" unicode="&#x16e;" horiz-adv-x="1331" 
d="M1226 1365v-903.999c0 -171.333 -50.833 -294.5 -152.5 -369.5s-234.167 -112.5 -397.5 -112.5c-172 0 -310.167 36 -414.5 108s-156.5 189.333 -156.5 352v926h426v-877c0 -65.333 13.833 -113 41.5 -143s71.834 -45 132.501 -45c50.667 0 92.167 10.833 124.5 32.5
s51.666 46.167 57.999 73.5s9.5 80.666 9.5 159.999v799h329zM692 1468c-55.333 0 -102.666 19.501 -141.999 58.501s-59 86.167 -59 141.5s19.667 102.666 59 141.999s86.666 59 141.999 59c56 0 103.667 -19.5 143 -58.5s59 -86.167 59 -141.5
c0 -56 -19.833 -103.5 -59.5 -142.5s-87.167 -58.5 -142.5 -58.5zM692 1594c20.667 0 38.5 7.33398 53.5 22.001s22.5 33 22.5 55c0 19.333 -7.5 36.333 -22.5 51s-32.833 22 -53.5 22s-38.334 -7.5 -53.001 -22.5s-22 -32.5 -22 -52.5
c0 -20.667 7.33301 -38.334 22 -53.001s32.334 -22 53.001 -22z" />
    <glyph glyph-name="uring" unicode="&#x16f;" horiz-adv-x="1199" 
d="M1094 1017v-1017h-369v167c-54 -125.333 -159.333 -188 -316 -188c-96.667 0 -171.5 26.833 -224.5 80.5s-79.5 130.5 -79.5 230.5v727h399v-640c0 -40 5.5 -68.167 16.5 -84.5s32.5 -24.5 64.5 -24.5c34 0 61.667 12.167 83 36.5s32 58.5 32 102.5v610h394zM599 1147
c-55.333 0 -102.666 19.501 -141.999 58.501s-59 86.167 -59 141.5s19.667 102.666 59 141.999s86.666 59 141.999 59c56 0 103.667 -19.5 143 -58.5s59 -86.167 59 -141.5c0 -56 -19.833 -103.5 -59.5 -142.5s-87.167 -58.5 -142.5 -58.5zM599 1273
c20.667 0 38.5 7.33398 53.5 22.001s22.5 33 22.5 55c0 19.333 -7.5 36.333 -22.5 51s-32.833 22 -53.5 22s-38.334 -7.5 -53.001 -22.5s-22 -32.5 -22 -52.5c0 -20.667 7.33301 -38.334 22 -53.001s32.334 -22 53.001 -22z" />
    <glyph glyph-name="Udblacute" unicode="&#x170;" horiz-adv-x="1331" 
d="M1226 1365v-903.999c0 -171.333 -50.833 -294.5 -152.5 -369.5s-234.167 -112.5 -397.5 -112.5c-172 0 -310.167 36 -414.5 108s-156.5 189.333 -156.5 352v926h426v-877c0 -65.333 13.833 -113 41.5 -143s71.834 -45 132.501 -45c50.667 0 92.167 10.833 124.5 32.5
s51.666 46.167 57.999 73.5s9.5 80.666 9.5 159.999v799h329zM754 1598l324 259l97 -164l-353 -211zM346 1598l323 259l98 -164l-354 -211z" />
    <glyph glyph-name="udblacute" unicode="&#x171;" horiz-adv-x="1199" 
d="M1094 1017v-1017h-369v167c-54 -125.333 -159.333 -188 -316 -188c-96.667 0 -171.5 26.833 -224.5 80.5s-79.5 130.5 -79.5 230.5v727h399v-640c0 -40 5.5 -68.167 16.5 -84.5s32.5 -24.5 64.5 -24.5c34 0 61.667 12.167 83 36.5s32 58.5 32 102.5v610h394zM668 1277
l324 259l97 -164l-353 -211zM260 1277l323 259l98 -164l-354 -211z" />
    <glyph glyph-name="Uogonek" unicode="&#x172;" horiz-adv-x="1331" 
d="M1110 -233l19.999 -88c-57.333 -27.333 -120.666 -41 -189.999 -41c-80 0 -137.667 16.167 -173 48.5s-53 70.833 -53 115.5c0 74.667 46 139.334 138 194.001c-58.667 -11.333 -116 -17 -172 -17c-175.333 0 -315 36 -419 108s-156 189.333 -156 352v926h426v-877
c0 -65.333 13.833 -113 41.5 -143s71.834 -45 132.501 -45c50.667 0 92.167 10.833 124.5 32.5s51.666 46.167 57.999 73.5s9.5 80.666 9.5 159.999v799h329v-904c0 -92 -11.833 -164.5 -35.5 -217.5s-66.167 -107.5 -127.5 -163.5c-106.667 -97.333 -160 -176 -160 -236
c0 -63.333 36.667 -95 110 -95c28 0 60.333 6 97 18z" />
    <glyph glyph-name="uogonek" unicode="&#x173;" horiz-adv-x="1199" 
d="M1094 0c-90 -50 -135 -104.668 -135 -164.001c0 -60 35.667 -90 107 -90c27.333 0 58 6 92 18l20 -85c-55.333 -26.667 -116.333 -40 -183 -40c-76.667 0 -132 15.5 -166 46.5s-51 68.167 -51 111.5c0 80.667 54.667 148.334 164 203.001h-217v167
c-54 -125.333 -159.333 -188 -316 -188c-96.667 0 -171.5 26.833 -224.5 80.5s-79.5 130.5 -79.5 230.5v727h399v-640c0 -40 5.5 -68.167 16.5 -84.5s32.5 -24.5 64.5 -24.5c34 0 61.667 12.167 83 36.5s32 58.5 32 102.5v610h394v-1017z" />
    <glyph glyph-name="Wcircumflex" unicode="&#x174;" horiz-adv-x="1843" 
d="M1829 1365l-362 -1365h-352l-191 753l-180 -753h-367l-363 1365h394l191 -787l186 787h330l202 -787l191 787h321zM1353 1516l-232 -21l-170 130l-169 -130l-232 21l401 318z" />
    <glyph glyph-name="wcircumflex" unicode="&#x175;" horiz-adv-x="1521" 
d="M1507 1017l-322 -1017h-287l-133 551l-139 -551h-284l-328 1017h392l134 -498l128 498h294l127 -498l141 498h277zM1203 1195l-232 -21l-170 130l-169 -130l-232 21l401 318z" />
    <glyph glyph-name="Ycircumflex" unicode="&#x176;" horiz-adv-x="1211" 
d="M1252 1365l-427 -787v-578h-407v578l-459 787h459l239 -449l229 449h366zM1041 1516l-232 -21l-170 130l-169 -130l-232 21l401 318z" />
    <glyph glyph-name="ycircumflex" unicode="&#x177;" horiz-adv-x="1049" 
d="M1055 1017l-399 -1102c-30.667 -83.333 -74.667 -148.5 -132 -195.5s-145.666 -70.5 -264.999 -70.5c-28.667 0 -95.334 3 -200.001 9v283c52 -8 100 -12 144 -12c114.667 0 172 25.333 172 76c0 16.667 -5.66699 39.667 -17 69l-365 943h427l168 -542l176 542h291z
M945 1195l-232 -21l-170 130l-169 -130l-232 21l401 318z" />
    <glyph glyph-name="Ydieresis" unicode="&#x178;" horiz-adv-x="1211" 
d="M1252 1365l-427 -787v-578h-407v578l-459 787h459l239 -449l229 449h366zM452 1511c-36.667 0 -67.999 12.8311 -93.999 38.498s-39 56.834 -39 93.501c0 35.333 12.833 66 38.5 92s57.167 39 94.5 39s68.666 -13.167 93.999 -39.5s38 -57.166 38 -92.499
c0 -36 -13 -66.833 -39 -92.5s-57 -38.5 -93 -38.5zM813.001 1511c-36.667 0 -68.168 13.001 -94.501 39.001s-39.5 57 -39.5 93s13 66.833 39 92.5s57.333 38.5 94 38.5s67.834 -12.833 93.501 -38.5s38.5 -56.5 38.5 -92.5c0 -36.667 -13 -67.834 -39 -93.501
s-56.667 -38.5 -92 -38.5z" />
    <glyph glyph-name="Zacute" unicode="&#x179;" horiz-adv-x="1204" 
d="M1170 322v-322h-1136v261l605 788h-559v316h1071v-265l-587 -778h606zM435 1619l457 224l73 -195l-478 -166z" />
    <glyph glyph-name="zacute" unicode="&#x17a;" horiz-adv-x="965" 
d="M931 253l-0.000976562 -253h-897v221l429 551c-51.333 -2 -86 -3 -104 -3h-290v248h846v-214l-438 -552l53 1c10.667 0.666992 20.334 1 29.001 1h372zM298.999 1298l457 224l73 -195l-478 -166z" />
    <glyph glyph-name="Zdot" unicode="&#x17b;" horiz-adv-x="1204" 
d="M1170 322v-322h-1136v261l605 788h-559v316h1071v-265l-587 -778h606zM617 1508c-37.333 0 -69.5 13.333 -96.5 40s-40.5 58.667 -40.5 96s13.333 69.166 40 95.499s58.667 39.5 96 39.5c38 0 70.333 -13.167 97 -39.5s40 -58.166 40 -95.499
c0 -38 -13.333 -70.167 -40 -96.5s-58.667 -39.5 -96 -39.5z" />
    <glyph glyph-name="zdot" unicode="&#x17c;" horiz-adv-x="965" 
d="M931 253l-0.000976562 -253h-897v221l429 551c-51.333 -2 -86 -3 -104 -3h-290v248h846v-214l-438 -552l53 1c10.667 0.666992 20.334 1 29.001 1h372zM492.999 1188c-37.333 0 -69.5 13.333 -96.5 40s-40.5 58.667 -40.5 96s13.333 69.166 40 95.499
s58.667 39.5 96 39.5c38 0 70.333 -13.167 97 -39.5s40 -58.166 40 -95.499c0 -38 -13.333 -70.167 -40 -96.5s-58.667 -39.5 -96 -39.5z" />
    <glyph glyph-name="Zcaron" unicode="&#x17d;" horiz-adv-x="1204" 
d="M1170 322v-322h-1136v261l605 788h-559v316h1071v-265l-587 -778h606zM214 1800l232 20l169 -130l170 130l232 -20l-402 -318z" />
    <glyph glyph-name="zcaron" unicode="&#x17e;" horiz-adv-x="965" 
d="M931 253l-0.000976562 -253h-897v221l429 551c-51.333 -2 -86 -3 -104 -3h-290v248h846v-214l-438 -552l53 1c10.667 0.666992 20.334 1 29.001 1h372zM90.999 1479l232 20l169 -130l170 130l232 -20l-402 -318z" />
    <glyph glyph-name="longs" unicode="&#x17f;" 
d="M735 0h-376.996v1017c0 84.667 3.66699 147 11 187s25.666 78.5 54.999 115.5s68.666 65.333 117.999 85s115.666 29.5 198.999 29.5c102 0 200 -9.33301 294 -28v-258c-88.667 11.333 -148.334 17 -179.001 17c-80.667 0 -121 -31.333 -121 -94v-1071z" />
    <glyph glyph-name="florin" unicode="&#x192;" 
d="M997 853h-196.001l-137 -777c-24 -134.667 -72.5 -232 -145.5 -292s-184.167 -90 -333.5 -90c-66.667 0 -133 8 -199 24l45 254c34 -6 64.667 -9 92 -9c56 0 95.333 11.167 118 33.5s39.334 63.833 50.001 124.5l129 732h-153l47 264h153
c20 155.333 67.167 263.333 141.5 324s179.833 91 316.5 91c80.667 0 156 -8 226 -24l-45 -253c-40 5.33301 -71.333 8 -94 8c-54.667 0 -96.167 -8.66699 -124.5 -26s-46.833 -57.333 -55.5 -120h211z" />
    <glyph glyph-name="Aringacute" unicode="&#x1fa;" horiz-adv-x="1306" 
d="M361 1803l461 211l69 -195l-478 -153zM423 1346c-10.667 29.333 -15.999 58 -15.999 86c0 67.333 23.833 124.5 71.5 171.5s104.167 70.5 169.5 70.5c67.333 0 124.666 -23.5 171.999 -70.5s71 -103.833 71 -170.5c0 -28 -5 -55.333 -15 -82l423 -1351h-427l-77 269h-366
l-82 -269h-340zM649.001 1340c22.667 0 42.5 9 59.5 27s25.5 40.667 25.5 68c0 24 -8.33301 44.833 -25 62.5s-36.667 26.5 -60 26.5c-24 0 -44.167 -9 -60.5 -27s-24.5 -39.667 -24.5 -65c0 -24.667 8.33301 -46.167 25 -64.5s36.667 -27.5 60 -27.5zM500.001 567h222
l-111 396z" />
    <glyph glyph-name="aringacute" unicode="&#x1fb;" 
d="M1130 0l-380.002 0.00390625c-9.33301 43.333 -14 90.666 -14 141.999c-72 -108.667 -181 -163 -327 -163c-120 0 -209.833 30.667 -269.5 92s-89.5 131.666 -89.5 210.999c0 107.333 48.833 194.166 146.5 260.499s270.834 106.166 519.501 119.499v23
c0 44.667 -10.167 74.334 -30.5 89.001s-50.166 22 -89.499 22c-92 0 -143.333 -37 -154 -111l-364 34c52 212.667 229 319 531 319c82 0 157.333 -8.16699 226 -24.5s123 -41.833 163 -76.5s66.833 -71.334 80.5 -110.001s20.5 -113 20.5 -223v-406
c0 -77.333 10.333 -143.333 31 -198zM715.998 476.004c-170 -18 -255 -72.333 -255 -163c0 -61.333 33.667 -92 101 -92c42.667 0 79 12.667 109 38s45 81.333 45 168v49zM575.998 1455c-55.333 0 -102.666 19.501 -141.999 58.501s-59 86.167 -59 141.5
s19.667 102.666 59 141.999s86.666 59 141.999 59c56 0 103.667 -19.5 143 -58.5s59 -86.167 59 -141.5c0 -56 -19.833 -103.5 -59.5 -142.5s-87.167 -58.5 -142.5 -58.5zM575.998 1581c20.667 0 38.5 7.33398 53.5 22.001s22.5 33 22.5 55c0 19.333 -7.5 36.333 -22.5 51
s-32.833 22 -53.5 22s-38.334 -7.5 -53.001 -22.5s-22 -32.5 -22 -52.5c0 -20.667 7.33301 -38.334 22 -53.001s32.334 -22 53.001 -22zM356.998 1249.01l457 224l73 -195l-478 -166z" />
    <glyph glyph-name="AEacute" unicode="&#x1fc;" horiz-adv-x="1865" 
d="M1818 326v-326h-1037v283h-326l-127 -283h-355l609 1365h1222v-315h-609v-198h493v-303h-493v-223h623zM566 568h215v482zM972 1619l457 224l73 -195l-478 -166z" />
    <glyph glyph-name="aeacute" unicode="&#x1fd;" horiz-adv-x="1627" 
d="M1573 436h-605.999c2.66699 -128 50.667 -192 144 -192c78.667 0 123.334 41.667 134.001 125l328 -25c-20 -109.333 -73 -197.5 -159 -264.5s-188.667 -100.5 -308 -100.5c-157.333 0 -285 57.667 -383 173c-84.667 -115.333 -201.667 -173 -351 -173
c-104.667 0 -184.334 30 -239.001 90s-82 130.667 -82 212c0 105.333 41.5 191 124.5 257s240.833 108.667 473.5 128v32c0 65.333 -34.667 98 -104 98c-74.667 0 -119 -37.333 -133 -112l-338 35c53.333 212.667 216.333 319 489 319
c111.333 0 201.666 -23.333 270.999 -70c78.667 46.667 163.667 70 255 70c150.667 0 269.667 -50 357 -150s131 -225.667 131 -377c0 -15.333 -1.33301 -40.333 -4 -75zM1224 633c0 116.667 -42.668 175 -128.001 175s-128.666 -58.333 -129.999 -175h258zM649 479
c-146.667 -22 -220 -76.333 -220 -163c0 -29.333 8.5 -52.5 25.5 -69.5s37.833 -25.5 62.5 -25.5c90.667 0 136 67 136 201c0 12 -1.33301 31 -4 57zM590 1298l457 224l73 -195l-478 -166z" />
    <glyph glyph-name="Oslashacute" unicode="&#x1fe;" horiz-adv-x="1415" 
d="M270 140c-141.333 130.667 -212 310.333 -212 539c0 208 58.667 377.833 176 509.5s274 197.5 470 197.5c112.667 0 209.334 -18.667 290.001 -56l90 149h211l-151 -249c142 -129.333 213 -307.333 213 -534c0 -218 -60.833 -392 -182.5 -522
s-274.834 -195 -459.501 -195c-109.333 0 -207 20 -293 60l-92 -152h-214zM516 543.999l301 496c-28 24 -61.667 36 -101 36c-138 0 -207 -133.667 -207 -401c0 -39.333 2.33301 -83 7 -131zM902 829.999l-304 -502c28.667 -26 65 -39 109 -39
c70.667 0 121.5 30.833 152.5 92.5s46.5 174.5 46.5 338.5c0 33.333 -1.33301 70 -4 110zM483 1619l457 224l73 -195l-478 -166z" />
    <glyph glyph-name="oslashacute" unicode="&#x1ff;" horiz-adv-x="1217" 
d="M1109 1128l-139.001 -200.999c130.667 -102 196 -240.667 196 -416c0 -154 -52.167 -281.167 -156.5 -381.5s-243.166 -150.5 -416.499 -150.5c-74 0 -145.333 13.333 -214 40l-86 -128h-185l132 209c-126 105.333 -189 241 -189 407
c0 151.333 51.833 277.666 155.5 378.999s239.167 152 406.5 152c74 0 147.667 -12.667 221 -38l89 128h186zM693.999 762.001c-20.667 17.333 -48.667 25.999 -84 25.999c-48 0 -83.833 -19.5 -107.5 -58.5s-35.5 -115.5 -35.5 -229.5c0 -23.333 1.66699 -55.666 5 -96.999
zM519.999 252c19.333 -20.667 48.667 -31 88 -31c48.667 0 84.5 19.333 107.5 58s34.5 120 34.5 244c0 31.333 -1.66699 64 -5 98zM344 1298l457 224l73 -195l-478 -166z" />
    <glyph glyph-name="circumflex" unicode="&#x2c6;" horiz-adv-x="1024" 
d="M914 1195l-232 -21l-170 130l-169 -130l-232 21l401 318z" />
    <glyph glyph-name="caron" unicode="&#x2c7;" horiz-adv-x="1024" 
d="M111 1479l232 20l169 -130l170 130l232 -20l-402 -318z" />
    <glyph glyph-name="macron" unicode="&#x2c9;" horiz-adv-x="1024" 
d="M188 1208v155h647v-155h-647z" />
    <glyph glyph-name="breve" unicode="&#x2d8;" horiz-adv-x="1024" 
d="M700 1495h176c-23.333 -102 -69 -179.833 -137 -233.5s-143.333 -80.5 -226 -80.5c-81.333 0 -156 25.667 -224 77s-115 130.333 -141 237h176c46 -94.667 109.333 -142 190 -142c81.333 0 143.333 47.333 186 142z" />
    <glyph glyph-name="dotaccent" unicode="&#x2d9;" horiz-adv-x="1024" 
d="M513 1188c-37.333 0 -69.5 13.333 -96.5 40s-40.5 58.667 -40.5 96s13.333 69.166 40 95.499s58.667 39.5 96 39.5c38 0 70.333 -13.167 97 -39.5s40 -58.166 40 -95.499c0 -38 -13.333 -70.167 -40 -96.5s-58.667 -39.5 -96 -39.5z" />
    <glyph glyph-name="ring" unicode="&#x2da;" horiz-adv-x="1024" 
d="M512 1147c-55.333 0 -102.666 19.501 -141.999 58.501s-59 86.167 -59 141.5s19.667 102.666 59 141.999s86.666 59 141.999 59c56 0 103.667 -19.5 143 -58.5s59 -86.167 59 -141.5c0 -56 -19.833 -103.5 -59.5 -142.5s-87.167 -58.5 -142.5 -58.5zM512 1273
c20.667 0 38.5 7.33398 53.5 22.001s22.5 33 22.5 55c0 19.333 -7.5 36.333 -22.5 51s-32.833 22 -53.5 22s-38.334 -7.5 -53.001 -22.5s-22 -32.5 -22 -52.5c0 -20.667 7.33301 -38.334 22 -53.001s32.334 -22 53.001 -22z" />
    <glyph glyph-name="ogonek" unicode="&#x2db;" horiz-adv-x="1024" 
d="M884 0c-89.333 -50 -134 -104.667 -134 -164c0 -60 35.667 -90 107 -90c27.333 0 58 6 92 18l20 -85c-55.333 -26.667 -116.333 -40 -183 -40c-80.667 0 -137 16.167 -169 48.5s-48 68.5 -48 108.5c0 81.333 54.667 149.333 164 204h151z" />
    <glyph glyph-name="tilde" unicode="&#x2dc;" horiz-adv-x="1024" 
d="M780 1433l99.9971 -117c-81.333 -85.333 -162.666 -128 -243.999 -128c-41.333 0 -93.666 16.333 -156.999 49c-42.667 22 -76 33 -100 33c-46.667 0 -92 -26 -136 -78l-98 117c80.667 85.333 158.334 128 233.001 128c38.667 0 84 -13.333 136 -40
c56 -28.667 95.333 -43 118 -43c42.667 0 92 26.333 148 79z" />
    <glyph glyph-name="hungarumlaut" unicode="&#x2dd;" horiz-adv-x="1024" 
d="M614 1277l324 259l97 -164l-353 -211zM206 1277l323 259l98 -164l-354 -211z" />
    <glyph glyph-name="tonos" unicode="&#x384;" horiz-adv-x="1024" 
d="M168 1365l-310 -400l-119 87l234 437z" />
    <glyph glyph-name="dieresistonos" unicode="&#x385;" horiz-adv-x="1024" 
d="M403 1605l301 286l127 -154l-332 -247zM464 1319c0 -36.667 -12.999 -67.6689 -38.999 -93.002s-57 -38 -93 -38c-36.667 0 -68 12.833 -94 38.5s-39 56.834 -39 93.501c0 35.333 12.833 66 38.5 92s57.167 39 94.5 39s68.666 -13.167 93.999 -39.5
s38 -57.166 38 -92.499zM824.001 1319c0 -36 -13.001 -66.834 -39.001 -92.501s-56.667 -38.5 -92 -38.5c-36.667 0 -68.167 13 -94.5 39s-39.5 57 -39.5 93s13 66.833 39 92.5s57.333 38.5 94 38.5s67.834 -12.667 93.501 -38s38.5 -56.666 38.5 -93.999z" />
    <glyph glyph-name="Alphatonos" unicode="&#x386;" horiz-adv-x="1306" 
d="M872 0l-77 269h-366l-82 -269h-340l422 1365h443l427 -1365h-427zM500 567h222l-111 396zM310 1365l-310 -400l-119 87l234 437z" />
    <glyph glyph-name="anoteleia" unicode="&#x387;" horiz-adv-x="380" 
d="M380 698v-365h-380v365h380z" />
    <glyph glyph-name="Epsilontonos" unicode="&#x388;" horiz-adv-x="1193" 
d="M1146 326v-326h-1027v1365h1027v-315h-616v-198h498v-303h-498v-223h616zM37 1365l-310 -400l-119 87l234 437z" />
    <glyph glyph-name="Etatonos" unicode="&#x389;" horiz-adv-x="1395" 
d="M1277 1365v-1365h-419v531h-320v-531h-419v1365h419v-502h320v502h419zM37 1365l-310 -400l-119 87l234 437z" />
    <glyph glyph-name="Iotatonos" unicode="&#x38a;" horiz-adv-x="657" 
d="M538 1365v-1365h-419v1365h419zM37 1365l-310 -400l-119 87l234 437z" />
    <glyph glyph-name="Omicrontonos" unicode="&#x38c;" horiz-adv-x="1415" 
d="M709 -21c-192 0 -348.499 63.668 -469.499 191.001s-181.5 297.666 -181.5 510.999c0 204 57.833 372.5 173.5 505.5s276.167 199.5 481.5 199.5c190 0 344.833 -62.667 464.5 -188s179.5 -292.666 179.5 -501.999c0 -216.667 -60.333 -390.334 -181 -521.001
s-276.334 -196 -467.001 -196zM707.001 289.001c70.667 0 121.5 30.833 152.5 92.5s46.5 174.5 46.5 338.5c0 237.333 -63.667 356 -191 356c-137.333 0 -206 -135.333 -206 -406c0 -254 66 -381 198 -381zM159.001 1365l-310 -400l-119 87l234 437z" />
    <glyph glyph-name="Upsilontonos" unicode="&#x38e;" horiz-adv-x="1211" 
d="M1252 1365l-427 -787v-578h-407v578l-459 787h459l239 -449l229 449h366zM-80 1365l-310 -400l-119 87l234 437z" />
    <glyph glyph-name="Omegatonos" unicode="&#x38f;" horiz-adv-x="1473" 
d="M54 0v317h339c-112 37.333 -194.5 101.833 -247.5 193.5s-79.5 193.167 -79.5 304.5c0 166.667 57.5 303.5 172.5 410.5s280.833 160.5 497.5 160.5c212 0 376.667 -52.833 494 -158.5s176 -243.167 176 -412.5c0 -110.667 -26.5 -212 -79.5 -304
s-135.5 -156.667 -247.5 -194h339v-317h-615v317c102 58 153 198 153 420c0 240 -73.333 360 -220 360s-220 -120 -220 -360c0 -222 51 -362 153 -420v-317h-615zM133 1365l-310 -400l-119 87l234 437z" />
    <glyph glyph-name="iotadieresistonos" unicode="&#x390;" horiz-adv-x="609" 
d="M105 0v1010h399v-1010h-399zM196 1605l301 286l127 -154l-332 -247zM257 1319c0 -36.667 -12.999 -67.6689 -38.999 -93.002s-57 -38 -93 -38c-36.667 0 -68 12.833 -94 38.5s-39 56.834 -39 93.501c0 35.333 12.833 66 38.5 92s57.167 39 94.5 39
s68.666 -13.167 93.999 -39.5s38 -57.166 38 -92.499zM617.001 1319c0 -36 -13.001 -66.834 -39.001 -92.501s-56.667 -38.5 -92 -38.5c-36.667 0 -68.167 13 -94.5 39s-39.5 57 -39.5 93s13 66.833 39 92.5s57.333 38.5 94 38.5s67.834 -12.667 93.501 -38
s38.5 -56.666 38.5 -93.999z" />
    <glyph glyph-name="Alpha" unicode="&#x391;" horiz-adv-x="1306" 
d="M872 0l-77 269h-366l-82 -269h-340l422 1365h443l427 -1365h-427zM500 567h222l-111 396z" />
    <glyph glyph-name="Beta" unicode="&#x392;" horiz-adv-x="1316" 
d="M119 0v1365h693c144 0 249 -36.333 315 -109s99 -155.667 99 -249c0 -68 -19.167 -129.5 -57.5 -184.5s-95.5 -92.833 -171.5 -113.5c176.667 -42.667 265 -148.667 265 -318c0 -101.333 -31.167 -191.833 -93.5 -271.5s-195.5 -119.5 -399.5 -119.5h-650zM505 842h194
c48.667 0 83 12.333 103 37s30 51 30 79c0 76 -46.667 114 -140 114h-187v-230zM505 304l203.999 0.000976562c50.667 0 87.834 12.5 111.501 37.5s35.5 53.167 35.5 84.5s-11.5 60.166 -34.5 86.499s-65.167 39.5 -126.5 39.5h-190v-248z" />
    <glyph glyph-name="Gamma" unicode="&#x393;" horiz-adv-x="1001" 
d="M119 0v1365h896v-322h-477v-1043h-419z" />
    <glyph glyph-name="Delta" unicode="&#x394;" horiz-adv-x="1259" 
d="M-20 0l439 1365h418l464 -1365h-1321zM408 322h364l-179 629h-14z" />
    <glyph glyph-name="Epsilon" unicode="&#x395;" horiz-adv-x="1193" 
d="M1146 326v-326h-1027v1365h1027v-315h-616v-198h498v-303h-498v-223h616z" />
    <glyph glyph-name="Zeta" unicode="&#x396;" horiz-adv-x="1204" 
d="M1170 322v-322h-1136v261l605 788h-559v316h1071v-265l-587 -778h606z" />
    <glyph glyph-name="Eta" unicode="&#x397;" horiz-adv-x="1395" 
d="M1277 1365v-1365h-419v531h-320v-531h-419v1365h419v-502h320v502h419z" />
    <glyph glyph-name="Theta" unicode="&#x398;" horiz-adv-x="1510" 
d="M754 1386c212.667 0 382.166 -65.5 508.499 -196.5s189.5 -299.5 189.5 -505.5c0 -203.333 -62 -371.666 -186 -504.999s-296 -200 -516 -200c-202 0 -367.833 62 -497.5 186s-194.5 292 -194.5 504c0 219.333 65.333 393.666 196 522.999s297.334 194 500.001 194z
M754.999 1087c-74.667 0 -137.833 -30.999 -189.5 -92.999s-77.5 -165.667 -77.5 -311c0 -144.667 25.5 -248.334 76.5 -311.001s114.5 -94 190.5 -94c81.333 0 146.166 33.5 194.499 100.5s72.5 168.5 72.5 304.5c0 142 -25.167 244.833 -75.5 308.5
s-114.166 95.5 -191.499 95.5zM928 829.001v-265h-346v265h346z" />
    <glyph glyph-name="Iota" unicode="&#x399;" horiz-adv-x="657" 
d="M538 1365v-1365h-419v1365h419z" />
    <glyph glyph-name="Kappa" unicode="&#x39a;" horiz-adv-x="1343" 
d="M1350 0h-459l-236 516l-141 -201v-315h-395v1365h395v-564l377 564h376l-345 -499z" />
    <glyph glyph-name="Lambda" unicode="&#x39b;" horiz-adv-x="1212" 
d="M287 0h-335l432 1365h445l424 -1365h-414l-273 970z" />
    <glyph glyph-name="Mu" unicode="&#x39c;" horiz-adv-x="1722" 
d="M1603 1365v-1365h-389v976l-253 -976h-266l-262 976v-976h-314v1365h547l198 -725l189 725h550z" />
    <glyph glyph-name="Nu" unicode="&#x39d;" horiz-adv-x="1405" 
d="M1286 0l-341 -0.000976562l-374 603c-48 77.333 -96.333 171.333 -145 282c22 -88 33 -162.667 33 -224v-661h-340v1365h396l318 -500c63.333 -99.333 111.333 -186.666 144 -261.999c-21.333 116.667 -32 236 -32 358v404h341v-1365z" />
    <glyph glyph-name="Xi" unicode="&#x39e;" horiz-adv-x="1212" 
d="M72 1049v316h1068v-316h-1068zM185 557v290h843v-290h-843zM55 0v322h1103v-322h-1103z" />
    <glyph glyph-name="Omicron" unicode="&#x39f;" horiz-adv-x="1415" 
d="M709 -21c-192 0 -348.499 63.668 -469.499 191.001s-181.5 297.666 -181.5 510.999c0 204 57.833 372.5 173.5 505.5s276.167 199.5 481.5 199.5c190 0 344.833 -62.667 464.5 -188s179.5 -292.666 179.5 -501.999c0 -216.667 -60.333 -390.334 -181 -521.001
s-276.334 -196 -467.001 -196zM707.001 289.001c70.667 0 121.5 30.833 152.5 92.5s46.5 174.5 46.5 338.5c0 237.333 -63.667 356 -191 356c-137.333 0 -206 -135.333 -206 -406c0 -254 66 -381 198 -381z" />
    <glyph glyph-name="Pi" unicode="&#x3a0;" horiz-adv-x="1379" 
d="M119 0v1365h1141v-1365h-419v1049h-303v-1049h-419z" />
    <glyph glyph-name="Rho" unicode="&#x3a1;" horiz-adv-x="1317" 
d="M544 496v-496h-425v1365h583c145.333 0 255.833 -16.667 331.5 -50s135.667 -84.333 180 -153s66.5 -145.667 66.5 -231c0 -130 -45.333 -235 -136 -315s-211.667 -120 -363 -120h-237zM538 789h140c123.333 0 185 45.333 185 136c0 85.333 -57 128 -171 128h-154v-264z
" />
    <glyph glyph-name="Sigma" unicode="&#x3a3;" horiz-adv-x="1132" 
d="M42 0v312l369 316l-336 419v318h986v-318h-508l288 -354l-390 -371h634v-322h-1043z" />
    <glyph glyph-name="Tau" unicode="&#x3a4;" horiz-adv-x="963" 
d="M680 1038v-1038h-397v1038h-283v327h963v-327h-283z" />
    <glyph glyph-name="Upsilon" unicode="&#x3a5;" horiz-adv-x="1211" 
d="M1252 1365l-427 -787v-578h-407v578l-459 787h459l239 -449l229 449h366z" />
    <glyph glyph-name="Phi" unicode="&#x3a6;" horiz-adv-x="1570" 
d="M614 127c-178.667 14 -316 72.498 -412 175.498s-144 229.833 -144 380.5s48.167 277.334 144.5 380.001s233.5 161 411.5 175v168h342v-168c180 -14 317.667 -72.667 413 -176s143 -229.666 143 -378.999c0 -151.333 -48.5 -278.333 -145.5 -381
s-233.833 -161 -410.5 -175v-168h-342v168zM614 965.998c-111.333 -45.333 -167 -139.668 -167 -283.001s55.667 -237.666 167 -282.999v566zM956 399.996c111.333 45.333 167 139.668 167 283.001s-55.667 237.666 -167 282.999v-566z" />
    <glyph glyph-name="Chi" unicode="&#x3a7;" horiz-adv-x="1322" 
d="M1287 1365l-396 -634l459 -731h-487l-252 429l-254 -429h-384l440 707l-422 658h488l212 -367l220 367h376z" />
    <glyph glyph-name="Psi" unicode="&#x3a8;" horiz-adv-x="1852" 
d="M717 0v236.999c-136.667 0 -246.834 16.667 -330.501 50s-147 78.666 -190 135.999s-71.667 123 -86 197s-21.5 188.667 -21.5 344v401h419v-401l2 -163c1.33301 -73.333 6.5 -123.666 15.5 -150.999s28 -48.833 57 -64.5s73.833 -26.167 134.5 -31.5v811h419v-811
c64.667 4.66699 110.834 15.834 138.501 33.501s46.334 40.667 56.001 69s14.5 130.833 14.5 307.5v401h419v-401c0 -154.667 -6.33301 -267.667 -19 -339s-42.834 -138 -90.501 -200s-113 -108.833 -196 -140.5s-190.5 -47.5 -322.5 -47.5v-237h-419z" />
    <glyph glyph-name="Omega" unicode="&#x3a9;" horiz-adv-x="1473" 
d="M55 0v317h339c-112 37.333 -194.5 101.833 -247.5 193.5s-79.5 193.167 -79.5 304.5c0 166.667 57.5 303.5 172.5 410.5s280.833 160.5 497.5 160.5c212 0 376.667 -52.833 494 -158.5s176 -243.167 176 -412.5c0 -110.667 -26.5 -212 -79.5 -304
s-135.5 -156.667 -247.5 -194h339v-317h-615v317c102 58 153 198 153 420c0 240 -73.333 360 -220 360s-220 -120 -220 -360c0 -222 51 -362 153 -420v-317h-615z" />
    <glyph glyph-name="Iotadieresis" unicode="&#x3aa;" horiz-adv-x="657" 
d="M538 1365v-1365h-419v1365h419zM166 1511c-36.667 0 -67.999 12.8311 -93.999 38.498s-39 56.834 -39 93.501c0 35.333 12.833 66 38.5 92s57.167 39 94.5 39s68.666 -13.167 93.999 -39.5s38 -57.166 38 -92.499c0 -36 -13 -66.833 -39 -92.5s-57 -38.5 -93 -38.5z
M527.001 1511c-36.667 0 -68.168 13.001 -94.501 39.001s-39.5 57 -39.5 93s13 66.833 39 92.5s57.333 38.5 94 38.5s67.834 -12.833 93.501 -38.5s38.5 -56.5 38.5 -92.5c0 -36.667 -13 -67.834 -39 -93.501s-56.667 -38.5 -92 -38.5z" />
    <glyph glyph-name="Upsilondieresis" unicode="&#x3ab;" horiz-adv-x="1211" 
d="M1252 1365l-427 -787v-578h-407v578l-459 787h459l239 -449l229 449h366zM472 1511c-36.667 0 -67.999 12.8311 -93.999 38.498s-39 56.834 -39 93.501c0 35.333 12.833 66 38.5 92s57.167 39 94.5 39s68.666 -13.167 93.999 -39.5s38 -57.166 38 -92.499
c0 -36 -13 -66.833 -39 -92.5s-57 -38.5 -93 -38.5zM833.001 1511c-36.667 0 -68.168 13.001 -94.501 39.001s-39.5 57 -39.5 93s13 66.833 39 92.5s57.333 38.5 94 38.5s67.834 -12.833 93.501 -38.5s38.5 -56.5 38.5 -92.5c0 -36.667 -13 -67.834 -39 -93.501
s-56.667 -38.5 -92 -38.5z" />
    <glyph glyph-name="alphatonos" unicode="&#x3ac;" horiz-adv-x="1335" 
d="M1322 0h-444.999l-57 188c-80.667 -139.333 -187.334 -209 -320.001 -209c-134 0 -242.333 52.167 -325 156.5s-124 232.166 -124 383.499c0 152.667 45 276.334 135 371.001s206.333 142 349 142c136.667 0 241.667 -56.333 315 -169l27 147h433l-214 -478zM759.001 504
c-24 110.667 -48.667 185.833 -74 225.5s-56.333 59.5 -93 59.5c-38 0 -66.833 -24.333 -86.5 -73s-29.5 -113 -29.5 -193c0 -197.333 39.333 -296 118 -296c28 0 54.5 14.167 79.5 42.5s53.5 106.5 85.5 234.5zM408.001 1298l457 224l73 -195l-478 -166z" />
    <glyph glyph-name="epsilontonos" unicode="&#x3ad;" horiz-adv-x="1083" 
d="M686 607l-0.00195312 -191c-60 -0.666992 -101.167 -2.83398 -123.5 -6.50098s-41.166 -14 -56.499 -31s-23 -41.5 -23 -73.5c0 -66.667 32.333 -100 97 -100c67.333 0 107.333 39 120 117l363 -49c-53.333 -196 -218.333 -294 -495 -294c-176 0 -305 29.333 -387 88
s-123 138.334 -123 239.001c0 120 75.333 198 226 234c-82 32 -133.333 64 -154 96s-31 68 -31 108c0 86.667 37.333 156.167 112 208.5s182.667 78.5 324 78.5c296.667 0 469.334 -94.667 518.001 -284l-353 -51c-10.667 67.333 -46 101 -106 101
c-64.667 0 -97 -31 -97 -93c0 -38 12 -63.667 36 -77s59.333 -20 106 -20h47zM335.998 1298l457 224l73 -195l-478 -166z" />
    <glyph glyph-name="etatonos" unicode="&#x3ae;" horiz-adv-x="1197" 
d="M1098 -341h-399v974c0 82 -28.333 123 -85 123c-73.333 0 -110 -50.667 -110 -152v-604h-399v1010h370v-144c54 110 151.667 165 293 165c81.333 0 149 -17.333 203 -52s88.667 -74.167 104 -118.5s23 -116.5 23 -216.5v-985zM377 1298l457 224l73 -195l-478 -166z" />
    <glyph glyph-name="iotatonos" unicode="&#x3af;" horiz-adv-x="609" 
d="M105 0v1010h399v-1010h-399zM53 1298l457 224l73 -195l-478 -166z" />
    <glyph glyph-name="upsilondieresistonos" unicode="&#x3b0;" horiz-adv-x="1187" 
d="M495 1010l-0.00292969 -521.998c0 -112.667 5.5 -184 16.5 -214s38.5 -45 82.5 -45c42.667 0 69.834 14.833 81.501 44.5s17.5 101.167 17.5 214.5v522h398v-522c0 -134.667 -16.167 -234.834 -48.5 -300.501s-83.166 -116.834 -152.499 -153.501
s-164.666 -55 -285.999 -55c-171.333 0 -298.833 35 -382.5 105s-125.5 204.667 -125.5 404v522h399zM485.997 1605l301 286l127 -154l-332 -247zM546.997 1319c0 -36.667 -12.999 -67.6689 -38.999 -93.002s-57 -38 -93 -38c-36.667 0 -68 12.833 -94 38.5
s-39 56.834 -39 93.501c0 35.333 12.833 66 38.5 92s57.167 39 94.5 39s68.666 -13.167 93.999 -39.5s38 -57.166 38 -92.499zM906.998 1319c0 -36 -13.001 -66.834 -39.001 -92.501s-56.667 -38.5 -92 -38.5c-36.667 0 -68.167 13 -94.5 39s-39.5 57 -39.5 93
s13 66.833 39 92.5s57.333 38.5 94 38.5s67.834 -12.667 93.501 -38s38.5 -56.666 38.5 -93.999z" />
    <glyph glyph-name="alpha" unicode="&#x3b1;" horiz-adv-x="1335" 
d="M1322 0h-444.999l-57 188c-80.667 -139.333 -187.334 -209 -320.001 -209c-134 0 -242.333 52.167 -325 156.5s-124 232.166 -124 383.499c0 152.667 45 276.334 135 371.001s206.333 142 349 142c136.667 0 241.667 -56.333 315 -169l27 147h433l-214 -478zM759.001 504
c-24 110.667 -48.667 185.833 -74 225.5s-56.333 59.5 -93 59.5c-38 0 -66.833 -24.333 -86.5 -73s-29.5 -113 -29.5 -193c0 -197.333 39.333 -296 118 -296c28 0 54.5 14.167 79.5 42.5s53.5 106.5 85.5 234.5z" />
    <glyph glyph-name="beta" unicode="&#x3b2;" horiz-adv-x="1261" 
d="M105 -341l-0.000976562 1193c0 136 16.167 239.833 48.5 311.5s85.333 126.667 159 165s178.167 57.5 313.5 57.5c176.667 0 305.667 -33.333 387 -100s122 -146 122 -238c0 -156 -101.667 -250 -305 -282c148.667 -28 248 -76.333 298 -145s75 -143 75 -223
c0 -111.333 -41.333 -209 -124 -293s-186 -126 -310 -126c-66.667 0 -118.667 11.5 -156 34.5s-73.666 61.167 -108.999 114.5v-469h-399zM503.999 301c34.667 -48 76.334 -71.998 125.001 -71.998c49.333 0 86.666 21.5 111.999 64.5s38 98.167 38 165.5
c0 48.667 -7.83301 88.667 -23.5 120s-33 51.166 -52 59.499s-51.167 13.166 -96.5 14.499v187c54 0.666992 89 16 105 46s24 67.667 24 113c0 108.667 -40.667 163 -122 163c-47.333 0 -77.5 -16.333 -90.5 -49s-19.5 -102 -19.5 -208v-604z" />
    <glyph glyph-name="gamma" unicode="&#x3b3;" horiz-adv-x="982" 
d="M275 -341v341l-312 1010h420l149 -593l196 593h309l-363 -1010v-341h-399z" />
    <glyph glyph-name="delta" unicode="&#x3b4;" horiz-adv-x="1233" 
d="M1029 1365v-254.001h-344l91 -57c266 -167.333 399 -362.333 399 -585c0 -146.667 -49 -265 -147 -355s-235 -135 -411 -135c-166.667 0 -301.5 43.833 -404.5 131.5s-154.5 208.834 -154.5 363.501c0 234 137.667 380.333 413 439l-282 227v225h840zM617 708.999
c-46 0 -79.833 -17.832 -101.5 -53.499s-32.5 -99.834 -32.5 -192.501c0 -75.333 8.33301 -134 25 -176s54 -63 112 -63c55.333 0 90.833 24.5 106.5 73.5s23.5 109.833 23.5 182.5c0 86.667 -10.333 146.5 -31 179.5s-54.667 49.5 -102 49.5z" />
    <glyph glyph-name="epsilon" unicode="&#x3b5;" horiz-adv-x="1083" 
d="M686 607l-0.00195312 -191c-60 -0.666992 -101.167 -2.83398 -123.5 -6.50098s-41.166 -14 -56.499 -31s-23 -41.5 -23 -73.5c0 -66.667 32.333 -100 97 -100c67.333 0 107.333 39 120 117l363 -49c-53.333 -196 -218.333 -294 -495 -294c-176 0 -305 29.333 -387 88
s-123 138.334 -123 239.001c0 120 75.333 198 226 234c-82 32 -133.333 64 -154 96s-31 68 -31 108c0 86.667 37.333 156.167 112 208.5s182.667 78.5 324 78.5c296.667 0 469.334 -94.667 518.001 -284l-353 -51c-10.667 67.333 -46 101 -106 101
c-64.667 0 -97 -31 -97 -93c0 -38 12 -63.667 36 -77s59.333 -20 106 -20h47z" />
    <glyph glyph-name="zeta" unicode="&#x3b6;" horiz-adv-x="918" 
d="M141 1111v253.999h756v-228c-117.333 -49.333 -215.833 -139.333 -295.5 -270s-119.5 -263.334 -119.5 -398.001c0 -54 11.333 -100.833 34 -140.5s78 -61.167 166 -64.5c102.667 -3.33301 169.5 -29 200.5 -77s46.5 -110 46.5 -186
c0 -111.333 -30.667 -227.666 -92 -348.999l-318 39c38.667 74.667 58 145.334 58 212.001c0 37.333 -10 62.666 -30 75.999s-55.333 21 -106 23c-255.333 9.33301 -383 141.333 -383 396c0 278.667 150.667 516.334 452 713.001h-369z" />
    <glyph glyph-name="eta" unicode="&#x3b7;" horiz-adv-x="1197" 
d="M1098 -341h-399v974c0 82 -28.333 123 -85 123c-73.333 0 -110 -50.667 -110 -152v-604h-399v1010h370v-144c54 110 151.667 165 293 165c81.333 0 149 -17.333 203 -52s88.667 -74.167 104 -118.5s23 -116.5 23 -216.5v-985z" />
    <glyph glyph-name="theta" unicode="&#x3b8;" horiz-adv-x="1219" 
d="M598 1386c199.333 0 343 -65.667 431 -197s132 -300.333 132 -507c0 -214 -45.667 -384.667 -137 -512s-226 -191 -404 -191c-198 0 -341.167 65 -429.5 195s-132.5 299.333 -132.5 508c0 219.333 46 391.5 138 516.5s226 187.5 402 187.5zM469 805h279
c-1.33301 114.667 -12.5 201.5 -33.5 260.5s-56.5 88.5 -106.5 88.5c-90 0 -136.333 -116.333 -139 -349zM469 600c0 -142 10.333 -242.333 31 -301s57 -88 109 -88c58 0 95.667 35.167 113 105.5s26 164.833 26 283.5h-279z" />
    <glyph glyph-name="iota" unicode="&#x3b9;" horiz-adv-x="609" 
d="M105 0v1010h399v-1010h-399z" />
    <glyph glyph-name="kappa" unicode="&#x3ba;" horiz-adv-x="1162" 
d="M874 667l341.999 -667h-412l-191 407l-111 -127v-280h-397v1010h397v-380c22.667 34 46.334 65 71.001 93l255 287h353z" />
    <glyph glyph-name="lambda" unicode="&#x3bb;" horiz-adv-x="991" 
d="M-34 0l335 920l-176 445h410l504 -1365h-410l-191 588l-190 -588h-282z" />
    <glyph glyph-name="mu" unicode="&#x3bc;" horiz-adv-x="1214" 
d="M105 -341v1351h399v-514c0 -114.667 7 -187.834 21 -219.501s40.667 -47.5 80 -47.5c41.333 0 69.166 15.5 83.499 46.5s21.5 104.5 21.5 220.5v514h399v-1010h-310l-13 150c-10 -56 -26.167 -98.5 -48.5 -127.5s-58.166 -43.5 -107.499 -43.5
c-64 0 -110.667 43.667 -140 131v-451h-385z" />
    <glyph glyph-name="nu" unicode="&#x3bd;" horiz-adv-x="1037" 
d="M1044 1017l-372.999 -1017h-298l-380 1017h410l145 -432c12 -35.333 22.667 -70.333 32 -105c3.33301 12 8.33301 27.333 15 46c1.33301 2.66699 5.66602 15.334 12.999 38.001l150 453h286z" />
    <glyph glyph-name="xi" unicode="&#x3be;" horiz-adv-x="979" 
d="M596 -308c33.333 90.667 50 155.333 50 194c0 35.333 -11 60.166 -33 74.499s-63 25.166 -123 32.499c-158 20 -270.333 58.5 -337 115.5s-100 142.167 -100 255.5c0 84 24.667 152.833 74 206.5s126.333 100.5 231 140.5c-110 40.667 -176.5 77.167 -199.5 109.5
s-34.5 62.5 -34.5 90.5c0 93.333 71.333 160 214 200h-245v254h847v-254h-161c-60 0 -101.833 -2.33301 -125.5 -7s-45.334 -19.5 -65.001 -44.5s-29.5 -54.5 -29.5 -88.5c0 -94 60.333 -141 181 -141h151v-253h-151c-66 0 -115.5 -3.83301 -148.5 -11.5
s-60.333 -25 -82 -52s-32.5 -60.5 -32.5 -100.5c0 -43.333 11.333 -74.666 34 -93.999s68.334 -34.333 137.001 -45c105.333 -17.333 177 -32.5 215 -45.5s68.5 -37.167 91.5 -72.5s34.5 -87.666 34.5 -156.999c0 -98 -24.333 -213.667 -73 -347z" />
    <glyph glyph-name="omicron" unicode="&#x3bf;" horiz-adv-x="1217" 
d="M602 -21c-168.667 0 -302.667 52.5 -402 157.5s-149 228.167 -149 369.5c0 152 51.833 278.667 155.5 380s238.5 152 404.5 152c167.333 0 301.833 -50 403.5 -150s152.5 -225.333 152.5 -376c0 -152 -51.5 -278.833 -154.5 -380.5s-239.833 -152.5 -410.5 -152.5z
M608 221c62 0 99.833 32.167 113.5 96.5s20.5 131.5 20.5 201.5c0 95.333 -9.66699 164 -29 206s-54 63 -104 63c-46 0 -79.667 -21.667 -101 -65s-32 -114.666 -32 -213.999c0 -116.667 11 -193.834 33 -231.501s55 -56.5 99 -56.5z" />
    <glyph glyph-name="pi" unicode="&#x3c0;" horiz-adv-x="1290" 
d="M140 0v755h-113v255h1235v-255h-113v-755h-398v755h-212v-755h-399z" />
    <glyph glyph-name="rho" unicode="&#x3c1;" horiz-adv-x="1211" 
d="M93 -341v760.001c0 117.333 5.66699 207.166 17 269.499s38.5 120 81.5 173s100.5 94.667 172.5 125s154 45.5 246 45.5c178.667 0 315 -53.5 409 -160.5s141 -239.833 141 -398.5c0 -144.667 -41.833 -263.167 -125.5 -355.5s-194.5 -138.5 -332.5 -138.5
c-87.333 0 -157.333 24 -210 72v-392h-399zM619 781.001c-46 0 -79.833 -20.833 -101.5 -62.5s-32.5 -114.167 -32.5 -217.5c0 -99.333 9.83301 -170.833 29.5 -214.5s54.167 -65.5 103.5 -65.5c62 0 99.833 32 113.5 96s20.5 131.333 20.5 202c0 90.667 -9.5 157 -28.5 199
s-53.833 63 -104.5 63z" />
    <glyph glyph-name="sigma1" unicode="&#x3c2;" horiz-adv-x="1121" 
d="M678 -295c23.333 74 35 133.999 35 179.999c0 33.333 -9 56.333 -27 69s-52 22 -102 28c-104 12 -192.5 34.333 -265.5 67s-134.667 88.834 -185 168.501s-75.5 175.167 -75.5 286.5c0 151.333 48.5 277 145.5 377s228.5 150 394.5 150
c156.667 0 275.167 -35.333 355.5 -106s126.833 -155.667 139.5 -255l-362 -54c-10 110 -48.667 165 -116 165c-34 0 -64.5 -16.333 -91.5 -49s-40.5 -84.667 -40.5 -156c0 -73.333 11.333 -134 34 -182s52.334 -80.833 89.001 -98.5s96.667 -33.167 180 -46.5
c71.333 -11.333 124.166 -24 158.499 -38s63 -41.167 86 -81.5s34.5 -95.5 34.5 -165.5c0 -86 -18 -190 -54 -312z" />
    <glyph glyph-name="sigma" unicode="&#x3c3;" horiz-adv-x="1255" 
d="M1238 1010l-0.00195312 -254h-185c78 -71.333 117 -169.333 117 -294c0 -134 -47.667 -248 -143 -342s-226.666 -141 -393.999 -141c-182 0 -323.333 46.333 -424 139s-151 221 -151 385c0 148 45.333 273 136 375s231.334 153 422.001 153c72.667 0 138.667 -7 198 -21
h424zM614.998 781c-46 0 -79.5 -20.5 -100.5 -61.5s-31.5 -113.167 -31.5 -216.5c0 -94.667 9.16699 -164.834 27.5 -210.501s52.833 -68.5 103.5 -68.5c60 0 97 31.167 111 93.5s21 129.833 21 202.5c0 92.667 -9.5 159.334 -28.5 200.001s-53.167 61 -102.5 61z" />
    <glyph glyph-name="tau" unicode="&#x3c4;" horiz-adv-x="913" 
d="M257 0v756h-257v254h913v-254h-257v-756h-399z" />
    <glyph glyph-name="upsilon" unicode="&#x3c5;" horiz-adv-x="1187" 
d="M495 1010l-0.00292969 -521.998c0 -112.667 5.5 -184 16.5 -214s38.5 -45 82.5 -45c42.667 0 69.834 14.833 81.501 44.5s17.5 101.167 17.5 214.5v522h398v-522c0 -134.667 -16.167 -234.834 -48.5 -300.501s-83.166 -116.834 -152.499 -153.501
s-164.666 -55 -285.999 -55c-171.333 0 -298.833 35 -382.5 105s-125.5 204.667 -125.5 404v522h399z" />
    <glyph glyph-name="phi" unicode="&#x3c6;" horiz-adv-x="1602" 
d="M615 -341l-0.000976562 317.998c-159.333 4.66699 -292 54.334 -398 149.001s-159 220.334 -159 377.001c0 123.333 36.667 229.833 110 319.5s163 145.167 269 166.5l78 -260c-50 -53.333 -75 -128 -75 -224c0 -154.667 58.333 -251 175 -289v805
c60.667 6.66699 120.334 10 179.001 10c169.333 0 294.833 -14 376.5 -42s151.167 -67.667 208.5 -119s99.333 -108.833 126 -172.5s40 -129.167 40 -196.5c0 -131.333 -46.5 -248 -139.5 -350s-238.167 -160 -435.5 -174v-318h-355zM969.999 212.998
c121.333 46 182 145 182 297c0 150 -60.667 247.333 -182 292v-589z" />
    <glyph glyph-name="chi" unicode="&#x3c7;" horiz-adv-x="1100" 
d="M334 391l-344 619h417l210 -417l165 417h338l-338 -671l373 -680h-414l-238 482l-202 -482h-349z" />
    <glyph glyph-name="psi" unicode="&#x3c8;" horiz-adv-x="1688" 
d="M660 -341v318.998c-94.667 2.66699 -172.334 10.834 -233.001 24.501s-118.167 40.834 -172.5 81.501s-94.333 90.834 -120 150.501s-38.5 144.834 -38.5 255.501v520h399v-536c0 -104.667 10.5 -171.834 31.5 -201.501s65.5 -44.5 133.5 -44.5v782h369v-782
c66 0 110 14.167 132 42.5s33 96.166 33 203.499v536h398v-520c0 -104.667 -10.833 -186 -32.5 -244s-59.667 -108.833 -114 -152.5s-112.166 -73.167 -173.499 -88.5s-142.333 -24.333 -243 -27v-319h-369z" />
    <glyph glyph-name="omega" unicode="&#x3c9;" horiz-adv-x="1627" 
d="M991 754l-0.00292969 -238.997c0 -126.667 5.66699 -206.167 17 -238.5s31.333 -48.5 60 -48.5c66.667 0 100 69.333 100 208c0 179.333 -53.667 344 -161 494l292 115c193.333 -155.333 290 -348 290 -578c0 -166.667 -41.667 -289.667 -125 -369
s-191.333 -119 -324 -119c-74 0 -134.167 12.167 -180.5 36.5s-95.166 76.166 -146.499 155.499c-49.333 -78 -97.666 -129.5 -144.999 -154.5s-106 -37.5 -176 -37.5c-138.667 0 -249.167 40.167 -331.5 120.5s-123.5 201.166 -123.5 362.499
c0 233.333 96.667 427.666 290 582.999l293 -115c-108 -150 -162 -314.667 -162 -494c0 -138.667 33 -208 99 -208c26.667 0 46.334 14.833 59.001 44.5s19 110.5 19 242.5v239h356z" />
    <glyph glyph-name="iotadieresis" unicode="&#x3ca;" horiz-adv-x="609" 
d="M105 0v1010h399v-1010h-399zM125 1188c-36.667 0 -67.999 12.8311 -93.999 38.498s-39 56.834 -39 93.501c0 35.333 12.833 66 38.5 92s57.167 39 94.5 39s68.666 -13.167 93.999 -39.5s38 -57.166 38 -92.499c0 -36 -13 -66.833 -39 -92.5s-57 -38.5 -93 -38.5z
M486.001 1188c-36.667 0 -68.168 13.001 -94.501 39.001s-39.5 57 -39.5 93s13 66.833 39 92.5s57.333 38.5 94 38.5s67.834 -12.833 93.501 -38.5s38.5 -56.5 38.5 -92.5c0 -36.667 -13 -67.834 -39 -93.501s-56.667 -38.5 -92 -38.5z" />
    <glyph glyph-name="upsilondieresis" unicode="&#x3cb;" horiz-adv-x="1187" 
d="M495 1010l-0.00292969 -521.998c0 -112.667 5.5 -184 16.5 -214s38.5 -45 82.5 -45c42.667 0 69.834 14.833 81.501 44.5s17.5 101.167 17.5 214.5v522h398v-522c0 -134.667 -16.167 -234.834 -48.5 -300.501s-83.166 -116.834 -152.499 -153.501
s-164.666 -55 -285.999 -55c-171.333 0 -298.833 35 -382.5 105s-125.5 204.667 -125.5 404v522h399zM413.997 1188c-36.667 0 -67.999 12.8311 -93.999 38.498s-39 56.834 -39 93.501c0 35.333 12.833 66 38.5 92s57.167 39 94.5 39s68.666 -13.167 93.999 -39.5
s38 -57.166 38 -92.499c0 -36 -13 -66.833 -39 -92.5s-57 -38.5 -93 -38.5zM774.998 1188c-36.667 0 -68.168 13.001 -94.501 39.001s-39.5 57 -39.5 93s13 66.833 39 92.5s57.333 38.5 94 38.5s67.834 -12.833 93.501 -38.5s38.5 -56.5 38.5 -92.5
c0 -36.667 -13 -67.834 -39 -93.501s-56.667 -38.5 -92 -38.5z" />
    <glyph glyph-name="omicrontonos" unicode="&#x3cc;" horiz-adv-x="1217" 
d="M602 -24c-168.667 0 -302.667 52.5 -402 157.5s-149 228.167 -149 369.5c0 152 51.833 278.667 155.5 380s238.5 152 404.5 152c167.333 0 301.833 -50 403.5 -150s152.5 -225.333 152.5 -376c0 -152 -51.5 -278.833 -154.5 -380.5s-239.833 -152.5 -410.5 -152.5z
M608 218c62 0 99.833 32.167 113.5 96.5s20.5 131.5 20.5 201.5c0 95.333 -9.66699 164 -29 206s-54 63 -104 63c-46 0 -79.667 -21.667 -101 -65s-32 -114.666 -32 -213.999c0 -116.667 11 -193.834 33 -231.501s55 -56.5 99 -56.5zM385 1298l457 224l73 -195l-478 -166z
" />
    <glyph glyph-name="upsilontonos" unicode="&#x3cd;" horiz-adv-x="1187" 
d="M495 1010l-0.00292969 -521.998c0 -112.667 5.5 -184 16.5 -214s38.5 -45 82.5 -45c42.667 0 69.834 14.833 81.501 44.5s17.5 101.167 17.5 214.5v522h398v-522c0 -134.667 -16.167 -234.834 -48.5 -300.501s-83.166 -116.834 -152.499 -153.501
s-164.666 -55 -285.999 -55c-171.333 0 -298.833 35 -382.5 105s-125.5 204.667 -125.5 404v522h399zM368.997 1298l457 224l73 -195l-478 -166z" />
    <glyph glyph-name="omegatonos" unicode="&#x3ce;" horiz-adv-x="1627" 
d="M991 754l-0.00292969 -238.997c0 -126.667 5.66699 -206.167 17 -238.5s31.333 -48.5 60 -48.5c66.667 0 100 69.333 100 208c0 179.333 -53.667 344 -161 494l292 115c193.333 -155.333 290 -348 290 -578c0 -166.667 -41.667 -289.667 -125 -369
s-191.333 -119 -324 -119c-74 0 -134.167 12.167 -180.5 36.5s-95.166 76.166 -146.499 155.499c-49.333 -78 -97.666 -129.5 -144.999 -154.5s-106 -37.5 -176 -37.5c-138.667 0 -249.167 40.167 -331.5 120.5s-123.5 201.166 -123.5 362.499
c0 233.333 96.667 427.666 290 582.999l293 -115c-108 -150 -162 -314.667 -162 -494c0 -138.667 33 -208 99 -208c26.667 0 46.334 14.833 59.001 44.5s19 110.5 19 242.5v239h356zM615.997 1298l457 224l73 -195l-478 -166z" />
    <glyph glyph-name="afii10023" unicode="&#x401;" horiz-adv-x="1193" 
d="M1146 326v-326h-1027v1365h1027v-315h-616v-198h498v-303h-498v-223h616zM451 1511c-36.667 0 -67.999 12.8311 -93.999 38.498s-39 56.834 -39 93.501c0 35.333 12.833 66 38.5 92s57.167 39 94.5 39s68.666 -13.167 93.999 -39.5s38 -57.166 38 -92.499
c0 -36 -13 -66.833 -39 -92.5s-57 -38.5 -93 -38.5zM812.001 1511c-36.667 0 -68.168 13.001 -94.501 39.001s-39.5 57 -39.5 93s13 66.833 39 92.5s57.333 38.5 94 38.5s67.834 -12.833 93.501 -38.5s38.5 -56.5 38.5 -92.5c0 -36.667 -13 -67.834 -39 -93.501
s-56.667 -38.5 -92 -38.5z" />
    <glyph glyph-name="afii10051" unicode="&#x402;" horiz-adv-x="1357" 
d="M185 0l-0.000976562 1072h-205v293h1033v-293h-421v-271c79.333 96.667 189.333 145 330 145c98 0 175.5 -20.5 232.5 -61.5s92.667 -94.167 107 -159.5s21.5 -218.333 21.5 -459c0 -231.333 -13.167 -377.333 -39.5 -438s-73 -106.834 -140 -138.501
s-173.167 -48.167 -318.5 -49.5l-17 255c35.333 4 60.833 15.333 76.5 34s24.834 59.834 27.501 123.501s4 151.5 4 263.5c0 156 -7 253.833 -21 293.5s-49.333 59.5 -106 59.5c-52.667 0 -92 -14.333 -118 -43s-39 -77.334 -39 -146.001v-480h-407z" />
    <glyph glyph-name="afii10052" unicode="&#x403;" horiz-adv-x="974" 
d="M119 0v1365h869v-322h-450v-1043h-419zM332 1625l457 224l73 -195l-478 -166z" />
    <glyph glyph-name="afii10053" unicode="&#x404;" horiz-adv-x="1362" 
d="M919 823v-255h-448c2 -90 25.167 -159 69.5 -207s102.166 -72 173.499 -72c126 0 208.667 67 248 201l386 -65c-45.333 -135.333 -122 -243.5 -230 -324.5s-241.667 -121.5 -401 -121.5c-198.667 0 -358.167 62.667 -478.5 188s-180.5 298 -180.5 518
c0 210.667 57.167 380.167 171.5 508.5s271.5 192.5 471.5 192.5c281.333 0 482 -125.333 602 -376l-371 -103c-44 112.667 -118.667 169 -224 169c-137.333 0 -211.666 -84.333 -222.999 -253h434z" />
    <glyph glyph-name="afii10054" unicode="&#x405;" horiz-adv-x="1244" 
d="M-22 395l389 70.001c32.667 -110 116.667 -165 252 -165c105.333 0 158 28 158 84c0 29.333 -12.167 52.166 -36.5 68.499s-67.833 30.833 -130.5 43.5c-239.333 46 -393 106 -461 180s-102 161 -102 261c0 128.667 48.833 235.667 146.5 321s238.167 128 421.5 128
c278 0 461.667 -111.667 551 -335l-347 -105c-36 91.333 -109 137 -219 137c-91.333 0 -137 -28.333 -137 -85c0 -25.333 10.333 -45 31 -59s60.667 -27.333 120 -40c163.333 -34.667 279.333 -65.334 348 -92.001s126 -72.167 172 -136.5s69 -140.166 69 -227.499
c0 -138 -56 -249.833 -168 -335.5s-259 -128.5 -441 -128.5c-332.667 0 -538 138.667 -616 416z" />
    <glyph glyph-name="afii10055" unicode="&#x406;" horiz-adv-x="657" 
d="M538 1365v-1365h-419v1365h419z" />
    <glyph glyph-name="afii10056" unicode="&#x407;" horiz-adv-x="657" 
d="M538 1365v-1365h-419v1365h419zM149 1511c-36.667 0 -67.999 12.8311 -93.999 38.498s-39 56.834 -39 93.501c0 35.333 12.833 66 38.5 92s57.167 39 94.5 39s68.666 -13.167 93.999 -39.5s38 -57.166 38 -92.499c0 -36 -13 -66.833 -39 -92.5s-57 -38.5 -93 -38.5z
M510.001 1511c-36.667 0 -68.168 13.001 -94.501 39.001s-39.5 57 -39.5 93s13 66.833 39 92.5s57.333 38.5 94 38.5s67.834 -12.833 93.501 -38.5s38.5 -56.5 38.5 -92.5c0 -36.667 -13 -67.834 -39 -93.501s-56.667 -38.5 -92 -38.5z" />
    <glyph glyph-name="afii10057" unicode="&#x408;" horiz-adv-x="852" 
d="M747 1365l-0.000976562 -860.001c0 -132 -11.833 -232.5 -35.5 -301.5s-69.834 -123.667 -138.501 -164s-161.667 -60.5 -279 -60.5c-103.333 0 -196.666 11 -279.999 33v326c58.667 -16.667 113.334 -25 164.001 -25c60 0 102.667 13.833 128 41.5s38 77.834 38 150.501
v860h403z" />
    <glyph glyph-name="afii10058" unicode="&#x409;" horiz-adv-x="1835" 
d="M959 883h327c157.333 0 269.333 -21.667 336 -65s113.167 -97.333 139.5 -162s39.5 -131.667 39.5 -201c0 -126 -41.333 -233.333 -124 -322s-213 -133 -391 -133h-502l-236 1052l-301 -1052h-322l432 1365h472zM1116 304h119c52.667 0 89.167 11.167 109.5 33.5
s30.5 60.833 30.5 115.5c0 93.333 -42 140 -126 140h-211z" />
    <glyph glyph-name="afii10059" unicode="&#x40a;" horiz-adv-x="2043" 
d="M1252 863l282 0.000976562c162 0 281.833 -39.333 359.5 -118s116.5 -179 116.5 -301c0 -76.667 -17.5 -151.834 -52.5 -225.501s-93.667 -128.5 -176 -164.5s-164.833 -54 -247.5 -54h-689v552h-319v-552h-407v1365h407v-523h319v523h407v-502zM1252 304.001h191
c93.333 0 140 44.667 140 134c0 50.667 -12 85.667 -36 105s-58.667 29 -104 29h-191v-268z" />
    <glyph glyph-name="afii10060" unicode="&#x40b;" horiz-adv-x="1378" 
d="M590 1072v-271c72.667 96.667 178.334 145 317.001 145c90 0 164 -18.167 222 -54.5s95.667 -81 113 -134s26 -135.167 26 -246.5v-511h-407v516c0 58 -8 97.667 -24 119s-45.667 32 -89 32c-48.667 0 -86.834 -10.167 -114.501 -30.5s-42.167 -72.5 -43.5 -156.5v-480
h-406v1072h-205v293h1033v-293h-422z" />
    <glyph glyph-name="afii10061" unicode="&#x40c;" horiz-adv-x="1343" 
d="M1350 0h-459l-236 516l-141 -201v-315h-395v1365h395v-564l377 564h376l-345 -499zM475 1625l457 224l73 -195l-478 -166z" />
    <glyph glyph-name="afii10062" unicode="&#x40e;" horiz-adv-x="1163" 
d="M464 422l-519.002 943.001h465l240 -528l197 528h370l-402 -995c-36 -90 -77.167 -161.833 -123.5 -215.5s-97.166 -92.834 -152.499 -117.501s-125.333 -37 -210 -37h-211v304h140c116.667 0 185.334 39.333 206.001 118zM836.998 1816h176
c-23.333 -102 -69 -179.833 -137 -233.5s-143.333 -80.5 -226 -80.5c-81.333 0 -156 25.667 -224 77s-115 130.333 -141 237h176c46 -94.667 109.333 -142 190 -142c81.333 0 143.333 47.333 186 142z" />
    <glyph glyph-name="afii10145" unicode="&#x40f;" horiz-adv-x="1346" 
d="M526 304h295v1061h407v-1365h-402l-21 -287h-263l-22 287h-401v1365h407v-1061z" />
    <glyph glyph-name="afii10017" unicode="&#x410;" horiz-adv-x="1306" 
d="M872 0l-77 269h-366l-82 -269h-340l422 1365h443l427 -1365h-427zM500 567h222l-111 396z" />
    <glyph glyph-name="afii10018" unicode="&#x411;" horiz-adv-x="1337" 
d="M119 0v1365h1007v-286h-600v-247h227c126.667 0 225.5 -14 296.5 -42s127.5 -73.5 169.5 -136.5s63 -139.5 63 -229.5c0 -74.667 -17 -147.334 -51 -218.001s-92 -122.667 -174 -156s-165 -50 -249 -50h-689zM526 304.001h204c84 0 126 42 126 126
c0 81.333 -51.333 122 -154 122h-176v-248z" />
    <glyph glyph-name="afii10019" unicode="&#x412;" horiz-adv-x="1316" 
d="M119 0v1365h693c144 0 249 -36.333 315 -109s99 -155.667 99 -249c0 -68 -19.167 -129.5 -57.5 -184.5s-95.5 -92.833 -171.5 -113.5c176.667 -42.667 265 -148.667 265 -318c0 -101.333 -31.167 -191.833 -93.5 -271.5s-195.5 -119.5 -399.5 -119.5h-650zM505 842h194
c48.667 0 83 12.333 103 37s30 51 30 79c0 76 -46.667 114 -140 114h-187v-230zM505 304l203.999 0.000976562c50.667 0 87.834 12.5 111.501 37.5s35.5 53.167 35.5 84.5s-11.5 60.166 -34.5 86.499s-65.167 39.5 -126.5 39.5h-190v-248z" />
    <glyph glyph-name="afii10020" unicode="&#x413;" horiz-adv-x="974" 
d="M119 0v1365h869v-322h-450v-1043h-419z" />
    <glyph glyph-name="afii10021" unicode="&#x414;" horiz-adv-x="1329" 
d="M107 304l308 1061h500l302 -1061h150v-591h-263l-34 287h-815l-35 -287h-263v591h150zM434 304h378l-167 747h-20z" />
    <glyph glyph-name="afii10022" unicode="&#x415;" horiz-adv-x="1193" 
d="M1146 326v-326h-1027v1365h1027v-315h-616v-198h498v-303h-498v-223h616z" />
    <glyph glyph-name="afii10024" unicode="&#x416;" horiz-adv-x="1925" 
d="M1524 771l497 -771h-433l-372 568l-60 -15v-553h-367v553l-62 15l-370 -568h-391l467 667l-425 698h418l309 -555l54 -11v566h367v-566l55 11l309 555h376z" />
    <glyph glyph-name="afii10025" unicode="&#x417;" horiz-adv-x="1258" 
d="M27 429l380 40.002c11.333 -67.333 31.333 -115.833 60 -145.5s71.667 -44.5 129 -44.5c116.667 0 175 52.667 175 158c0 92.667 -47 139 -141 139h-95v240h84c83.333 0 125 46.333 125 139c0 88 -55.667 132 -167 132c-50 0 -90 -10.5 -120 -31.5s-51 -67.5 -63 -139.5
l-334 54c29.333 277.333 208 416 536 416c160.667 0 295 -31 403 -93s162 -155.667 162 -281c0 -130.667 -71 -224.667 -213 -282c170 -60 255 -164.333 255 -313c0 -124.667 -53.333 -228.834 -160 -312.501s-253.334 -125.5 -440.001 -125.5
c-175.333 0 -315.166 38.167 -419.499 114.5s-156.5 188.166 -156.5 335.499z" />
    <glyph glyph-name="afii10026" unicode="&#x418;" horiz-adv-x="1405" 
d="M526 144v-143.999h-407v1365h407v-548c0 -72.667 -4 -159.334 -12 -260.001c50 109.333 99.667 206.333 149 291l216 371v146h407v-1365h-407v543c0 78 3.66699 164.333 11 259c-40 -92 -89.667 -188.667 -149 -290z" />
    <glyph glyph-name="afii10027" unicode="&#x419;" horiz-adv-x="1405" 
d="M526 144v-143.999h-407v1365h407v-548c0 -72.667 -4 -159.334 -12 -260.001c50 109.333 99.667 206.333 149 291l216 371v146h407v-1365h-407v543c0 78 3.66699 164.333 11 259c-40 -92 -89.667 -188.667 -149 -290zM890 1816h176c-23.333 -102 -69 -179.833 -137 -233.5
s-143.333 -80.5 -226 -80.5c-81.333 0 -156 25.667 -224 77s-115 130.333 -141 237h176c46 -94.667 109.333 -142 190 -142c81.333 0 143.333 47.333 186 142z" />
    <glyph glyph-name="afii10028" unicode="&#x41a;" horiz-adv-x="1343" 
d="M1350 0h-459l-236 516l-141 -201v-315h-395v1365h395v-564l377 564h376l-345 -499z" />
    <glyph glyph-name="afii10029" unicode="&#x41b;" horiz-adv-x="1212" 
d="M287 0h-335l432 1365h445l424 -1365h-414l-273 970z" />
    <glyph glyph-name="afii10030" unicode="&#x41c;" horiz-adv-x="1722" 
d="M1603 1365v-1365h-389v976l-253 -976h-266l-262 976v-976h-314v1365h547l198 -725l189 725h550z" />
    <glyph glyph-name="afii10031" unicode="&#x41d;" horiz-adv-x="1395" 
d="M1277 1365v-1365h-419v531h-320v-531h-419v1365h419v-502h320v502h419z" />
    <glyph glyph-name="afii10032" unicode="&#x41e;" horiz-adv-x="1415" 
d="M709 -21c-192 0 -348.499 63.668 -469.499 191.001s-181.5 297.666 -181.5 510.999c0 204 57.833 372.5 173.5 505.5s276.167 199.5 481.5 199.5c190 0 344.833 -62.667 464.5 -188s179.5 -292.666 179.5 -501.999c0 -216.667 -60.333 -390.334 -181 -521.001
s-276.334 -196 -467.001 -196zM707.001 289.001c70.667 0 121.5 30.833 152.5 92.5s46.5 174.5 46.5 338.5c0 237.333 -63.667 356 -191 356c-137.333 0 -206 -135.333 -206 -406c0 -254 66 -381 198 -381z" />
    <glyph glyph-name="afii10033" unicode="&#x41f;" horiz-adv-x="1366" 
d="M119 0v1365h1129v-1365h-407v1072h-315v-1072h-407z" />
    <glyph glyph-name="afii10034" unicode="&#x420;" horiz-adv-x="1317" 
d="M544 496v-496h-425v1365h583c145.333 0 255.833 -16.667 331.5 -50s135.667 -84.333 180 -153s66.5 -145.667 66.5 -231c0 -130 -45.333 -235 -136 -315s-211.667 -120 -363 -120h-237zM538 789h140c123.333 0 185 45.333 185 136c0 85.333 -57 128 -171 128h-154v-264z
" />
    <glyph glyph-name="afii10035" unicode="&#x421;" horiz-adv-x="1287" 
d="M870 521l383 -23.001c-18 -167.333 -79.833 -295.666 -185.5 -384.999s-235.5 -134 -389.5 -134c-185.333 0 -335 61.333 -449 184s-171 292 -171 508c0 214 54 386.667 162 518s258.667 197 452 197c180.667 0 319.5 -50 416.5 -150s151.833 -232.667 164.5 -398
l-391 -21c0 91.333 -17.5 157.333 -52.5 198s-76.167 61 -123.5 61c-132 0 -198 -132.667 -198 -398c0 -148.667 17.167 -249.667 51.5 -303s82.5 -80 144.5 -80c110.667 0 172.667 75.333 186 226z" />
    <glyph glyph-name="afii10036" unicode="&#x422;" horiz-adv-x="963" 
d="M680 1038v-1038h-397v1038h-283v327h963v-327h-283z" />
    <glyph glyph-name="afii10037" unicode="&#x423;" horiz-adv-x="1149" 
d="M457 422l-519.002 943.001h465l240 -528l197 528h370l-402 -995c-36 -90 -77.167 -161.833 -123.5 -215.5s-97.166 -92.834 -152.499 -117.501s-125.333 -37 -210 -37h-211v304h140c116.667 0 185.334 39.333 206.001 118z" />
    <glyph glyph-name="afii10038" unicode="&#x424;" horiz-adv-x="1570" 
d="M614 127c-178.667 14 -316 72.498 -412 175.498s-144 229.833 -144 380.5s48.167 277.334 144.5 380.001s233.5 161 411.5 175v168h342v-168c180 -14 317.667 -72.667 413 -176s143 -229.666 143 -378.999c0 -151.333 -48.5 -278.333 -145.5 -381
s-233.833 -161 -410.5 -175v-168h-342v168zM614 965.998c-111.333 -45.333 -167 -139.668 -167 -283.001s55.667 -237.666 167 -282.999v566zM956 399.996c111.333 45.333 167 139.668 167 283.001s-55.667 237.666 -167 282.999v-566z" />
    <glyph glyph-name="afii10039" unicode="&#x425;" horiz-adv-x="1322" 
d="M1287 1365l-396 -634l459 -731h-487l-252 429l-254 -429h-384l440 707l-422 658h488l212 -367l220 367h376z" />
    <glyph glyph-name="afii10040" unicode="&#x426;" horiz-adv-x="1361" 
d="M120 0v1365h407v-1043h294v1043h407v-1043h160v-609h-264l-34 287h-970z" />
    <glyph glyph-name="afii10041" unicode="&#x427;" horiz-adv-x="1365" 
d="M827 0v481.001c-79.333 -62.667 -176 -94 -290 -94c-128 0 -233.5 35 -316.5 105s-124.5 184.333 -124.5 343v530h419v-538c0 -48.667 7.83301 -83.334 23.5 -104.001s49.167 -31 100.5 -31c62 0 124.667 13.667 188 41v632h419v-1365h-419z" />
    <glyph glyph-name="afii10042" unicode="&#x428;" horiz-adv-x="2040" 
d="M119 0v1365h407v-1043h291v1043h407v-1043h290v1043h407v-1365h-1802z" />
    <glyph glyph-name="afii10043" unicode="&#x429;" horiz-adv-x="2053" 
d="M1921 322h160v-609h-263l-35 287h-1664v1365h407v-1043h291v1043h407v-1043h290v1043h407v-1043z" />
    <glyph glyph-name="afii10044" unicode="&#x42a;" horiz-adv-x="1431" 
d="M233 1043l-288 0.000976562v322h695v-482h241c132.667 0 232.334 -15.167 299.001 -45.5s119.5 -78.5 158.5 -144.5s58.5 -145 58.5 -237c0 -126.667 -41.333 -234.334 -124 -323.001s-213.334 -133 -392.001 -133h-648v1043zM640 304.001h190
c52.667 0 89.167 11.167 109.5 33.5s30.5 60.833 30.5 115.5c0 93.333 -42 140 -126 140h-204v-289z" />
    <glyph glyph-name="afii10045" unicode="&#x42b;" horiz-adv-x="1933" 
d="M1408 0v1365h407v-1365h-407zM119 0l-0.00195312 1365h407v-482h241c132.667 0 232.334 -15.167 299.001 -45.5s119.334 -78.5 158.001 -144.5s58 -145 58 -237c0 -126.667 -41.167 -234.334 -123.5 -323.001s-212.833 -133 -391.5 -133h-648zM525.998 304.001h190
c52.667 0 89.167 11.167 109.5 33.5s30.5 60.833 30.5 115.5c0 93.333 -42 140 -126 140h-204v-289z" />
    <glyph glyph-name="afii10046" unicode="&#x42c;" horiz-adv-x="1316" 
d="M119 0l-0.00195312 1365h407v-482h241c132.667 0 232.334 -15.167 299.001 -45.5s119.334 -78.5 158.001 -144.5s58 -145 58 -237c0 -126.667 -41.167 -234.334 -123.5 -323.001s-212.833 -133 -391.5 -133h-648zM525.998 304.001h190c52.667 0 89.167 11.167 109.5 33.5
s30.5 60.833 30.5 115.5c0 93.333 -42 140 -126 140h-204v-289z" />
    <glyph glyph-name="afii10047" unicode="&#x42d;" horiz-adv-x="1362" 
d="M443 568l0.000976562 254.998h434c-11.333 168.667 -85.333 253 -222 253c-106.667 0 -181.667 -56.333 -225 -169l-371 103c118.667 250.667 319.334 376 602.001 376c140 0 259 -31.667 357 -95s170.167 -148.166 216.5 -254.499s69.5 -221.166 69.5 -344.499
c0 -224.667 -60.167 -399.667 -180.5 -525s-278.833 -188 -475.5 -188c-162.667 0 -297.834 40.833 -405.501 122.5s-183.834 189.5 -228.501 323.5l386 65c39.333 -134 122 -201 248 -201c80.667 0 141 26.5 181 79.5s60.667 119.5 62 199.5h-448z" />
    <glyph glyph-name="afii10048" unicode="&#x42e;" horiz-adv-x="2062" 
d="M713 550h-186.999v-550h-407v1365h407v-523h194c30 168 102.5 300.667 217.5 398s251.167 146 408.5 146c201.333 0 361.333 -65.333 480 -196s178 -298.667 178 -504c0 -206 -58 -375.333 -174 -508s-276.333 -199 -481 -199c-180 0 -326.333 54.167 -439 162.5
s-178.334 244.5 -197.001 408.5zM1347 1076c-73.333 0 -126.333 -30.668 -159 -92.001s-49 -174.666 -49 -339.999c0 -236.667 66.333 -355 199 -355c143.333 0 215 135.333 215 406c0 254 -68.667 381 -206 381z" />
    <glyph glyph-name="afii10049" unicode="&#x42f;" horiz-adv-x="1399" 
d="M861 522l-200 -0.000976562l-213 -522h-396l301 574c-188 72 -282 196.667 -282 374c0 136.667 44.333 240.334 133 311.001s209.667 106 363 106h713v-1365h-419v522zM861 1075h-165.001c-81.333 0 -133.166 -13.5 -155.499 -40.5s-33.5 -56.833 -33.5 -89.5
c0 -46.667 16.333 -80.167 49 -100.5s84 -30.5 154 -30.5h151v261z" />
    <glyph glyph-name="afii10065" unicode="&#x430;" 
d="M1130 0l-380.002 0.00390625c-9.33301 43.333 -14 90.666 -14 141.999c-72 -108.667 -181 -163 -327 -163c-120 0 -209.833 30.667 -269.5 92s-89.5 131.666 -89.5 210.999c0 107.333 48.833 194.166 146.5 260.499s270.834 106.166 519.501 119.499v23
c0 44.667 -10.167 74.334 -30.5 89.001s-50.166 22 -89.499 22c-92 0 -143.333 -37 -154 -111l-364 34c52 212.667 229 319 531 319c82 0 157.333 -8.16699 226 -24.5s123 -41.833 163 -76.5s66.833 -71.334 80.5 -110.001s20.5 -113 20.5 -223v-406
c0 -77.333 10.333 -143.333 31 -198zM715.998 476.004c-170 -18 -255 -72.333 -255 -163c0 -61.333 33.667 -92 101 -92c42.667 0 79 12.667 109 38s45 81.333 45 168v49z" />
    <glyph glyph-name="afii10066" unicode="&#x431;" horiz-adv-x="1197" 
d="M672 1455h386.998c-3.33301 -63.333 -31.166 -117.333 -83.499 -162s-150.833 -82 -295.5 -112c-91.333 -18.667 -154.166 -42.667 -188.499 -72s-55.833 -76 -64.5 -140c66.667 28.667 138.334 43 215.001 43c163.333 0 287.666 -48.667 372.999 -146
s128 -213.666 128 -348.999c0 -157.333 -49.833 -286.333 -149.5 -387s-232.167 -151 -397.5 -151c-123.333 0 -227.833 27.333 -313.5 82s-145 125 -178 211s-49.5 190.667 -49.5 314c0 125.333 12.167 234.333 36.5 327s60 169.834 107 231.501s96.167 106.5 147.5 134.5
s123 55 215 81c49.333 13.333 80 25.166 92 35.499s18.333 30.166 19 59.499zM592.998 789c-46 0 -79.335 -19.332 -100.002 -57.999s-31 -114 -31 -226c0 -112.667 10.833 -186.834 32.5 -222.501s55.834 -53.5 102.501 -53.5c46 0 79.333 19 100 57s31 111.333 31 220
c0 106 -9.66699 179.667 -29 221s-54.666 62 -105.999 62z" />
    <glyph glyph-name="afii10067" unicode="&#x432;" horiz-adv-x="1160" 
d="M105 0v1010h641c114.667 0 199.667 -23.333 255 -70s83 -107.667 83 -183c0 -124.667 -83.667 -202 -251 -232c186 -34 279 -120.333 279 -259c0 -88 -33.167 -154.333 -99.5 -199s-158.833 -67 -277.5 -67h-630zM490 603h140c56.667 0 85 29.667 85 89
c0 64.667 -28.333 97 -85 97h-140v-186zM490 229l130 -0.000976562c44.667 0 74 9.16699 88 27.5s21 45.5 21 81.5c0 42.667 -8.66699 71.334 -26 86.001s-45 22 -83 22h-130v-217z" />
    <glyph glyph-name="afii10068" unicode="&#x433;" horiz-adv-x="855" 
d="M105 0v1010h723v-254h-324v-756h-399z" />
    <glyph glyph-name="afii10069" unicode="&#x434;" horiz-adv-x="1077" 
d="M80 240l214 770h519l185 -770h95v-472h-236l-34 232h-569l-34 -232h-236v472h96zM354 240h254l-90 531h-39z" />
    <glyph glyph-name="afii10070" unicode="&#x435;" 
d="M777 365l372.001 -25c-22 -100 -78.167 -185.167 -168.5 -255.5s-212.5 -105.5 -366.5 -105.5c-171.333 0 -308 49.5 -410 148.5s-153 221.833 -153 368.5c0 152 50.333 280.333 151 385s235 157 403 157c162.667 0 294.167 -49.333 394.5 -148s150.5 -233 150.5 -403
c0 -14 -0.333008 -33.333 -1 -58h-681c1.33301 -64 12.666 -111.5 33.999 -142.5s62 -46.5 122 -46.5c86.667 0 137.667 41.667 153 125zM751.001 629c-0.666992 68.667 -14.5 114.833 -41.5 138.5s-60.5 35.5 -100.5 35.5c-94.667 0 -142 -58 -142 -174h284z" />
    <glyph glyph-name="afii10072" unicode="&#x436;" horiz-adv-x="1657" 
d="M1358 618l355 -618h-398l-217 418l-71 -20v-398h-396v398l-71 20l-217 -418h-371l337 526l-329 484h379l231 -350l41 -3v353h396v-353l41 3l230 350h394z" />
    <glyph glyph-name="afii10073" unicode="&#x437;" horiz-adv-x="1083" 
d="M398 416v190.998h46c95.333 0 143 30.667 143 92c0 65.333 -31.333 98 -94 98c-62 0 -98.667 -33.667 -110 -101l-352 51c48.667 189.333 218.667 284 510 284c149.333 0 260.666 -26.667 333.999 -80s110 -122.333 110 -207c0 -95.333 -62 -163.333 -186 -204
c151.333 -35.333 227 -113.666 227 -234.999c0 -102 -42 -181.833 -126 -239.5s-208 -86.5 -372 -86.5c-174 0 -297.667 30.333 -371 91s-118.666 128.334 -135.999 203.001l362 49c14 -78 54 -117 120 -117c65.333 0 98 33 98 99c0 45.333 -13.667 75.333 -41 90
s-81.333 22 -162 22z" />
    <glyph glyph-name="afii10074" unicode="&#x438;" horiz-adv-x="1223" 
d="M504 96v-96h-399v1010h399v-323c0 -60 -3.66699 -142 -11 -246c42 92.667 77.667 166.667 107 222l119 225v122h399v-1010h-399v296c0 74 3.66699 156 11 246c-42 -93.333 -77.667 -167.333 -107 -222z" />
    <glyph glyph-name="afii10075" unicode="&#x439;" horiz-adv-x="1223" 
d="M504 96v-96h-399v1010h399v-323c0 -60 -3.66699 -142 -11 -246c42 92.667 77.667 166.667 107 222l119 225v122h399v-1010h-399v296c0 74 3.66699 156 11 246c-42 -93.333 -77.667 -167.333 -107 -222zM800 1495h176c-23.333 -102 -69 -179.833 -137 -233.5
s-143.333 -80.5 -226 -80.5c-81.333 0 -156 25.667 -224 77s-115 130.333 -141 237h176c46 -94.667 109.333 -142 190 -142c81.333 0 143.333 47.333 186 142z" />
    <glyph glyph-name="afii10076" unicode="&#x43a;" horiz-adv-x="1162" 
d="M874 667l341.999 -667h-412l-191 407l-111 -127v-280h-397v1010h397v-380c22.667 34 46.334 65 71.001 93l255 287h353z" />
    <glyph glyph-name="afii10077" unicode="&#x43b;" horiz-adv-x="991" 
d="M-45 0l335 1010h423l315 -1010h-410l-163 684h-14l-204 -684h-282z" />
    <glyph glyph-name="afii10078" unicode="&#x43c;" horiz-adv-x="1619" 
d="M105 0v1010h559l162 -777l162 777h525v-1010h-361v774h-14l-165 -774h-389l-165 774h-14v-774h-300z" />
    <glyph glyph-name="afii10079" unicode="&#x43d;" horiz-adv-x="1196" 
d="M105 0v1010h399v-361h188v361h399v-1010h-399v412h-188v-412h-399z" />
    <glyph glyph-name="afii10080" unicode="&#x43e;" horiz-adv-x="1217" 
d="M602 -21c-168.667 0 -302.667 52.5 -402 157.5s-149 228.167 -149 369.5c0 152 51.833 278.667 155.5 380s238.5 152 404.5 152c167.333 0 301.833 -50 403.5 -150s152.5 -225.333 152.5 -376c0 -152 -51.5 -278.833 -154.5 -380.5s-239.833 -152.5 -410.5 -152.5z
M608 221c62 0 99.833 32.167 113.5 96.5s20.5 131.5 20.5 201.5c0 95.333 -9.66699 164 -29 206s-54 63 -104 63c-46 0 -79.667 -21.667 -101 -65s-32 -114.666 -32 -213.999c0 -116.667 11 -193.834 33 -231.501s55 -56.5 99 -56.5z" />
    <glyph glyph-name="afii10081" unicode="&#x43f;" horiz-adv-x="1166" 
d="M105 0v1010h956v-1010h-399v791h-158v-791h-399z" />
    <glyph glyph-name="afii10082" unicode="&#x440;" 
d="M504 -321h-399.002v1338h367v-144c51.333 110 147 165 287 165c121.333 0 216.333 -47.167 285 -141.5s103 -222.833 103 -385.5s-35.167 -292 -105.5 -388s-163.166 -144 -278.499 -144c-113.333 0 -199.666 43.333 -258.999 130v-430zM503.998 372
c0 -45.333 10.332 -80.5 30.999 -105.5s46.334 -37.5 77.001 -37.5c48 0 81 22.167 99 66.5s27 112.5 27 204.5c0 106 -10.333 180.5 -31 223.5s-51.667 64.5 -93 64.5c-24.667 0 -49.167 -9.66699 -73.5 -29s-36.5 -51 -36.5 -95v-292z" />
    <glyph glyph-name="afii10083" unicode="&#x441;" horiz-adv-x="1071" 
d="M718 410l340.003 -29c-16 -118.667 -65.833 -215.334 -149.5 -290.001s-194.834 -112 -333.501 -112c-155.333 0 -281.5 48.833 -378.5 146.5s-145.5 222.834 -145.5 375.501c0 156 48.167 284.5 144.5 385.5s221.5 151.5 375.5 151.5c136.667 0 248 -38.167 334 -114.5
s135.333 -172.833 148 -289.5l-349 -29c-14.667 107.333 -55.334 161 -122.001 161c-42.667 0 -73.834 -19.5 -93.501 -58.5s-29.5 -106.833 -29.5 -203.5c0 -83.333 9.83301 -145 29.5 -185s53.834 -60 102.501 -60c71.333 0 113.666 50.333 126.999 151z" />
    <glyph glyph-name="afii10084" unicode="&#x442;" horiz-adv-x="872" 
d="M243 0v756h-277v254h940v-254h-264v-756h-399z" />
    <glyph glyph-name="afii10085" unicode="&#x443;" horiz-adv-x="1049" 
d="M1055 1017l-399 -1102c-30.667 -83.333 -74.667 -148.5 -132 -195.5s-145.666 -70.5 -264.999 -70.5c-28.667 0 -95.334 3 -200.001 9v283c52 -8 100 -12 144 -12c114.667 0 172 25.333 172 76c0 16.667 -5.66699 39.667 -17 69l-365 943h427l168 -542l176 542h291z" />
    <glyph glyph-name="afii10086" unicode="&#x444;" horiz-adv-x="1527" 
d="M578 -341v319.999c-131.333 10 -235 41.167 -311 93.5s-129.833 114.166 -161.5 185.499s-47.5 151 -47.5 239c0 151.333 46.667 273.5 140 366.5s220 147.833 380 164.5v337h372v-337c160 -16.667 286.667 -71.667 380 -165s140 -215.666 140 -366.999
c0 -150.667 -45 -271.667 -135 -363s-218.333 -142.666 -385 -153.999v-320h-372zM596 834.999c-117.333 -58.667 -176 -167 -176 -325s58.667 -266 176 -324v649zM932 185.999c116.667 58 175 166 175 324c0 71.333 -15.333 137 -46 197s-73.667 102.667 -129 128v-649z
" />
    <glyph glyph-name="afii10087" unicode="&#x445;" horiz-adv-x="1133" 
d="M1146 0l-450.001 0.000976562l-187 324l-199 -324h-324l357 539l-313 478h444l105 -190c4.66699 -8.66699 10.334 -18.667 17.001 -30c3.33301 -5.33301 8 -14 14 -26c7.33301 11.333 16.333 26.666 27 45.999c1.33301 3.33301 5 10.333 11 21l104 179h329l-298 -462z
" />
    <glyph glyph-name="afii10088" unicode="&#x446;" horiz-adv-x="1207" 
d="M105 0v1010h399v-756h186v756h398v-756h146v-486h-236l-34 232h-859z" />
    <glyph glyph-name="afii10089" unicode="&#x447;" horiz-adv-x="1166" 
d="M663 0l-0.00195312 349c-80.667 -47.333 -171 -71 -271 -71c-206.667 0 -310 106 -310 318v414h399v-387c0 -40 4.83301 -67 14.5 -81s30.834 -21 63.501 -21c36.667 0 71.334 7.66699 104.001 23v466h398v-1010h-398z" />
    <glyph glyph-name="afii10090" unicode="&#x448;" horiz-adv-x="1778" 
d="M105 0v1010h399v-756h185v756h399v-756h186v756h398v-1010h-1567z" />
    <glyph glyph-name="afii10091" unicode="&#x449;" horiz-adv-x="1791" 
d="M105 0v1010h399v-756h185v756h399v-756h186v756h398v-756h146v-486h-236l-34 232h-1443z" />
    </font>
</defs>
</svg>
