<svg xmlns="http://www.w3.org/2000/svg" xmlns:xlink="http://www.w3.org/1999/xlink" width="47px" height="48px" viewBox="0 0 47 48">
<clipPath id="clip0"><circle cx="23.50" cy="24.50" r="23.50"/></clipPath><defs>
<symbol id="symbol0"><circle cx="23.50" cy="24.50" r="23.50"/></symbol></defs>
<g><use xlink:href="#symbol0" x="0" y="0" width="47" height="48" fill="rgb(191,191,193)"/><use xlink:href="#symbol0" x="0" y="0" width="47" height="48" fill="none" stroke="rgb(255,255,255)" stroke-width="2.00px" clip-path="url(#clip0)"/></g><path fillRule="evenodd" d="M 27.89 35C 27.89 35 19.11 35 19.11 35 17.94 35 17 34.07 17 32.92 17 32.92 17 14.08 17 14.08 17 12.93 17.94 12 19.11 12 19.11 12 27.89 12 27.89 12 29.06 12 30 12.93 30 14.08 30 14.08 30 32.92 30 32.92 30 34.07 29.06 35 27.89 35ZM 29.51 13.88C 29.51 13.11 28.88 12.49 28.1 12.49 28.1 12.49 18.9 12.49 18.9 12.49 18.12 12.49 17.49 13.11 17.49 13.88 17.49 13.88 17.49 33.05 17.49 33.05 17.49 33.82 18.12 34.44 18.9 34.44 18.9 34.44 28.1 34.44 28.1 34.44 28.88 34.44 29.51 33.82 29.51 33.05 29.51 33.05 29.51 13.88 29.51 13.88ZM 18.05 15.54C 18.05 15.54 28.95 15.54 28.95 15.54 28.95 15.54 28.95 31.39 28.95 31.39 28.95 31.39 18.05 31.39 18.05 31.39 18.05 31.39 18.05 15.54 18.05 15.54ZM 23.46 31.8C 24.05 31.8 24.52 32.27 24.52 32.85 24.52 33.42 24.05 33.89 23.46 33.89 22.88 33.89 22.41 33.42 22.41 32.85 22.41 32.27 22.88 31.8 23.46 31.8ZM 22.97 33.19C 22.97 33.27 23.04 33.33 23.11 33.33 23.11 33.33 23.82 33.33 23.82 33.33 23.89 33.33 23.96 33.27 23.96 33.19 23.96 33.19 23.96 32.5 23.96 32.5 23.96 32.42 23.89 32.36 23.82 32.36 23.82 32.36 23.11 32.36 23.11 32.36 23.04 32.36 22.97 32.42 22.97 32.5 22.97 32.5 22.97 33.19 22.97 33.19ZM 23.15 32.41C 23.15 32.41 23.78 32.41 23.78 32.41 23.85 32.41 23.91 32.46 23.91 32.53 23.91 32.53 23.91 33.16 23.91 33.16 23.91 33.23 23.85 33.28 23.78 33.28 23.78 33.28 23.15 33.28 23.15 33.28 23.08 33.28 23.02 33.23 23.02 33.16 23.02 33.16 23.02 32.53 23.02 32.53 23.02 32.46 23.08 32.41 23.15 32.41Z" fill="rgb(255,255,255)"/>
</svg>