
<svg xmlns="http://www.w3.org/2000/svg" xmlns:xlink="http://www.w3.org/1999/xlink" width="47px" height="48px" viewBox="0 0 47 48">
<clipPath id="clip0"><circle cx="23.50" cy="24.50" r="23.50"/></clipPath><defs>
<symbol id="symbol0"><circle cx="23.50" cy="24.50" r="23.50"/></symbol></defs>
<g><use xlink:href="#symbol0" x="0" y="0" width="47" height="48" fill="rgb(191,191,193)"/><use xlink:href="#symbol0" x="0" y="0" width="47" height="48" fill="none" stroke="rgb(255,255,255)" stroke-width="2.00px" clip-path="url(#clip0)"/></g><path fillRule="evenodd" d="M 30.01 17.94C 30.01 17.94 29.18 17.94 29.18 17.94 29.18 17.94 29.18 18.82 29.18 18.82 29.18 18.82 28.55 18.82 28.55 18.82 28.55 18.82 28.55 17.85 28.55 17.85 28.55 17.85 27.67 17.85 27.67 17.85 27.67 17.85 27.67 18.65 27.67 18.65 27.67 18.65 26.95 18.65 26.95 18.65 26.95 18.65 26.95 17.88 26.95 17.88 26.95 17.88 25.88 17.88 25.88 17.88 25.88 17.88 25.88 21.51 25.88 21.51 25.88 21.51 24.45 21.51 24.45 21.51 24.45 21.51 24.45 17.88 24.45 17.88 24.45 17.88 23.32 17.88 23.32 17.88 23.32 17.88 23.32 18.53 23.32 18.53 23.32 18.53 22.79 18.53 22.79 18.53 22.79 18.53 22.79 17.88 22.79 17.88 22.79 17.88 22.79 16.28 22.79 16.28 22.79 16.28 22.99 16.06 22.99 16.06 22.99 16.06 22.99 13.71 22.99 13.71 22.99 13.71 21.89 13.71 21.89 13.71 21.89 13.71 21.89 14.64 21.89 14.64 21.89 14.64 21.21 14.64 21.21 14.64 21.21 14.64 21.21 13.82 21.21 13.82 21.21 13.82 20.47 13.82 20.47 13.82 20.47 13.82 20.47 14.5 20.47 14.5 20.47 14.5 20.03 14.5 20.03 14.5 20.03 14.5 20.03 13.76 20.03 13.76 20.03 13.76 19.5 13.76 19.5 13.76 19.5 13.76 19.5 9.19 19.5 9.19 19.5 9.19 19.31 8 19.31 8 19.31 8 19.15 9.11 19.15 9.11 19.15 9.11 19.15 14.53 19.15 14.53 19.15 14.53 18.68 14.53 18.68 14.53 18.68 14.53 18.68 13.91 18.68 13.91 18.68 13.91 17.8 13.91 17.8 13.91 17.8 13.91 17.8 16.09 17.8 16.09 17.8 16.09 18.57 16.09 18.57 16.09 18.57 16.09 18.57 20.66 18.57 20.66 18.57 20.66 18.21 20.66 18.21 20.66 18.21 20.66 18.21 21.49 18.21 21.49 18.21 21.49 17.44 21.49 17.44 21.49 17.44 21.49 17.44 20.75 17.44 20.75 17.44 20.75 16.78 20.75 16.78 20.75 16.78 20.75 16.78 23.13 16.78 23.13 16.78 23.13 17.63 23.13 17.63 23.13 17.63 23.13 17.63 27.11 17.63 27.11 17.63 27.11 16.37 27.11 16.37 27.11 16.37 27.11 16.37 27.87 16.37 27.87 16.37 27.87 15.96 27.87 15.96 27.87 15.96 27.87 15.96 27.11 15.96 27.11 15.96 27.11 14.99 27.11 14.99 27.11 14.99 27.11 14.99 29.55 14.99 29.55 14.99 29.55 16.53 29.55 16.53 29.55 16.53 29.55 16.53 35 16.53 35 16.53 35 19.59 34.94 19.59 34.94 19.59 34.94 19.61 31.54 19.61 31.54 19.61 31.54 19.75 30.66 20.14 30.46 20.52 30.26 21.18 30.29 21.18 30.29 21.18 30.29 21.98 30.4 21.98 30.4 21.98 30.4 22.36 30.68 22.47 31 22.56 31.26 22.62 33.99 22.63 34.87 22.63 34.87 30.01 34.72 30.01 34.72 30.01 34.72 30.01 17.94 30.01 17.94ZM 19.95 25.93C 19.95 25.93 18.92 25.93 18.92 25.93 18.92 25.93 18.92 24.44 18.92 24.44 18.92 24.44 19.18 23.68 19.48 23.68 19.77 23.68 19.95 24.29 19.95 24.48 19.95 24.67 19.95 25.93 19.95 25.93ZM 20.51 19.24C 20.51 19.24 19.5 19.24 19.5 19.24 19.5 19.24 19.5 17.78 19.5 17.78 19.5 17.78 19.76 17.04 20.04 17.04 20.33 17.04 20.51 17.64 20.51 17.82 20.51 18.01 20.51 19.24 20.51 19.24ZM 28.49 22.55C 28.49 22.55 27.42 22.55 27.42 22.55 27.42 22.55 27.42 21 27.42 21 27.42 21 27.69 20.21 27.99 20.21 28.3 20.21 28.49 20.85 28.49 21.05 28.49 21.24 28.49 22.55 28.49 22.55Z" fill="rgb(255,255,255)"/>
</svg>