<svg xmlns="http://www.w3.org/2000/svg"
	xmlns:xlink="http://www.w3.org/1999/xlink"
	width="47px" height="48px" viewBox="0 0 47 48">
<clipPath id="clip0"><circle cx="23.50" cy="24.50" r="23.50"/></clipPath><defs>
<symbol id="symbol0"><circle cx="23.50" cy="24.50" r="23.50"/></symbol></defs>
<g><use xlink:href="#symbol0" x="0" y="0" width="47" height="48" fill="rgb(191,191,193)"/><use xlink:href="#symbol0" x="0" y="0" width="47" height="48" fill="none" stroke="rgb(255,255,255)" stroke-width="2.00px" clip-path="url(#clip0)"/></g><path fillRule="evenodd" d="M 13 31C 13 31 13 17.01 13 17.01 13 17.01 32 17.01 32 17.01 32 17.01 32 31 32 31 32 31 13 31 13 31ZM 13.92 29.46C 13.92 29.46 19.38 24 19.38 24 19.38 24 13.92 18.54 13.92 18.54 13.92 18.54 13.92 29.46 13.92 29.46ZM 14.53 17.93C 14.53 17.93 21.46 24.86 21.46 24.86 22.23 25.63 22.78 25.63 23.54 24.86 23.54 24.86 30.47 17.93 30.47 17.93 30.47 17.93 14.53 17.93 14.53 17.93ZM 30.47 30.08C 30.47 30.08 25.02 24.62 25.02 24.62 23.94 25.69 23.24 26.43 22.5 26.43 21.77 26.43 21.06 25.69 19.99 24.62 19.99 24.62 14.53 30.08 14.53 30.08 14.53 30.08 30.47 30.08 30.47 30.08ZM 25.63 24C 25.63 24 31.08 29.46 31.08 29.46 31.08 29.46 31.08 18.54 31.08 18.54 31.08 18.54 25.63 24 25.63 24Z" fill="rgb(255,255,255)"/>
</svg>