<svg xmlns="http://www.w3.org/2000/svg"
	xmlns:xlink="http://www.w3.org/1999/xlink"
	width="47px" height="48px" viewBox="0 0 47 48">
<clipPath id="clip0"><circle cx="23.50" cy="24.50" r="23.50"/></clipPath><defs>
<symbol id="symbol0"><circle cx="23.50" cy="24.50" r="23.50"/></symbol></defs>
<g><use xlink:href="#symbol0" x="0" y="0" width="47" height="48" fill="rgb(191,191,193)"/>
<use xlink:href="#symbol0" x="0" y="0" width="47" height="48" fill="none" stroke="rgb(255,255,255)" stroke-width="2.00px" clip-path="url(#clip0)"/></g><path fillRule="evenodd" d="M 22.07 14.05C 20.83 14.16 19.6 14.44 18.49 14.98 17.44 15.48 16.5 16.24 15.96 17.27 15.3 18.5 15.24 20.01 15.71 21.31 16.21 22.63 17.38 23.58 18.64 24.15 20.3 24.9 22.1 25.25 23.86 25.64 24.83 25.89 25.86 26.09 26.65 26.73 27.07 27.06 27.34 27.57 27.35 28.1 27.39 28.73 27.06 29.33 26.58 29.71 25.91 30.31 25 30.58 24.11 30.65 23.34 30.71 22.56 30.73 21.82 30.5 21.05 30.28 20.35 29.81 19.93 29.13 19.4 28.38 19.22 27.4 18.51 26.77 17.96 26.25 17.11 26.13 16.4 26.38 15.58 26.63 14.94 27.45 15 28.31 15.07 29.67 15.85 30.89 16.8 31.82 18.18 33.18 20.13 33.77 22.02 33.94 24.31 34.12 26.73 33.95 28.79 32.86 30.03 32.23 31.06 31.18 31.59 29.89 32.09 28.68 32.12 27.3 31.75 26.05 31.38 24.83 30.43 23.84 29.31 23.25 27.38 22.18 25.18 21.85 23.07 21.31 22.08 21.08 21.02 20.84 20.25 20.14 19.72 19.69 19.69 18.82 20.15 18.31 20.63 17.78 21.32 17.45 22.02 17.33 22.96 17.18 23.94 17.18 24.86 17.44 25.46 17.59 25.93 18.04 26.3 18.51 26.85 19.19 27.14 20.08 27.87 20.61 28.76 21.14 30.05 20.93 30.66 20.07 31.16 19.49 31.18 18.66 30.96 17.96 30.58 16.71 29.56 15.76 28.45 15.12 26.52 14.05 24.23 13.89 22.07 14.05" fill="rgb(255,255,255)"/>
</svg>