<svg  style="enable-background:new 0 0 128 128;" viewBox="0 0 128 128" xml:space="preserve" xmlns="http://www.w3.org/2000/svg" xmlns:xlink="http://www.w3.org/1999/xlink"><path d="M64,14c-27.6,0-50,22.4-50,50s22.4,50,50,50s50-22.4,50-50S91.6,14,64,14z M51.4,88c-2.8,0-5.1-2.3-5.1-5.1  c0-2.8,2.3-5.1,5.1-5.1c2.8,0,5.1,2.3,5.1,5.1C56.5,85.7,54.2,88,51.4,88z M70.2,88c-2.8,0-5.1-2.3-5.1-5.1c0-2.8,2.3-5.1,5.1-5.1  c2.9,0,5.2,2.3,5.1,5.1C75.3,85.7,73,88,70.2,88z M85.1,67.6c-2.2,1.8-4.7,3.9-7.2,6.2c-0.2,0.2-0.5,0.3-0.7,0.3s-0.4-0.1-0.6-0.2  c-0.3-0.3-0.4-0.9-0.2-1.3c1.5-2.5,3.8-5,5.9-7.1c2.3-2.4,4.9-5.1,4.4-6.3c-0.4-0.8-2.6-2.2-13.5-2.2c-0.7,0-1.5,0-2.3,0  c-0.7,0-1.4,0-2.1,0c-24.7,0-28.9-7.2-31.7-12c-0.3-0.5-0.6-1-0.9-1.5c-0.3-0.4-0.2-1,0.2-1.3c0.4-0.3,0.9-0.3,1.3,0.1  c7.1,7.4,13.2,8.7,41.1,8.7c11.3,0,16,1,17,3.6C96.9,57.6,92.5,61.4,85.1,67.6z"/></svg>